<?xml version="1.0" encoding="utf-8" standalone="no"?>
<!DOCTYPE svg PUBLIC "-//W3C//DTD SVG 1.1//EN"
  "http://www.w3.org/Graphics/SVG/1.1/DTD/svg11.dtd">
<!-- Created with matplotlib (https://matplotlib.org/) -->
<svg height="345.6pt" version="1.1" viewBox="0 0 460.8 345.6" width="460.8pt" xmlns="http://www.w3.org/2000/svg" xmlns:xlink="http://www.w3.org/1999/xlink">
 <defs>
  <style type="text/css">
*{stroke-linecap:butt;stroke-linejoin:round;}
  </style>
 </defs>
 <g id="figure_1">
  <g id="patch_1">
   <path d="M 0 345.6 
L 460.8 345.6 
L 460.8 0 
L 0 0 
z
" style="fill:#ffffff;"/>
  </g>
  <g id="axes_1">
   <g id="patch_2">
    <path d="M 57.6 307.584 
L 414.72 307.584 
L 414.72 41.472 
L 57.6 41.472 
z
" style="fill:#ffffff;"/>
   </g>
   <g id="matplotlib.axis_1">
    <g id="xtick_1">
     <g id="line2d_1">
      <defs>
       <path d="M 0 0 
L 0 3.5 
" id="m3dae6c5888" style="stroke:#000000;stroke-width:0.8;"/>
      </defs>
      <g>
       <use style="stroke:#000000;stroke-width:0.8;" x="73.832727" xlink:href="#m3dae6c5888" y="307.584"/>
      </g>
     </g>
     <g id="text_1">
      <!-- 0 -->
      <defs>
       <path d="M 31.78125 66.40625 
Q 24.171875 66.40625 20.328125 58.90625 
Q 16.5 51.421875 16.5 36.375 
Q 16.5 21.390625 20.328125 13.890625 
Q 24.171875 6.390625 31.78125 6.390625 
Q 39.453125 6.390625 43.28125 13.890625 
Q 47.125 21.390625 47.125 36.375 
Q 47.125 51.421875 43.28125 58.90625 
Q 39.453125 66.40625 31.78125 66.40625 
z
M 31.78125 74.21875 
Q 44.046875 74.21875 50.515625 64.515625 
Q 56.984375 54.828125 56.984375 36.375 
Q 56.984375 17.96875 50.515625 8.265625 
Q 44.046875 -1.421875 31.78125 -1.421875 
Q 19.53125 -1.421875 13.0625 8.265625 
Q 6.59375 17.96875 6.59375 36.375 
Q 6.59375 54.828125 13.0625 64.515625 
Q 19.53125 74.21875 31.78125 74.21875 
z
" id="DejaVuSans-48"/>
      </defs>
      <g transform="translate(70.651477 322.182437)scale(0.1 -0.1)">
       <use xlink:href="#DejaVuSans-48"/>
      </g>
     </g>
    </g>
    <g id="xtick_2">
     <g id="line2d_2">
      <g>
       <use style="stroke:#000000;stroke-width:0.8;" x="138.763636" xlink:href="#m3dae6c5888" y="307.584"/>
      </g>
     </g>
     <g id="text_2">
      <!-- 100 -->
      <defs>
       <path d="M 12.40625 8.296875 
L 28.515625 8.296875 
L 28.515625 63.921875 
L 10.984375 60.40625 
L 10.984375 69.390625 
L 28.421875 72.90625 
L 38.28125 72.90625 
L 38.28125 8.296875 
L 54.390625 8.296875 
L 54.390625 0 
L 12.40625 0 
z
" id="DejaVuSans-49"/>
      </defs>
      <g transform="translate(129.219886 322.182437)scale(0.1 -0.1)">
       <use xlink:href="#DejaVuSans-49"/>
       <use x="63.623047" xlink:href="#DejaVuSans-48"/>
       <use x="127.246094" xlink:href="#DejaVuSans-48"/>
      </g>
     </g>
    </g>
    <g id="xtick_3">
     <g id="line2d_3">
      <g>
       <use style="stroke:#000000;stroke-width:0.8;" x="203.694545" xlink:href="#m3dae6c5888" y="307.584"/>
      </g>
     </g>
     <g id="text_3">
      <!-- 200 -->
      <defs>
       <path d="M 19.1875 8.296875 
L 53.609375 8.296875 
L 53.609375 0 
L 7.328125 0 
L 7.328125 8.296875 
Q 12.9375 14.109375 22.625 23.890625 
Q 32.328125 33.6875 34.8125 36.53125 
Q 39.546875 41.84375 41.421875 45.53125 
Q 43.3125 49.21875 43.3125 52.78125 
Q 43.3125 58.59375 39.234375 62.25 
Q 35.15625 65.921875 28.609375 65.921875 
Q 23.96875 65.921875 18.8125 64.3125 
Q 13.671875 62.703125 7.8125 59.421875 
L 7.8125 69.390625 
Q 13.765625 71.78125 18.9375 73 
Q 24.125 74.21875 28.421875 74.21875 
Q 39.75 74.21875 46.484375 68.546875 
Q 53.21875 62.890625 53.21875 53.421875 
Q 53.21875 48.921875 51.53125 44.890625 
Q 49.859375 40.875 45.40625 35.40625 
Q 44.1875 33.984375 37.640625 27.21875 
Q 31.109375 20.453125 19.1875 8.296875 
z
" id="DejaVuSans-50"/>
      </defs>
      <g transform="translate(194.150795 322.182437)scale(0.1 -0.1)">
       <use xlink:href="#DejaVuSans-50"/>
       <use x="63.623047" xlink:href="#DejaVuSans-48"/>
       <use x="127.246094" xlink:href="#DejaVuSans-48"/>
      </g>
     </g>
    </g>
    <g id="xtick_4">
     <g id="line2d_4">
      <g>
       <use style="stroke:#000000;stroke-width:0.8;" x="268.625455" xlink:href="#m3dae6c5888" y="307.584"/>
      </g>
     </g>
     <g id="text_4">
      <!-- 300 -->
      <defs>
       <path d="M 40.578125 39.3125 
Q 47.65625 37.796875 51.625 33 
Q 55.609375 28.21875 55.609375 21.1875 
Q 55.609375 10.40625 48.1875 4.484375 
Q 40.765625 -1.421875 27.09375 -1.421875 
Q 22.515625 -1.421875 17.65625 -0.515625 
Q 12.796875 0.390625 7.625 2.203125 
L 7.625 11.71875 
Q 11.71875 9.328125 16.59375 8.109375 
Q 21.484375 6.890625 26.8125 6.890625 
Q 36.078125 6.890625 40.9375 10.546875 
Q 45.796875 14.203125 45.796875 21.1875 
Q 45.796875 27.640625 41.28125 31.265625 
Q 36.765625 34.90625 28.71875 34.90625 
L 20.21875 34.90625 
L 20.21875 43.015625 
L 29.109375 43.015625 
Q 36.375 43.015625 40.234375 45.921875 
Q 44.09375 48.828125 44.09375 54.296875 
Q 44.09375 59.90625 40.109375 62.90625 
Q 36.140625 65.921875 28.71875 65.921875 
Q 24.65625 65.921875 20.015625 65.03125 
Q 15.375 64.15625 9.8125 62.3125 
L 9.8125 71.09375 
Q 15.4375 72.65625 20.34375 73.4375 
Q 25.25 74.21875 29.59375 74.21875 
Q 40.828125 74.21875 47.359375 69.109375 
Q 53.90625 64.015625 53.90625 55.328125 
Q 53.90625 49.265625 50.4375 45.09375 
Q 46.96875 40.921875 40.578125 39.3125 
z
" id="DejaVuSans-51"/>
      </defs>
      <g transform="translate(259.081705 322.182437)scale(0.1 -0.1)">
       <use xlink:href="#DejaVuSans-51"/>
       <use x="63.623047" xlink:href="#DejaVuSans-48"/>
       <use x="127.246094" xlink:href="#DejaVuSans-48"/>
      </g>
     </g>
    </g>
    <g id="xtick_5">
     <g id="line2d_5">
      <g>
       <use style="stroke:#000000;stroke-width:0.8;" x="333.556364" xlink:href="#m3dae6c5888" y="307.584"/>
      </g>
     </g>
     <g id="text_5">
      <!-- 400 -->
      <defs>
       <path d="M 37.796875 64.3125 
L 12.890625 25.390625 
L 37.796875 25.390625 
z
M 35.203125 72.90625 
L 47.609375 72.90625 
L 47.609375 25.390625 
L 58.015625 25.390625 
L 58.015625 17.1875 
L 47.609375 17.1875 
L 47.609375 0 
L 37.796875 0 
L 37.796875 17.1875 
L 4.890625 17.1875 
L 4.890625 26.703125 
z
" id="DejaVuSans-52"/>
      </defs>
      <g transform="translate(324.012614 322.182437)scale(0.1 -0.1)">
       <use xlink:href="#DejaVuSans-52"/>
       <use x="63.623047" xlink:href="#DejaVuSans-48"/>
       <use x="127.246094" xlink:href="#DejaVuSans-48"/>
      </g>
     </g>
    </g>
    <g id="xtick_6">
     <g id="line2d_6">
      <g>
       <use style="stroke:#000000;stroke-width:0.8;" x="398.487273" xlink:href="#m3dae6c5888" y="307.584"/>
      </g>
     </g>
     <g id="text_6">
      <!-- 500 -->
      <defs>
       <path d="M 10.796875 72.90625 
L 49.515625 72.90625 
L 49.515625 64.59375 
L 19.828125 64.59375 
L 19.828125 46.734375 
Q 21.96875 47.46875 24.109375 47.828125 
Q 26.265625 48.1875 28.421875 48.1875 
Q 40.625 48.1875 47.75 41.5 
Q 54.890625 34.8125 54.890625 23.390625 
Q 54.890625 11.625 47.5625 5.09375 
Q 40.234375 -1.421875 26.90625 -1.421875 
Q 22.3125 -1.421875 17.546875 -0.640625 
Q 12.796875 0.140625 7.71875 1.703125 
L 7.71875 11.625 
Q 12.109375 9.234375 16.796875 8.0625 
Q 21.484375 6.890625 26.703125 6.890625 
Q 35.15625 6.890625 40.078125 11.328125 
Q 45.015625 15.765625 45.015625 23.390625 
Q 45.015625 31 40.078125 35.4375 
Q 35.15625 39.890625 26.703125 39.890625 
Q 22.75 39.890625 18.8125 39.015625 
Q 14.890625 38.140625 10.796875 36.28125 
z
" id="DejaVuSans-53"/>
      </defs>
      <g transform="translate(388.943523 322.182437)scale(0.1 -0.1)">
       <use xlink:href="#DejaVuSans-53"/>
       <use x="63.623047" xlink:href="#DejaVuSans-48"/>
       <use x="127.246094" xlink:href="#DejaVuSans-48"/>
      </g>
     </g>
    </g>
    <g id="text_7">
     <!-- Rounds -->
     <defs>
      <path d="M 44.390625 34.1875 
Q 47.5625 33.109375 50.5625 29.59375 
Q 53.5625 26.078125 56.59375 19.921875 
L 66.609375 0 
L 56 0 
L 46.6875 18.703125 
Q 43.0625 26.03125 39.671875 28.421875 
Q 36.28125 30.8125 30.421875 30.8125 
L 19.671875 30.8125 
L 19.671875 0 
L 9.8125 0 
L 9.8125 72.90625 
L 32.078125 72.90625 
Q 44.578125 72.90625 50.734375 67.671875 
Q 56.890625 62.453125 56.890625 51.90625 
Q 56.890625 45.015625 53.6875 40.46875 
Q 50.484375 35.9375 44.390625 34.1875 
z
M 19.671875 64.796875 
L 19.671875 38.921875 
L 32.078125 38.921875 
Q 39.203125 38.921875 42.84375 42.21875 
Q 46.484375 45.515625 46.484375 51.90625 
Q 46.484375 58.296875 42.84375 61.546875 
Q 39.203125 64.796875 32.078125 64.796875 
z
" id="DejaVuSans-82"/>
      <path d="M 30.609375 48.390625 
Q 23.390625 48.390625 19.1875 42.75 
Q 14.984375 37.109375 14.984375 27.296875 
Q 14.984375 17.484375 19.15625 11.84375 
Q 23.34375 6.203125 30.609375 6.203125 
Q 37.796875 6.203125 41.984375 11.859375 
Q 46.1875 17.53125 46.1875 27.296875 
Q 46.1875 37.015625 41.984375 42.703125 
Q 37.796875 48.390625 30.609375 48.390625 
z
M 30.609375 56 
Q 42.328125 56 49.015625 48.375 
Q 55.71875 40.765625 55.71875 27.296875 
Q 55.71875 13.875 49.015625 6.21875 
Q 42.328125 -1.421875 30.609375 -1.421875 
Q 18.84375 -1.421875 12.171875 6.21875 
Q 5.515625 13.875 5.515625 27.296875 
Q 5.515625 40.765625 12.171875 48.375 
Q 18.84375 56 30.609375 56 
z
" id="DejaVuSans-111"/>
      <path d="M 8.5 21.578125 
L 8.5 54.6875 
L 17.484375 54.6875 
L 17.484375 21.921875 
Q 17.484375 14.15625 20.5 10.265625 
Q 23.53125 6.390625 29.59375 6.390625 
Q 36.859375 6.390625 41.078125 11.03125 
Q 45.3125 15.671875 45.3125 23.6875 
L 45.3125 54.6875 
L 54.296875 54.6875 
L 54.296875 0 
L 45.3125 0 
L 45.3125 8.40625 
Q 42.046875 3.421875 37.71875 1 
Q 33.40625 -1.421875 27.6875 -1.421875 
Q 18.265625 -1.421875 13.375 4.4375 
Q 8.5 10.296875 8.5 21.578125 
z
M 31.109375 56 
z
" id="DejaVuSans-117"/>
      <path d="M 54.890625 33.015625 
L 54.890625 0 
L 45.90625 0 
L 45.90625 32.71875 
Q 45.90625 40.484375 42.875 44.328125 
Q 39.84375 48.1875 33.796875 48.1875 
Q 26.515625 48.1875 22.3125 43.546875 
Q 18.109375 38.921875 18.109375 30.90625 
L 18.109375 0 
L 9.078125 0 
L 9.078125 54.6875 
L 18.109375 54.6875 
L 18.109375 46.1875 
Q 21.34375 51.125 25.703125 53.5625 
Q 30.078125 56 35.796875 56 
Q 45.21875 56 50.046875 50.171875 
Q 54.890625 44.34375 54.890625 33.015625 
z
" id="DejaVuSans-110"/>
      <path d="M 45.40625 46.390625 
L 45.40625 75.984375 
L 54.390625 75.984375 
L 54.390625 0 
L 45.40625 0 
L 45.40625 8.203125 
Q 42.578125 3.328125 38.25 0.953125 
Q 33.9375 -1.421875 27.875 -1.421875 
Q 17.96875 -1.421875 11.734375 6.484375 
Q 5.515625 14.40625 5.515625 27.296875 
Q 5.515625 40.1875 11.734375 48.09375 
Q 17.96875 56 27.875 56 
Q 33.9375 56 38.25 53.625 
Q 42.578125 51.265625 45.40625 46.390625 
z
M 14.796875 27.296875 
Q 14.796875 17.390625 18.875 11.75 
Q 22.953125 6.109375 30.078125 6.109375 
Q 37.203125 6.109375 41.296875 11.75 
Q 45.40625 17.390625 45.40625 27.296875 
Q 45.40625 37.203125 41.296875 42.84375 
Q 37.203125 48.484375 30.078125 48.484375 
Q 22.953125 48.484375 18.875 42.84375 
Q 14.796875 37.203125 14.796875 27.296875 
z
" id="DejaVuSans-100"/>
      <path d="M 44.28125 53.078125 
L 44.28125 44.578125 
Q 40.484375 46.53125 36.375 47.5 
Q 32.28125 48.484375 27.875 48.484375 
Q 21.1875 48.484375 17.84375 46.4375 
Q 14.5 44.390625 14.5 40.28125 
Q 14.5 37.15625 16.890625 35.375 
Q 19.28125 33.59375 26.515625 31.984375 
L 29.59375 31.296875 
Q 39.15625 29.25 43.1875 25.515625 
Q 47.21875 21.78125 47.21875 15.09375 
Q 47.21875 7.46875 41.1875 3.015625 
Q 35.15625 -1.421875 24.609375 -1.421875 
Q 20.21875 -1.421875 15.453125 -0.5625 
Q 10.6875 0.296875 5.421875 2 
L 5.421875 11.28125 
Q 10.40625 8.6875 15.234375 7.390625 
Q 20.0625 6.109375 24.8125 6.109375 
Q 31.15625 6.109375 34.5625 8.28125 
Q 37.984375 10.453125 37.984375 14.40625 
Q 37.984375 18.0625 35.515625 20.015625 
Q 33.0625 21.96875 24.703125 23.78125 
L 21.578125 24.515625 
Q 13.234375 26.265625 9.515625 29.90625 
Q 5.8125 33.546875 5.8125 39.890625 
Q 5.8125 47.609375 11.28125 51.796875 
Q 16.75 56 26.8125 56 
Q 31.78125 56 36.171875 55.265625 
Q 40.578125 54.546875 44.28125 53.078125 
z
" id="DejaVuSans-115"/>
     </defs>
     <g transform="translate(217.513125 335.860562)scale(0.1 -0.1)">
      <use xlink:href="#DejaVuSans-82"/>
      <use x="69.419922" xlink:href="#DejaVuSans-111"/>
      <use x="130.601562" xlink:href="#DejaVuSans-117"/>
      <use x="193.980469" xlink:href="#DejaVuSans-110"/>
      <use x="257.359375" xlink:href="#DejaVuSans-100"/>
      <use x="320.835938" xlink:href="#DejaVuSans-115"/>
     </g>
    </g>
   </g>
   <g id="matplotlib.axis_2">
    <g id="ytick_1">
     <g id="line2d_7">
      <defs>
       <path d="M 0 0 
L -3.5 0 
" id="m5ecbbc5c96" style="stroke:#000000;stroke-width:0.8;"/>
      </defs>
      <g>
       <use style="stroke:#000000;stroke-width:0.8;" x="57.6" xlink:href="#m5ecbbc5c96" y="297.277859"/>
      </g>
     </g>
     <g id="text_8">
      <!-- 0.0 -->
      <defs>
       <path d="M 10.6875 12.40625 
L 21 12.40625 
L 21 0 
L 10.6875 0 
z
" id="DejaVuSans-46"/>
      </defs>
      <g transform="translate(34.696875 301.077078)scale(0.1 -0.1)">
       <use xlink:href="#DejaVuSans-48"/>
       <use x="63.623047" xlink:href="#DejaVuSans-46"/>
       <use x="95.410156" xlink:href="#DejaVuSans-48"/>
      </g>
     </g>
    </g>
    <g id="ytick_2">
     <g id="line2d_8">
      <g>
       <use style="stroke:#000000;stroke-width:0.8;" x="57.6" xlink:href="#m5ecbbc5c96" y="244.587765"/>
      </g>
     </g>
     <g id="text_9">
      <!-- 0.5 -->
      <g transform="translate(34.696875 248.386984)scale(0.1 -0.1)">
       <use xlink:href="#DejaVuSans-48"/>
       <use x="63.623047" xlink:href="#DejaVuSans-46"/>
       <use x="95.410156" xlink:href="#DejaVuSans-53"/>
      </g>
     </g>
    </g>
    <g id="ytick_3">
     <g id="line2d_9">
      <g>
       <use style="stroke:#000000;stroke-width:0.8;" x="57.6" xlink:href="#m5ecbbc5c96" y="191.897672"/>
      </g>
     </g>
     <g id="text_10">
      <!-- 1.0 -->
      <g transform="translate(34.696875 195.696891)scale(0.1 -0.1)">
       <use xlink:href="#DejaVuSans-49"/>
       <use x="63.623047" xlink:href="#DejaVuSans-46"/>
       <use x="95.410156" xlink:href="#DejaVuSans-48"/>
      </g>
     </g>
    </g>
    <g id="ytick_4">
     <g id="line2d_10">
      <g>
       <use style="stroke:#000000;stroke-width:0.8;" x="57.6" xlink:href="#m5ecbbc5c96" y="139.207579"/>
      </g>
     </g>
     <g id="text_11">
      <!-- 1.5 -->
      <g transform="translate(34.696875 143.006798)scale(0.1 -0.1)">
       <use xlink:href="#DejaVuSans-49"/>
       <use x="63.623047" xlink:href="#DejaVuSans-46"/>
       <use x="95.410156" xlink:href="#DejaVuSans-53"/>
      </g>
     </g>
    </g>
    <g id="ytick_5">
     <g id="line2d_11">
      <g>
       <use style="stroke:#000000;stroke-width:0.8;" x="57.6" xlink:href="#m5ecbbc5c96" y="86.517486"/>
      </g>
     </g>
     <g id="text_12">
      <!-- 2.0 -->
      <g transform="translate(34.696875 90.316704)scale(0.1 -0.1)">
       <use xlink:href="#DejaVuSans-50"/>
       <use x="63.623047" xlink:href="#DejaVuSans-46"/>
       <use x="95.410156" xlink:href="#DejaVuSans-48"/>
      </g>
     </g>
    </g>
    <g id="text_13">
     <!-- Loss -->
     <defs>
      <path d="M 9.8125 72.90625 
L 19.671875 72.90625 
L 19.671875 8.296875 
L 55.171875 8.296875 
L 55.171875 0 
L 9.8125 0 
z
" id="DejaVuSans-76"/>
     </defs>
     <g transform="translate(28.617188 185.581906)rotate(-90)scale(0.1 -0.1)">
      <use xlink:href="#DejaVuSans-76"/>
      <use x="55.697266" xlink:href="#DejaVuSans-111"/>
      <use x="116.878906" xlink:href="#DejaVuSans-115"/>
      <use x="168.978516" xlink:href="#DejaVuSans-115"/>
     </g>
    </g>
   </g>
   <g id="line2d_12">
    <path clip-path="url(#p7708339576)" d="M 73.832727 53.568 
L 74.482036 93.546053 
L 75.131345 105.46517 
L 76.429964 136.401839 
L 77.079273 166.632999 
L 77.728582 188.16618 
L 78.377891 213.666422 
L 79.0272 231.691761 
L 79.676509 243.750434 
L 80.325818 253.45713 
L 80.975127 255.130129 
L 81.624436 257.303762 
L 82.923055 263.754152 
L 84.221673 273.086268 
L 84.870982 275.293356 
L 85.520291 271.769139 
L 86.1696 271.820932 
L 86.818909 272.556078 
L 87.468218 272.856652 
L 88.117527 271.934948 
L 88.766836 277.211816 
L 89.416145 278.927237 
L 90.065455 278.517381 
L 90.714764 280.150539 
L 91.364073 278.753934 
L 92.013382 278.80215 
L 92.662691 279.500943 
L 93.312 280.86776 
L 93.961309 278.617932 
L 94.610618 280.843526 
L 95.259927 280.37606 
L 95.909236 279.472868 
L 96.558545 280.12572 
L 97.207855 282.91 
L 97.857164 282.989658 
L 99.155782 283.982316 
L 99.805091 283.373617 
L 100.4544 282.465038 
L 101.103709 283.021524 
L 101.753018 284.480288 
L 102.402327 285.089067 
L 103.051636 284.575238 
L 103.700945 285.595632 
L 104.350255 287.280689 
L 104.999564 287.239024 
L 105.648873 286.332119 
L 106.947491 287.980728 
L 107.5968 286.767611 
L 108.246109 285.175652 
L 108.895418 286.765647 
L 109.544727 286.817684 
L 110.194036 286.275908 
L 110.843345 287.342616 
L 111.492655 287.73799 
L 112.141964 286.965492 
L 114.089891 287.081103 
L 114.7392 288.250844 
L 115.388509 287.779158 
L 116.037818 288.295128 
L 116.687127 288.420732 
L 117.336436 289.117621 
L 117.985745 287.871203 
L 118.635055 289.126253 
L 119.284364 289.521912 
L 119.933673 288.398536 
L 120.582982 287.557608 
L 121.232291 288.64691 
L 121.8816 288.645923 
L 122.530909 288.921489 
L 123.180218 290.698376 
L 123.829527 290.31315 
L 124.478836 289.71304 
L 125.777455 289.11083 
L 126.426764 289.186137 
L 127.076073 289.870031 
L 127.725382 291.176629 
L 128.374691 290.797691 
L 129.024 290.926058 
L 129.673309 290.450734 
L 130.322618 290.844301 
L 130.971927 289.525367 
L 131.621236 290.594437 
L 132.270545 290.817387 
L 132.919855 291.469508 
L 133.569164 290.45527 
L 134.218473 291.541783 
L 134.867782 291.268336 
L 135.517091 290.253684 
L 136.1664 289.894197 
L 136.815709 290.198772 
L 137.465018 289.964331 
L 138.114327 290.038243 
L 138.763636 291.147978 
L 139.412945 289.841812 
L 140.062255 290.171802 
L 141.360873 290.17562 
L 142.010182 290.042893 
L 142.659491 290.52462 
L 143.958109 291.21194 
L 144.607418 291.368266 
L 145.256727 291.121393 
L 145.906036 292.13216 
L 146.555345 291.318402 
L 147.204655 291.477534 
L 147.853964 291.384894 
L 148.503273 290.78364 
L 149.152582 290.990961 
L 149.801891 291.936983 
L 151.100509 292.156398 
L 151.749818 291.968548 
L 152.399127 291.252761 
L 153.048436 291.150884 
L 153.697745 290.86486 
L 154.347055 290.949168 
L 154.996364 291.522837 
L 155.645673 291.859398 
L 156.294982 291.96491 
L 156.944291 292.448128 
L 157.5936 292.564254 
L 158.242909 292.514089 
L 158.892218 292.277197 
L 159.541527 292.189138 
L 160.840145 291.494204 
L 161.489455 292.218126 
L 162.138764 292.354358 
L 162.788073 292.779635 
L 163.437382 292.948592 
L 164.736 292.083362 
L 165.385309 292.231635 
L 166.034618 291.986595 
L 166.683927 292.066129 
L 167.333236 292.924219 
L 167.982545 292.319572 
L 168.631855 292.032226 
L 169.281164 292.308345 
L 170.579782 291.485336 
L 171.229091 292.05651 
L 171.8784 292.340428 
L 172.527709 292.290399 
L 173.177018 292.627856 
L 173.826327 292.459484 
L 174.475636 292.605786 
L 175.124945 292.339094 
L 175.774255 292.516096 
L 176.423564 291.496034 
L 177.072873 291.965076 
L 178.371491 291.716434 
L 179.0208 291.312067 
L 179.670109 292.052943 
L 180.319418 291.819365 
L 180.968727 292.066995 
L 181.618036 292.689487 
L 182.267345 292.228913 
L 182.916655 292.347351 
L 184.215273 293.160129 
L 184.864582 293.168972 
L 185.513891 292.94586 
L 186.1632 293.128521 
L 187.461818 292.817547 
L 188.111127 291.733426 
L 188.760436 292.482525 
L 190.708364 292.542696 
L 191.357673 293.078651 
L 192.656291 292.794057 
L 193.3056 292.873661 
L 193.954909 292.010948 
L 194.604218 292.744715 
L 195.253527 292.723996 
L 195.902836 293.018295 
L 197.201455 293.149287 
L 197.850764 292.743117 
L 198.500073 293.133294 
L 199.149382 292.561808 
L 199.798691 292.521283 
L 200.448 293.206259 
L 201.097309 293.656308 
L 201.746618 293.850209 
L 202.395927 294.321757 
L 203.045236 294.3202 
L 203.694545 294.588114 
L 206.941091 294.473668 
L 207.5904 293.500219 
L 208.889018 293.64156 
L 209.538327 292.900923 
L 210.187636 292.568152 
L 210.836945 293.599857 
L 211.486255 292.782944 
L 212.135564 292.523051 
L 212.784873 292.921454 
L 213.434182 293.090025 
L 214.083491 292.723402 
L 214.7328 293.328753 
L 215.382109 293.23068 
L 216.031418 293.467451 
L 216.680727 293.036771 
L 217.330036 293.488893 
L 217.979345 293.249033 
L 218.628655 293.556294 
L 219.277964 293.052216 
L 219.927273 293.82532 
L 220.576582 293.297593 
L 221.225891 293.550925 
L 221.8752 293.304982 
L 222.524509 293.80501 
L 223.173818 293.34927 
L 223.823127 293.726712 
L 224.472436 293.278971 
L 225.121745 293.314837 
L 225.771055 293.538119 
L 226.420364 293.418086 
L 227.069673 293.095933 
L 227.718982 293.762199 
L 228.368291 294.123249 
L 229.0176 293.854554 
L 229.666909 294.396745 
L 230.316218 293.964507 
L 230.965527 293.990103 
L 231.614836 293.877692 
L 232.264145 293.065109 
L 232.913455 292.61321 
L 233.562764 293.352691 
L 234.861382 293.464136 
L 235.510691 294.298212 
L 236.16 294.551823 
L 236.809309 293.841477 
L 238.107927 293.087947 
L 238.757236 293.238072 
L 239.406545 293.038065 
L 240.055855 293.834285 
L 240.705164 294.116892 
L 242.003782 294.267472 
L 242.653091 294.636716 
L 243.3024 294.258706 
L 243.951709 294.174863 
L 244.601018 294.480502 
L 245.250327 294.601505 
L 245.899636 294.484066 
L 246.548945 294.960679 
L 247.198255 294.380992 
L 248.496873 294.306247 
L 249.795491 293.194699 
L 250.4448 293.463788 
L 251.094109 293.4652 
L 251.743418 293.071904 
L 252.392727 293.244728 
L 253.691345 293.776444 
L 254.340655 293.851191 
L 254.989964 293.37862 
L 255.639273 293.905405 
L 256.288582 293.225118 
L 257.5872 293.257886 
L 258.236509 293.053271 
L 258.885818 293.062062 
L 259.535127 293.309208 
L 260.184436 293.084809 
L 260.833745 293.006801 
L 261.483055 293.978351 
L 262.132364 293.465106 
L 262.781673 294.099919 
L 264.080291 294.000385 
L 264.7296 293.663726 
L 265.378909 293.895633 
L 266.028218 293.693812 
L 266.677527 293.920185 
L 268.625455 294.243553 
L 269.274764 294.229293 
L 269.924073 294.052712 
L 271.222691 294.003123 
L 271.872 294.339404 
L 272.521309 294.361312 
L 273.170618 294.701701 
L 273.819927 293.594399 
L 274.469236 294.046111 
L 275.118545 294.061378 
L 275.767855 294.354225 
L 276.417164 294.440056 
L 277.066473 295.351548 
L 277.715782 294.538056 
L 278.365091 294.525895 
L 279.0144 294.377267 
L 279.663709 293.717903 
L 280.962327 294.296931 
L 281.611636 293.970461 
L 282.260945 293.978557 
L 282.910255 294.613333 
L 284.208873 294.311111 
L 285.507491 294.526224 
L 286.1568 294.529035 
L 286.806109 294.668039 
L 287.455418 295.322761 
L 288.104727 295.437283 
L 288.754036 294.908064 
L 289.403345 294.645081 
L 290.052655 294.636153 
L 290.701964 294.181096 
L 291.351273 293.87969 
L 292.000582 294.361033 
L 292.649891 293.869493 
L 293.2992 293.796086 
L 293.948509 293.557522 
L 295.247127 293.473476 
L 295.896436 294.193733 
L 296.545745 293.895796 
L 297.195055 294.640032 
L 297.844364 295.016423 
L 299.142982 294.207423 
L 299.792291 294.55101 
L 300.4416 294.506223 
L 301.090909 293.601162 
L 301.740218 293.831962 
L 302.389527 294.241327 
L 303.038836 294.256221 
L 303.688145 294.0868 
L 304.337455 295.041874 
L 304.986764 295.235548 
L 305.636073 294.400772 
L 306.285382 294.399023 
L 306.934691 294.667143 
L 307.584 294.156817 
L 308.233309 294.21009 
L 308.882618 295.011995 
L 309.531927 294.337634 
L 310.181236 294.275627 
L 310.830545 294.668251 
L 311.479855 294.713818 
L 312.129164 294.224661 
L 312.778473 294.957369 
L 313.427782 294.269288 
L 314.077091 294.368549 
L 314.7264 293.721065 
L 315.375709 294.185297 
L 316.025018 294.141929 
L 316.674327 294.87843 
L 318.622255 295.11736 
L 319.271564 294.485097 
L 319.920873 294.51042 
L 320.570182 294.039304 
L 321.219491 294.448154 
L 321.8688 293.853117 
L 322.518109 294.173279 
L 323.167418 294.1302 
L 323.816727 294.590054 
L 324.466036 293.857798 
L 325.115345 294.419632 
L 325.764655 294.221749 
L 326.413964 294.273128 
L 327.063273 294.082799 
L 327.712582 294.822715 
L 329.0112 294.640439 
L 329.660509 294.541765 
L 331.608436 294.98107 
L 332.257745 294.866834 
L 332.907055 294.560865 
L 333.556364 294.406802 
L 334.205673 294.432254 
L 334.854982 293.527112 
L 335.504291 293.941515 
L 336.1536 294.194521 
L 337.452218 293.818892 
L 338.101527 294.482367 
L 339.400145 294.583368 
L 340.049455 294.202514 
L 341.997382 294.89151 
L 342.646691 294.602482 
L 343.296 295.131236 
L 343.945309 294.600102 
L 344.594618 294.253546 
L 345.243927 294.274976 
L 345.893236 294.582866 
L 347.191855 294.652262 
L 347.841164 294.961985 
L 348.490473 294.511225 
L 349.139782 294.429953 
L 349.789091 294.490419 
L 350.4384 294.668903 
L 351.087709 294.488211 
L 351.737018 294.803953 
L 353.035636 293.990629 
L 353.684945 294.404742 
L 354.983564 294.181782 
L 356.282182 294.719591 
L 356.931491 294.159675 
L 357.5808 294.251146 
L 358.230109 294.460464 
L 358.879418 294.824546 
L 360.827345 294.942961 
L 361.476655 294.77347 
L 362.125964 294.4405 
L 362.775273 294.552694 
L 363.424582 294.986378 
L 364.073891 294.923223 
L 364.7232 295.145438 
L 366.021818 295.053706 
L 366.671127 295.219147 
L 367.320436 295.175217 
L 367.969745 295.243869 
L 369.268364 295.008867 
L 369.917673 294.598934 
L 370.566982 294.678583 
L 371.216291 294.614391 
L 371.8656 295.135063 
L 372.514909 294.579619 
L 373.164218 294.953794 
L 373.813527 294.693883 
L 374.462836 294.554399 
L 375.112145 294.179306 
L 375.761455 294.416279 
L 376.410764 294.174516 
L 377.060073 294.424364 
L 377.709382 294.263173 
L 378.358691 294.352697 
L 379.008 294.832204 
L 380.306618 295.023234 
L 380.955927 294.678671 
L 381.605236 294.608571 
L 382.254545 294.426186 
L 382.903855 294.540756 
L 383.553164 293.781817 
L 384.202473 294.379055 
L 384.851782 294.632721 
L 385.501091 294.714176 
L 386.1504 294.456651 
L 386.799709 295.207131 
L 388.098327 295.387132 
L 388.747636 295.022029 
L 389.396945 295.209148 
L 390.695564 294.725047 
L 391.344873 294.62533 
L 391.994182 294.267159 
L 392.643491 294.38177 
L 393.2928 294.252206 
L 393.942109 294.512937 
L 394.591418 294.339426 
L 395.240727 294.897712 
L 395.890036 294.947955 
L 396.539345 295.488 
L 397.188655 294.945041 
L 397.837964 295.197583 
L 398.487273 294.781785 
L 398.487273 294.781785 
" style="fill:none;stroke:#ff0000;stroke-dasharray:7.4,3.2;stroke-dashoffset:0;stroke-width:2;"/>
   </g>
   <g id="line2d_13">
    <path clip-path="url(#p7708339576)" d="M 73.832727 53.568 
L 74.482036 56.470408 
L 75.131345 61.804046 
L 76.429964 93.727006 
L 77.728582 141.365042 
L 78.377891 170.291821 
L 79.0272 190.107072 
L 79.676509 204.851214 
L 80.975127 225.291588 
L 81.624436 230.569984 
L 82.273745 232.969129 
L 82.923055 235.818657 
L 83.572364 239.414451 
L 84.221673 240.949282 
L 84.870982 240.711127 
L 85.520291 240.258663 
L 88.117527 253.761857 
L 88.766836 258.861713 
L 89.416145 259.280248 
L 90.065455 261.294922 
L 90.714764 260.706522 
L 91.364073 260.551137 
L 92.013382 260.911601 
L 92.662691 262.122893 
L 93.312 262.693288 
L 93.961309 263.608606 
L 94.610618 267.025678 
L 95.909236 270.221368 
L 96.558545 271.719177 
L 97.207855 272.836832 
L 97.857164 272.399268 
L 98.506473 272.891368 
L 99.805091 273.450305 
L 101.103709 275.315453 
L 101.753018 275.292761 
L 102.402327 273.153097 
L 103.051636 273.889611 
L 103.700945 275.243266 
L 104.999564 275.961485 
L 105.648873 278.595471 
L 106.298182 279.171184 
L 107.5968 279.532436 
L 108.246109 279.552513 
L 108.895418 280.527831 
L 109.544727 280.54344 
L 110.194036 280.779124 
L 110.843345 280.186999 
L 111.492655 280.544418 
L 112.141964 280.278612 
L 113.440582 280.18533 
L 114.089891 281.349568 
L 114.7392 282.002209 
L 115.388509 281.849818 
L 116.037818 282.658439 
L 117.336436 282.941854 
L 117.985745 281.506535 
L 118.635055 282.256588 
L 119.284364 281.421489 
L 119.933673 280.849843 
L 120.582982 281.002024 
L 121.232291 282.855855 
L 121.8816 282.991363 
L 123.180218 284.274802 
L 123.829527 284.260813 
L 124.478836 284.011491 
L 125.777455 284.444224 
L 126.426764 284.411637 
L 127.725382 282.75175 
L 128.374691 281.808888 
L 129.024 281.87485 
L 129.673309 281.433178 
L 130.322618 282.321113 
L 130.971927 282.761896 
L 131.621236 283.524146 
L 132.270545 283.11583 
L 132.919855 283.591276 
L 133.569164 283.381751 
L 134.218473 284.414047 
L 134.867782 284.240602 
L 135.517091 284.241891 
L 136.1664 284.758257 
L 136.815709 285.050228 
L 137.465018 285.079258 
L 138.763636 286.235257 
L 139.412945 285.490037 
L 140.062255 285.926434 
L 140.711564 285.883266 
L 141.360873 286.167549 
L 142.010182 286.243127 
L 142.659491 286.814718 
L 143.3088 287.128293 
L 143.958109 287.296268 
L 144.607418 286.622751 
L 145.256727 286.485654 
L 145.906036 286.579558 
L 146.555345 285.618396 
L 147.853964 286.057462 
L 148.503273 285.960336 
L 149.801891 286.900435 
L 150.4512 285.810136 
L 151.100509 284.949213 
L 151.749818 284.594881 
L 152.399127 284.706286 
L 153.048436 285.33793 
L 154.347055 287.808724 
L 154.996364 288.370133 
L 156.294982 288.751208 
L 157.5936 288.937875 
L 158.242909 288.700665 
L 159.541527 287.990664 
L 160.840145 287.811593 
L 161.489455 288.728999 
L 162.138764 289.192818 
L 162.788073 289.364174 
L 163.437382 289.367005 
L 164.086691 288.830903 
L 164.736 288.570784 
L 166.683927 288.621092 
L 167.333236 288.890643 
L 167.982545 288.126497 
L 168.631855 287.716606 
L 169.930473 287.560713 
L 170.579782 287.979948 
L 171.229091 288.920681 
L 171.8784 289.33165 
L 172.527709 289.42961 
L 173.177018 288.958174 
L 175.124945 288.609352 
L 175.774255 288.413446 
L 176.423564 288.380801 
L 177.072873 288.524722 
L 177.722182 288.368091 
L 178.371491 288.351141 
L 179.0208 288.714027 
L 179.670109 289.233796 
L 180.319418 289.041634 
L 180.968727 289.166748 
L 181.618036 289.448657 
L 182.267345 288.701605 
L 183.565964 288.924736 
L 184.215273 288.485814 
L 184.864582 287.711581 
L 185.513891 287.689385 
L 186.1632 287.78315 
L 186.812509 287.628386 
L 187.461818 287.739374 
L 188.111127 287.714217 
L 188.760436 288.476468 
L 189.409745 288.594653 
L 190.059055 288.900203 
L 190.708364 288.971358 
L 191.357673 289.485471 
L 192.656291 289.584929 
L 193.3056 289.876826 
L 193.954909 289.89 
L 194.604218 290.288493 
L 195.253527 290.164011 
L 195.902836 290.201366 
L 196.552145 290.021995 
L 197.850764 289.886096 
L 198.500073 290.187078 
L 199.149382 289.947108 
L 199.798691 290.168425 
L 200.448 290.912745 
L 201.097309 290.930872 
L 202.395927 290.569971 
L 203.045236 290.130536 
L 204.993164 288.040059 
L 205.642473 288.184742 
L 206.291782 287.816379 
L 207.5904 287.977873 
L 208.239709 288.534874 
L 208.889018 288.491008 
L 209.538327 288.712589 
L 210.836945 290.14436 
L 211.486255 289.862377 
L 212.135564 290.118668 
L 212.784873 290.538469 
L 214.083491 290.078077 
L 214.7328 290.456368 
L 216.031418 290.73561 
L 216.680727 290.486856 
L 217.330036 290.696985 
L 217.979345 290.133811 
L 218.628655 289.928891 
L 219.277964 289.475987 
L 219.927273 289.923314 
L 220.576582 289.857801 
L 221.225891 290.471354 
L 221.8752 290.419942 
L 222.524509 290.88834 
L 223.173818 290.771321 
L 223.823127 290.856098 
L 224.472436 290.512841 
L 225.121745 290.703351 
L 225.771055 290.059716 
L 226.420364 289.748473 
L 227.069673 289.714942 
L 227.718982 290.196756 
L 229.0176 289.971911 
L 229.666909 290.207019 
L 230.316218 289.617294 
L 232.264145 289.229485 
L 232.913455 289.203429 
L 233.562764 289.670219 
L 234.212073 289.766777 
L 234.861382 289.659589 
L 235.510691 290.537291 
L 236.16 290.351854 
L 236.809309 290.013611 
L 237.458618 289.984685 
L 238.107927 290.312158 
L 239.406545 290.669527 
L 240.055855 291.280016 
L 241.354473 291.497879 
L 242.003782 291.373427 
L 242.653091 291.52603 
L 244.601018 290.843298 
L 245.899636 289.797763 
L 247.198255 289.165584 
L 247.847564 289.627833 
L 248.496873 289.68481 
L 250.4448 290.765733 
L 251.094109 290.729832 
L 251.743418 291.095765 
L 253.042036 291.481013 
L 254.340655 291.570537 
L 254.989964 290.991327 
L 255.639273 291.116921 
L 256.288582 290.380748 
L 257.5872 289.885769 
L 258.236509 289.77689 
L 258.885818 289.811167 
L 259.535127 290.168112 
L 260.184436 290.317859 
L 260.833745 290.616671 
L 261.483055 291.393401 
L 262.132364 291.212585 
L 262.781673 291.743636 
L 264.7296 291.138332 
L 265.378909 291.418688 
L 266.028218 291.375707 
L 266.677527 291.716014 
L 267.976145 292.067588 
L 268.625455 292.084287 
L 269.274764 291.968879 
L 269.924073 291.70887 
L 270.573382 291.824576 
L 271.222691 291.785767 
L 271.872 291.864003 
L 272.521309 291.211519 
L 273.170618 290.726007 
L 273.819927 289.642729 
L 274.469236 289.864336 
L 275.118545 289.719162 
L 275.767855 290.056572 
L 276.417164 290.562713 
L 277.066473 291.292607 
L 277.715782 290.826435 
L 278.365091 290.991806 
L 279.0144 291.382678 
L 280.313018 291.489182 
L 280.962327 291.701593 
L 282.910255 291.536082 
L 284.208873 290.805726 
L 287.455418 289.787927 
L 288.104727 289.200687 
L 288.754036 289.030035 
L 290.701964 290.783743 
L 291.351273 291.482695 
L 292.000582 291.89558 
L 292.649891 291.459878 
L 293.2992 291.53957 
L 294.597818 291.223477 
L 295.247127 291.156999 
L 295.896436 291.495883 
L 296.545745 291.498057 
L 297.195055 292.037627 
L 299.142982 291.685815 
L 299.792291 291.787015 
L 300.4416 291.669828 
L 301.090909 291.367255 
L 301.740218 291.587742 
L 302.389527 291.445186 
L 303.688145 289.878767 
L 304.337455 290.41182 
L 304.986764 289.985658 
L 305.636073 289.696594 
L 306.285382 290.204618 
L 306.934691 290.882559 
L 307.584 290.827052 
L 308.882618 291.76819 
L 309.531927 291.556892 
L 310.181236 291.868895 
L 312.129164 291.274351 
L 312.778473 291.64247 
L 313.427782 291.096693 
L 314.077091 291.332928 
L 314.7264 291.207575 
L 315.375709 291.51677 
L 316.025018 291.375896 
L 316.674327 291.602469 
L 317.323636 291.622347 
L 317.972945 291.813634 
L 319.271564 291.50849 
L 319.920873 291.927633 
L 320.570182 291.895526 
L 321.219491 292.154584 
L 321.8688 291.925254 
L 322.518109 292.005716 
L 323.167418 291.957931 
L 323.816727 291.455473 
L 324.466036 290.623493 
L 325.115345 291.043539 
L 327.063273 291.276071 
L 327.712582 291.577683 
L 328.361891 290.777081 
L 329.660509 290.466363 
L 331.608436 291.087783 
L 332.907055 291.131223 
L 334.205673 291.966993 
L 334.854982 291.823439 
L 335.504291 292.1969 
L 336.1536 292.313712 
L 336.802909 292.117606 
L 337.452218 292.169484 
L 338.101527 292.858731 
L 338.750836 292.711102 
L 340.049455 292.060088 
L 340.698764 291.930018 
L 341.348073 291.541654 
L 341.997382 291.2897 
L 342.646691 291.381934 
L 343.296 291.784996 
L 343.945309 291.641694 
L 345.243927 292.254708 
L 345.893236 292.090688 
L 346.542545 291.493412 
L 347.191855 291.401549 
L 348.490473 291.403009 
L 349.139782 291.838082 
L 349.789091 292.536625 
L 350.4384 292.761537 
L 351.087709 292.732294 
L 351.737018 292.831865 
L 352.386327 292.369596 
L 353.035636 292.292874 
L 353.684945 292.403849 
L 354.983564 292.254498 
L 355.632873 292.59403 
L 356.282182 292.639996 
L 356.931491 292.308283 
L 358.230109 292.560484 
L 358.879418 292.385805 
L 359.528727 292.012317 
L 361.476655 291.84794 
L 362.125964 292.013832 
L 362.775273 292.44956 
L 363.424582 292.24028 
L 364.073891 291.741995 
L 365.372509 291.524299 
L 366.021818 291.235706 
L 366.671127 291.698246 
L 367.320436 291.811316 
L 368.619055 291.636386 
L 369.268364 291.925238 
L 369.917673 291.887824 
L 370.566982 292.393244 
L 371.216291 292.263905 
L 372.514909 291.534577 
L 373.164218 291.731826 
L 373.813527 291.390009 
L 374.462836 291.650698 
L 375.112145 292.180407 
L 375.761455 292.453817 
L 376.410764 292.355679 
L 377.060073 292.562336 
L 377.709382 292.498519 
L 379.008 292.790204 
L 379.657309 292.658772 
L 380.955927 291.822591 
L 382.903855 291.791177 
L 383.553164 291.810242 
L 384.202473 292.392134 
L 384.851782 292.518764 
L 386.1504 292.213304 
L 386.799709 292.549973 
L 387.449018 292.396402 
L 388.098327 292.040675 
L 388.747636 292.022157 
L 389.396945 292.160602 
L 390.695564 292.277724 
L 391.344873 292.453369 
L 391.994182 292.130671 
L 393.942109 292.238288 
L 394.591418 292.173346 
L 395.240727 292.693589 
L 396.539345 292.401747 
L 397.188655 291.962019 
L 397.837964 292.151268 
L 398.487273 291.81648 
L 398.487273 291.81648 
" style="fill:none;stroke:#ffff00;stroke-dasharray:19.2,4.8,3,4.8;stroke-dashoffset:0;stroke-width:3;"/>
   </g>
   <g id="line2d_14">
    <path clip-path="url(#p7708339576)" d="M 73.832727 53.568 
L 74.482036 55.199949 
L 75.131345 64.561453 
L 76.429964 94.779784 
L 77.079273 117.402901 
L 78.377891 171.352839 
L 79.0272 190.393637 
L 79.676509 205.379557 
L 80.975127 223.802214 
L 82.273745 233.802469 
L 82.923055 236.305369 
L 83.572364 242.926319 
L 84.221673 246.339078 
L 85.520291 249.605026 
L 86.1696 252.330146 
L 87.468218 255.548751 
L 88.117527 256.449472 
L 90.065455 262.411906 
L 90.714764 263.562022 
L 91.364073 265.825998 
L 92.013382 266.163564 
L 92.662691 266.992361 
L 93.312 268.554215 
L 93.961309 268.846245 
L 94.610618 269.826116 
L 95.909236 272.008419 
L 96.558545 272.724113 
L 97.207855 273.691184 
L 98.506473 274.460707 
L 99.155782 274.499758 
L 99.805091 274.173834 
L 100.4544 274.747568 
L 101.103709 275.072293 
L 101.753018 275.973775 
L 102.402327 276.018464 
L 103.051636 277.316706 
L 104.350255 278.457925 
L 104.999564 278.48988 
L 105.648873 279.562231 
L 106.947491 280.189234 
L 107.5968 280.657702 
L 108.246109 280.576839 
L 108.895418 281.02437 
L 110.843345 280.705856 
L 111.492655 281.468932 
L 112.141964 281.146353 
L 113.440582 281.373158 
L 114.7392 281.352585 
L 116.037818 282.735569 
L 116.687127 282.875446 
L 117.336436 283.406285 
L 117.985745 282.756243 
L 118.635055 282.775184 
L 119.284364 282.45429 
L 119.933673 282.721034 
L 120.582982 282.863479 
L 121.232291 283.998098 
L 121.8816 284.084033 
L 123.180218 284.75465 
L 123.829527 285.069865 
L 124.478836 284.735673 
L 125.128145 285.117069 
L 126.426764 285.450073 
L 127.076073 285.290576 
L 127.725382 285.605449 
L 128.374691 285.363738 
L 129.024 285.351936 
L 129.673309 284.556478 
L 130.322618 284.587393 
L 130.971927 284.402578 
L 132.270545 284.638838 
L 132.919855 285.320639 
L 133.569164 285.474166 
L 134.218473 285.886182 
L 134.867782 286.105053 
L 135.517091 286.079988 
L 136.1664 286.340531 
L 137.465018 286.567845 
L 138.114327 286.721123 
L 138.763636 287.065619 
L 139.412945 286.904597 
L 140.062255 287.263671 
L 140.711564 287.144681 
L 141.360873 287.293299 
L 142.010182 286.967362 
L 143.958109 287.423973 
L 144.607418 287.002458 
L 145.256727 286.935905 
L 145.906036 287.084691 
L 146.555345 286.539245 
L 147.204655 286.58058 
L 148.503273 287.302549 
L 149.152582 287.361158 
L 149.801891 287.795134 
L 150.4512 287.581802 
L 153.048436 288.075873 
L 153.697745 288.408511 
L 155.645673 288.522539 
L 156.294982 288.789772 
L 157.5936 288.93342 
L 158.242909 288.765882 
L 159.541527 288.102359 
L 160.840145 288.148721 
L 161.489455 288.672485 
L 162.788073 289.173481 
L 164.736 288.828453 
L 167.333236 289.21247 
L 168.631855 288.872055 
L 169.930473 288.675025 
L 170.579782 288.809984 
L 172.527709 289.54684 
L 173.177018 289.341123 
L 174.475636 289.47239 
L 175.124945 289.25395 
L 175.774255 288.901269 
L 176.423564 288.861519 
L 177.072873 289.010872 
L 177.722182 288.942424 
L 178.371491 289.013902 
L 179.0208 289.412998 
L 179.670109 289.666033 
L 180.319418 289.345242 
L 181.618036 289.655748 
L 182.267345 289.285991 
L 183.565964 289.606628 
L 184.215273 289.509162 
L 184.864582 289.287943 
L 185.513891 289.521742 
L 186.1632 289.380693 
L 186.812509 289.470173 
L 188.111127 289.25847 
L 190.059055 289.604539 
L 190.708364 289.572216 
L 192.656291 290.134843 
L 194.604218 290.578117 
L 196.552145 290.484799 
L 197.201455 290.642597 
L 197.850764 290.579138 
L 198.500073 290.691971 
L 199.149382 290.596332 
L 199.798691 290.685607 
L 200.448 290.947314 
L 203.694545 290.434866 
L 204.343855 290.453224 
L 204.993164 290.341077 
L 205.642473 290.424007 
L 206.291782 290.104982 
L 206.941091 289.922254 
L 207.5904 289.929117 
L 209.538327 290.528721 
L 210.836945 291.125527 
L 211.486255 290.955622 
L 212.784873 291.030668 
L 214.083491 290.549029 
L 214.7328 290.654728 
L 215.382109 290.455223 
L 217.330036 290.754598 
L 218.628655 290.702362 
L 219.277964 290.49996 
L 221.225891 290.721942 
L 221.8752 290.785012 
L 222.524509 290.962966 
L 224.472436 291.12801 
L 225.121745 291.244696 
L 225.771055 290.879242 
L 227.069673 290.795426 
L 229.666909 291.363074 
L 230.316218 291.190512 
L 230.965527 291.178439 
L 232.264145 290.926755 
L 233.562764 290.881981 
L 234.861382 291.062876 
L 235.510691 291.292121 
L 236.16 291.018935 
L 237.458618 290.877965 
L 238.107927 290.764186 
L 238.757236 290.768572 
L 240.705164 291.399729 
L 242.653091 291.66632 
L 243.951709 291.596909 
L 244.601018 291.372043 
L 247.198255 290.971247 
L 247.847564 291.220763 
L 251.094109 291.599593 
L 251.743418 291.747882 
L 254.340655 291.742074 
L 254.989964 291.560702 
L 255.639273 291.607674 
L 256.937891 291.382743 
L 257.5872 291.390365 
L 258.236509 291.214177 
L 258.885818 291.198919 
L 260.184436 291.529352 
L 260.833745 291.558953 
L 261.483055 291.91084 
L 263.430982 291.992603 
L 266.028218 291.772886 
L 269.274764 292.06199 
L 269.924073 291.933988 
L 271.222691 292.081651 
L 271.872 292.075411 
L 272.521309 291.888971 
L 273.170618 291.971049 
L 273.819927 291.614222 
L 274.469236 291.714933 
L 275.118545 291.645212 
L 277.066473 291.79901 
L 277.715782 291.626285 
L 280.962327 292.258638 
L 284.208873 291.933201 
L 285.507491 291.828215 
L 286.1568 291.915986 
L 286.806109 291.769329 
L 287.455418 291.793645 
L 288.104727 291.620432 
L 289.403345 291.657319 
L 290.052655 291.852033 
L 290.701964 291.916228 
L 291.351273 292.181403 
L 292.000582 292.232708 
L 292.649891 292.156853 
L 293.948509 292.25698 
L 295.247127 292.114312 
L 300.4416 292.365547 
L 301.090909 292.187887 
L 301.740218 292.21182 
L 303.038836 291.94625 
L 303.688145 291.689781 
L 304.337455 292.02571 
L 304.986764 291.937839 
L 306.934691 292.27376 
L 307.584 292.191721 
L 310.181236 292.457013 
L 312.129164 292.355739 
L 312.778473 292.442723 
L 313.427782 292.079907 
L 314.077091 292.102292 
L 314.7264 292.000327 
L 316.025018 292.088108 
L 316.674327 292.437474 
L 321.219491 292.528165 
L 322.518109 292.280888 
L 323.167418 292.272579 
L 324.466036 291.883164 
L 325.115345 292.146909 
L 327.063273 292.323875 
L 327.712582 292.376925 
L 328.361891 292.156899 
L 329.0112 292.259573 
L 330.309818 292.266729 
L 331.608436 292.457847 
L 332.257745 292.331889 
L 332.907055 292.330102 
L 334.205673 292.562286 
L 334.854982 292.420855 
L 335.504291 292.605186 
L 336.1536 292.628536 
L 336.802909 292.467125 
L 337.452218 292.435581 
L 338.101527 292.710294 
L 341.348073 292.121256 
L 342.646691 292.415851 
L 343.296 292.583022 
L 345.243927 292.70044 
L 345.893236 292.437132 
L 346.542545 291.984608 
L 348.490473 291.904185 
L 349.139782 292.181565 
L 349.789091 292.746138 
L 351.737018 292.872495 
L 352.386327 292.700943 
L 355.632873 292.622348 
L 357.5808 292.560527 
L 358.879418 292.812725 
L 360.178036 292.65323 
L 363.424582 292.638149 
L 364.073891 292.317258 
L 366.671127 292.493043 
L 367.320436 292.702024 
L 367.969745 292.760422 
L 368.619055 292.644431 
L 369.268364 292.746999 
L 369.917673 292.65045 
L 370.566982 292.82907 
L 372.514909 292.17356 
L 373.164218 292.310043 
L 373.813527 292.237451 
L 374.462836 292.410904 
L 375.112145 292.831498 
L 378.358691 292.808059 
L 379.008 292.967954 
L 379.657309 292.882827 
L 380.955927 292.461601 
L 383.553164 292.589206 
L 384.202473 292.83966 
L 384.851782 292.904242 
L 386.1504 292.636189 
L 386.799709 292.813686 
L 388.747636 292.796081 
L 390.046255 292.887917 
L 392.643491 292.760049 
L 395.240727 293.028861 
L 398.487273 292.823819 
L 398.487273 292.823819 
" style="fill:none;stroke:#0000ff;stroke-dasharray:19.2,4.8,3,4.8;stroke-dashoffset:0;stroke-width:3;"/>
   </g>
   <g id="line2d_15">
    <path clip-path="url(#p7708339576)" d="M 73.832727 53.568 
L 74.482036 56.470408 
L 75.131345 61.804046 
L 76.429964 93.727006 
L 77.728582 141.365042 
L 78.377891 170.291821 
L 79.0272 190.107072 
L 79.676509 204.851214 
L 80.975127 225.291588 
L 81.624436 230.569984 
L 82.273745 232.969129 
L 82.923055 235.818657 
L 83.572364 239.414451 
L 84.221673 240.949282 
L 84.870982 240.711127 
L 85.520291 240.258663 
L 88.117527 253.761857 
L 88.766836 258.861713 
L 89.416145 259.280248 
L 90.065455 261.294922 
L 90.714764 260.706522 
L 91.364073 260.551137 
L 92.013382 260.911601 
L 92.662691 262.122893 
L 93.312 262.693288 
L 93.961309 263.608606 
L 94.610618 267.025678 
L 95.909236 270.221368 
L 96.558545 271.719177 
L 97.207855 272.836832 
L 97.857164 272.399268 
L 98.506473 272.891368 
L 99.805091 273.450305 
L 101.103709 275.315453 
L 101.753018 275.292761 
L 102.402327 273.153097 
L 103.051636 273.889611 
L 103.700945 275.243266 
L 104.999564 275.961485 
L 105.648873 278.595471 
L 106.298182 279.171184 
L 107.5968 279.532436 
L 108.246109 279.552513 
L 108.895418 280.527831 
L 109.544727 280.54344 
L 110.194036 280.779124 
L 110.843345 280.186999 
L 111.492655 280.544418 
L 112.141964 280.278612 
L 113.440582 280.18533 
L 114.089891 281.349568 
L 114.7392 282.002209 
L 115.388509 281.849818 
L 116.037818 282.658439 
L 117.336436 282.941854 
L 117.985745 281.506535 
L 118.635055 282.256588 
L 119.284364 281.421489 
L 119.933673 280.849843 
L 120.582982 281.002024 
L 121.232291 282.855855 
L 121.8816 282.991363 
L 123.180218 284.274802 
L 123.829527 284.260813 
L 124.478836 284.011491 
L 125.777455 284.444224 
L 126.426764 284.411637 
L 127.725382 282.75175 
L 128.374691 281.808888 
L 129.024 281.87485 
L 129.673309 281.433178 
L 130.322618 282.321113 
L 130.971927 282.761896 
L 131.621236 283.524146 
L 132.270545 283.11583 
L 132.919855 283.591276 
L 133.569164 283.381751 
L 134.218473 284.414047 
L 134.867782 284.240602 
L 135.517091 284.241891 
L 136.1664 284.758257 
L 136.815709 285.050228 
L 137.465018 285.079258 
L 138.763636 286.235257 
L 139.412945 285.490037 
L 140.062255 285.926434 
L 140.711564 285.883266 
L 141.360873 286.167549 
L 142.010182 286.243127 
L 142.659491 286.814718 
L 143.3088 287.128293 
L 143.958109 287.296268 
L 144.607418 286.622751 
L 145.256727 286.485654 
L 145.906036 286.579558 
L 146.555345 285.618396 
L 147.853964 286.057462 
L 148.503273 285.960336 
L 149.801891 286.900435 
L 150.4512 285.810136 
L 151.100509 284.949213 
L 151.749818 284.594881 
L 152.399127 284.706286 
L 153.048436 285.33793 
L 154.347055 287.808724 
L 154.996364 288.370133 
L 156.294982 288.751208 
L 157.5936 288.937875 
L 158.242909 288.700665 
L 159.541527 287.990664 
L 160.840145 287.811593 
L 161.489455 288.728999 
L 162.138764 289.192818 
L 162.788073 289.364174 
L 163.437382 289.367005 
L 164.086691 288.830903 
L 164.736 288.570784 
L 166.683927 288.621092 
L 167.333236 288.890643 
L 167.982545 288.126497 
L 168.631855 287.716606 
L 169.930473 287.560713 
L 170.579782 287.979948 
L 171.229091 288.920681 
L 171.8784 289.33165 
L 172.527709 289.42961 
L 173.177018 288.958174 
L 175.124945 288.609352 
L 175.774255 288.413446 
L 176.423564 288.380801 
L 177.072873 288.524722 
L 177.722182 288.368091 
L 178.371491 288.351141 
L 179.0208 288.714027 
L 179.670109 289.233796 
L 180.319418 289.041634 
L 180.968727 289.166748 
L 181.618036 289.448657 
L 182.267345 288.701605 
L 183.565964 288.924736 
L 184.215273 288.485814 
L 184.864582 287.711581 
L 185.513891 287.689385 
L 186.1632 287.78315 
L 186.812509 287.628386 
L 187.461818 287.739374 
L 188.111127 287.714217 
L 188.760436 288.476468 
L 189.409745 288.594653 
L 190.059055 288.900203 
L 190.708364 288.971358 
L 191.357673 289.485471 
L 192.656291 289.584929 
L 193.3056 289.876826 
L 193.954909 289.89 
L 194.604218 290.288493 
L 195.253527 290.164011 
L 195.902836 290.201366 
L 196.552145 290.021995 
L 197.850764 289.886096 
L 198.500073 290.187078 
L 199.149382 289.947108 
L 199.798691 290.168425 
L 200.448 290.912745 
L 201.097309 290.930872 
L 202.395927 290.569971 
L 203.045236 290.130536 
L 204.993164 288.040059 
L 205.642473 288.184742 
L 206.291782 287.816379 
L 207.5904 287.977873 
L 208.239709 288.534874 
L 208.889018 288.491008 
L 209.538327 288.712589 
L 210.836945 290.14436 
L 211.486255 289.862377 
L 212.135564 290.118668 
L 212.784873 290.538469 
L 214.083491 290.078077 
L 214.7328 290.456368 
L 216.031418 290.73561 
L 216.680727 290.486856 
L 217.330036 290.696985 
L 217.979345 290.133811 
L 218.628655 289.928891 
L 219.277964 289.475987 
L 219.927273 289.923314 
L 220.576582 289.857801 
L 221.225891 290.471354 
L 221.8752 290.419942 
L 222.524509 290.88834 
L 223.173818 290.771321 
L 223.823127 290.856098 
L 224.472436 290.512841 
L 225.121745 290.703351 
L 225.771055 290.059716 
L 226.420364 289.748473 
L 227.069673 289.714942 
L 227.718982 290.196756 
L 229.0176 289.971911 
L 229.666909 290.207019 
L 230.316218 289.617294 
L 232.264145 289.229485 
L 232.913455 289.203429 
L 233.562764 289.670219 
L 234.212073 289.766777 
L 234.861382 289.659589 
L 235.510691 290.537291 
L 236.16 290.351854 
L 236.809309 290.013611 
L 237.458618 289.984685 
L 238.107927 290.312158 
L 239.406545 290.669527 
L 240.055855 291.280016 
L 241.354473 291.497879 
L 242.003782 291.373427 
L 242.653091 291.52603 
L 244.601018 290.843298 
L 245.899636 289.797763 
L 247.198255 289.165584 
L 247.847564 289.627833 
L 248.496873 289.68481 
L 250.4448 290.765733 
L 251.094109 290.729832 
L 251.743418 291.095765 
L 253.042036 291.481013 
L 254.340655 291.570537 
L 254.989964 290.991327 
L 255.639273 291.116921 
L 256.288582 290.380748 
L 257.5872 289.885769 
L 258.236509 289.77689 
L 258.885818 289.811167 
L 259.535127 290.168112 
L 260.184436 290.317859 
L 260.833745 290.616671 
L 261.483055 291.393401 
L 262.132364 291.212585 
L 262.781673 291.743636 
L 264.7296 291.138332 
L 265.378909 291.418688 
L 266.028218 291.375707 
L 266.677527 291.716014 
L 267.976145 292.067588 
L 268.625455 292.084287 
L 269.274764 291.968879 
L 269.924073 291.70887 
L 270.573382 291.824576 
L 271.222691 291.785767 
L 271.872 291.864003 
L 272.521309 291.211519 
L 273.170618 290.726007 
L 273.819927 289.642729 
L 274.469236 289.864336 
L 275.118545 289.719162 
L 275.767855 290.056572 
L 276.417164 290.562713 
L 277.066473 291.292607 
L 277.715782 290.826435 
L 278.365091 290.991806 
L 279.0144 291.382678 
L 280.313018 291.489182 
L 280.962327 291.701593 
L 282.910255 291.536082 
L 284.208873 290.805726 
L 287.455418 289.787927 
L 288.104727 289.200687 
L 288.754036 289.030035 
L 290.701964 290.783743 
L 291.351273 291.482695 
L 292.000582 291.89558 
L 292.649891 291.459878 
L 293.2992 291.53957 
L 294.597818 291.223477 
L 295.247127 291.156999 
L 295.896436 291.495883 
L 296.545745 291.498057 
L 297.195055 292.037627 
L 299.142982 291.685815 
L 299.792291 291.787015 
L 300.4416 291.669828 
L 301.090909 291.367255 
L 301.740218 291.587742 
L 302.389527 291.445186 
L 303.688145 289.878767 
L 304.337455 290.41182 
L 304.986764 289.985658 
L 305.636073 289.696594 
L 306.285382 290.204618 
L 306.934691 290.882559 
L 307.584 290.827052 
L 308.882618 291.76819 
L 309.531927 291.556892 
L 310.181236 291.868895 
L 312.129164 291.274351 
L 312.778473 291.64247 
L 313.427782 291.096693 
L 314.077091 291.332928 
L 314.7264 291.207575 
L 315.375709 291.51677 
L 316.025018 291.375896 
L 316.674327 291.602469 
L 317.323636 291.622347 
L 317.972945 291.813634 
L 319.271564 291.50849 
L 319.920873 291.927633 
L 320.570182 291.895526 
L 321.219491 292.154584 
L 321.8688 291.925254 
L 322.518109 292.005716 
L 323.167418 291.957931 
L 323.816727 291.455473 
L 324.466036 290.623493 
L 325.115345 291.043539 
L 327.063273 291.276071 
L 327.712582 291.577683 
L 328.361891 290.777081 
L 329.660509 290.466363 
L 331.608436 291.087783 
L 332.907055 291.131223 
L 334.205673 291.966993 
L 334.854982 291.823439 
L 335.504291 292.1969 
L 336.1536 292.313712 
L 336.802909 292.117606 
L 337.452218 292.169484 
L 338.101527 292.858731 
L 338.750836 292.711102 
L 340.049455 292.060088 
L 340.698764 291.930018 
L 341.348073 291.541654 
L 341.997382 291.2897 
L 342.646691 291.381934 
L 343.296 291.784996 
L 343.945309 291.641694 
L 345.243927 292.254708 
L 345.893236 292.090688 
L 346.542545 291.493412 
L 347.191855 291.401549 
L 348.490473 291.403009 
L 349.139782 291.838082 
L 349.789091 292.536625 
L 350.4384 292.761537 
L 351.087709 292.732294 
L 351.737018 292.831865 
L 352.386327 292.369596 
L 353.035636 292.292874 
L 353.684945 292.403849 
L 354.983564 292.254498 
L 355.632873 292.59403 
L 356.282182 292.639996 
L 356.931491 292.308283 
L 358.230109 292.560484 
L 358.879418 292.385805 
L 359.528727 292.012317 
L 361.476655 291.84794 
L 362.125964 292.013832 
L 362.775273 292.44956 
L 363.424582 292.24028 
L 364.073891 291.741995 
L 365.372509 291.524299 
L 366.021818 291.235706 
L 366.671127 291.698246 
L 367.320436 291.811316 
L 368.619055 291.636386 
L 369.268364 291.925238 
L 369.917673 291.887824 
L 370.566982 292.393244 
L 371.216291 292.263905 
L 372.514909 291.534577 
L 373.164218 291.731826 
L 373.813527 291.390009 
L 374.462836 291.650698 
L 375.112145 292.180407 
L 375.761455 292.453817 
L 376.410764 292.355679 
L 377.060073 292.562336 
L 377.709382 292.498519 
L 379.008 292.790204 
L 379.657309 292.658772 
L 380.955927 291.822591 
L 382.903855 291.791177 
L 383.553164 291.810242 
L 384.202473 292.392134 
L 384.851782 292.518764 
L 386.1504 292.213304 
L 386.799709 292.549973 
L 387.449018 292.396402 
L 388.098327 292.040675 
L 388.747636 292.022157 
L 389.396945 292.160602 
L 390.695564 292.277724 
L 391.344873 292.453369 
L 391.994182 292.130671 
L 393.942109 292.238288 
L 394.591418 292.173346 
L 395.240727 292.693589 
L 396.539345 292.401747 
L 397.188655 291.962019 
L 397.837964 292.151268 
L 398.487273 291.81648 
L 398.487273 291.81648 
" style="fill:none;stroke:#008000;stroke-dasharray:19.2,4.8,3,4.8;stroke-dashoffset:0;stroke-width:3;"/>
   </g>
   <g id="line2d_16">
    <path clip-path="url(#p7708339576)" d="M 73.832727 53.568 
L 74.482036 56.470408 
L 75.131345 61.804046 
L 76.429964 93.727006 
L 77.728582 141.365042 
L 78.377891 170.291821 
L 79.0272 190.107072 
L 79.676509 204.851214 
L 80.975127 225.291588 
L 81.624436 230.569984 
L 82.273745 232.969129 
L 82.923055 235.818657 
L 83.572364 239.414451 
L 84.221673 240.949282 
L 84.870982 240.711127 
L 85.520291 240.258663 
L 88.117527 253.761857 
L 88.766836 258.861713 
L 89.416145 259.280248 
L 90.065455 261.294922 
L 90.714764 260.706522 
L 91.364073 260.551137 
L 92.013382 260.911601 
L 92.662691 262.122893 
L 93.312 262.693288 
L 93.961309 263.608606 
L 94.610618 267.025678 
L 95.909236 270.221368 
L 96.558545 271.719177 
L 97.207855 272.836832 
L 97.857164 272.399268 
L 98.506473 272.891368 
L 99.805091 273.450305 
L 101.103709 275.315453 
L 101.753018 275.292761 
L 102.402327 273.153097 
L 103.051636 273.889611 
L 103.700945 275.243266 
L 104.999564 275.961485 
L 105.648873 278.595471 
L 106.298182 279.171184 
L 107.5968 279.532436 
L 108.246109 279.552513 
L 108.895418 280.527831 
L 109.544727 280.54344 
L 110.194036 280.779124 
L 110.843345 280.186999 
L 111.492655 280.544418 
L 112.141964 280.278612 
L 113.440582 280.18533 
L 114.089891 281.349568 
L 114.7392 282.002209 
L 115.388509 281.849818 
L 116.037818 282.658439 
L 117.336436 282.941854 
L 117.985745 281.506535 
L 118.635055 282.256588 
L 119.284364 281.421489 
L 119.933673 280.849843 
L 120.582982 281.002024 
L 121.232291 282.855855 
L 121.8816 282.991363 
L 123.180218 284.274802 
L 123.829527 284.260813 
L 124.478836 284.011491 
L 125.777455 284.444224 
L 126.426764 284.411637 
L 127.725382 282.75175 
L 128.374691 281.808888 
L 129.024 281.87485 
L 129.673309 281.433178 
L 130.322618 282.321113 
L 130.971927 282.761896 
L 131.621236 283.524146 
L 132.270545 283.11583 
L 132.919855 283.591276 
L 133.569164 283.381751 
L 134.218473 284.414047 
L 134.867782 284.240602 
L 135.517091 284.241891 
L 136.1664 284.758257 
L 136.815709 285.050228 
L 137.465018 285.079258 
L 138.763636 286.235257 
L 139.412945 285.490037 
L 140.062255 285.926434 
L 140.711564 285.883266 
L 141.360873 286.167549 
L 142.010182 286.243127 
L 142.659491 286.814718 
L 143.3088 287.128293 
L 143.958109 287.296268 
L 144.607418 286.622751 
L 145.256727 286.485654 
L 145.906036 286.579558 
L 146.555345 285.618396 
L 147.853964 286.057462 
L 148.503273 285.960336 
L 149.801891 286.900435 
L 150.4512 285.810136 
L 151.100509 284.949213 
L 151.749818 284.594881 
L 152.399127 284.706286 
L 153.048436 285.33793 
L 154.347055 287.808724 
L 154.996364 288.370133 
L 156.294982 288.751208 
L 157.5936 288.937875 
L 158.242909 288.700665 
L 159.541527 287.990664 
L 160.840145 287.811593 
L 161.489455 288.728999 
L 162.138764 289.192818 
L 162.788073 289.364174 
L 163.437382 289.367005 
L 164.086691 288.830903 
L 164.736 288.570784 
L 166.683927 288.621092 
L 167.333236 288.890643 
L 167.982545 288.126497 
L 168.631855 287.716606 
L 169.930473 287.560713 
L 170.579782 287.979948 
L 171.229091 288.920681 
L 171.8784 289.33165 
L 172.527709 289.42961 
L 173.177018 288.958174 
L 175.124945 288.609352 
L 175.774255 288.413446 
L 176.423564 288.380801 
L 177.072873 288.524722 
L 177.722182 288.368091 
L 178.371491 288.351141 
L 179.0208 288.714027 
L 179.670109 289.233796 
L 180.319418 289.041634 
L 180.968727 289.166748 
L 181.618036 289.448657 
L 182.267345 288.701605 
L 183.565964 288.924736 
L 184.215273 288.485814 
L 184.864582 287.711581 
L 185.513891 287.689385 
L 186.1632 287.78315 
L 186.812509 287.628386 
L 187.461818 287.739374 
L 188.111127 287.714217 
L 188.760436 288.476468 
L 189.409745 288.594653 
L 190.059055 288.900203 
L 190.708364 288.971358 
L 191.357673 289.485471 
L 192.656291 289.584929 
L 193.3056 289.876826 
L 193.954909 289.89 
L 194.604218 290.288493 
L 195.253527 290.164011 
L 195.902836 290.201366 
L 196.552145 290.021995 
L 197.850764 289.886096 
L 198.500073 290.187078 
L 199.149382 289.947108 
L 199.798691 290.168425 
L 200.448 290.912745 
L 201.097309 290.930872 
L 202.395927 290.569971 
L 203.045236 290.130536 
L 204.993164 288.040059 
L 205.642473 288.184742 
L 206.291782 287.816379 
L 207.5904 287.977873 
L 208.239709 288.534874 
L 208.889018 288.491008 
L 209.538327 288.712589 
L 210.836945 290.14436 
L 211.486255 289.862377 
L 212.135564 290.118668 
L 212.784873 290.538469 
L 214.083491 290.078077 
L 214.7328 290.456368 
L 216.031418 290.73561 
L 216.680727 290.486856 
L 217.330036 290.696985 
L 217.979345 290.133811 
L 218.628655 289.928891 
L 219.277964 289.475987 
L 219.927273 289.923314 
L 220.576582 289.857801 
L 221.225891 290.471354 
L 221.8752 290.419942 
L 222.524509 290.88834 
L 223.173818 290.771321 
L 223.823127 290.856098 
L 224.472436 290.512841 
L 225.121745 290.703351 
L 225.771055 290.059716 
L 226.420364 289.748473 
L 227.069673 289.714942 
L 227.718982 290.196756 
L 229.0176 289.971911 
L 229.666909 290.207019 
L 230.316218 289.617294 
L 232.264145 289.229485 
L 232.913455 289.203429 
L 233.562764 289.670219 
L 234.212073 289.766777 
L 234.861382 289.659589 
L 235.510691 290.537291 
L 236.16 290.351854 
L 236.809309 290.013611 
L 237.458618 289.984685 
L 238.107927 290.312158 
L 239.406545 290.669527 
L 240.055855 291.280016 
L 241.354473 291.497879 
L 242.003782 291.373427 
L 242.653091 291.52603 
L 244.601018 290.843298 
L 245.899636 289.797763 
L 247.198255 289.165584 
L 247.847564 289.627833 
L 248.496873 289.68481 
L 250.4448 290.765733 
L 251.094109 290.729832 
L 251.743418 291.095765 
L 253.042036 291.481013 
L 254.340655 291.570537 
L 254.989964 290.991327 
L 255.639273 291.116921 
L 256.288582 290.380748 
L 257.5872 289.885769 
L 258.236509 289.77689 
L 258.885818 289.811167 
L 259.535127 290.168112 
L 260.184436 290.317859 
L 260.833745 290.616671 
L 261.483055 291.393401 
L 262.132364 291.212585 
L 262.781673 291.743636 
L 264.7296 291.138332 
L 265.378909 291.418688 
L 266.028218 291.375707 
L 266.677527 291.716014 
L 267.976145 292.067588 
L 268.625455 292.084287 
L 269.274764 291.968879 
L 269.924073 291.70887 
L 270.573382 291.824576 
L 271.222691 291.785767 
L 271.872 291.864003 
L 272.521309 291.211519 
L 273.170618 290.726007 
L 273.819927 289.642729 
L 274.469236 289.864336 
L 275.118545 289.719162 
L 275.767855 290.056572 
L 276.417164 290.562713 
L 277.066473 291.292607 
L 277.715782 290.826435 
L 278.365091 290.991806 
L 279.0144 291.382678 
L 280.313018 291.489182 
L 280.962327 291.701593 
L 282.910255 291.536082 
L 284.208873 290.805726 
L 287.455418 289.787927 
L 288.104727 289.200687 
L 288.754036 289.030035 
L 290.701964 290.783743 
L 291.351273 291.482695 
L 292.000582 291.89558 
L 292.649891 291.459878 
L 293.2992 291.53957 
L 294.597818 291.223477 
L 295.247127 291.156999 
L 295.896436 291.495883 
L 296.545745 291.498057 
L 297.195055 292.037627 
L 299.142982 291.685815 
L 299.792291 291.787015 
L 300.4416 291.669828 
L 301.090909 291.367255 
L 301.740218 291.587742 
L 302.389527 291.445186 
L 303.688145 289.878767 
L 304.337455 290.41182 
L 304.986764 289.985658 
L 305.636073 289.696594 
L 306.285382 290.204618 
L 306.934691 290.882559 
L 307.584 290.827052 
L 308.882618 291.76819 
L 309.531927 291.556892 
L 310.181236 291.868895 
L 312.129164 291.274351 
L 312.778473 291.64247 
L 313.427782 291.096693 
L 314.077091 291.332928 
L 314.7264 291.207575 
L 315.375709 291.51677 
L 316.025018 291.375896 
L 316.674327 291.602469 
L 317.323636 291.622347 
L 317.972945 291.813634 
L 319.271564 291.50849 
L 319.920873 291.927633 
L 320.570182 291.895526 
L 321.219491 292.154584 
L 321.8688 291.925254 
L 322.518109 292.005716 
L 323.167418 291.957931 
L 323.816727 291.455473 
L 324.466036 290.623493 
L 325.115345 291.043539 
L 327.063273 291.276071 
L 327.712582 291.577683 
L 328.361891 290.777081 
L 329.660509 290.466363 
L 331.608436 291.087783 
L 332.907055 291.131223 
L 334.205673 291.966993 
L 334.854982 291.823439 
L 335.504291 292.1969 
L 336.1536 292.313712 
L 336.802909 292.117606 
L 337.452218 292.169484 
L 338.101527 292.858731 
L 338.750836 292.711102 
L 340.049455 292.060088 
L 340.698764 291.930018 
L 341.348073 291.541654 
L 341.997382 291.2897 
L 342.646691 291.381934 
L 343.296 291.784996 
L 343.945309 291.641694 
L 345.243927 292.254708 
L 345.893236 292.090688 
L 346.542545 291.493412 
L 347.191855 291.401549 
L 348.490473 291.403009 
L 349.139782 291.838082 
L 349.789091 292.536625 
L 350.4384 292.761537 
L 351.087709 292.732294 
L 351.737018 292.831865 
L 352.386327 292.369596 
L 353.035636 292.292874 
L 353.684945 292.403849 
L 354.983564 292.254498 
L 355.632873 292.59403 
L 356.282182 292.639996 
L 356.931491 292.308283 
L 358.230109 292.560484 
L 358.879418 292.385805 
L 359.528727 292.012317 
L 361.476655 291.84794 
L 362.125964 292.013832 
L 362.775273 292.44956 
L 363.424582 292.24028 
L 364.073891 291.741995 
L 365.372509 291.524299 
L 366.021818 291.235706 
L 366.671127 291.698246 
L 367.320436 291.811316 
L 368.619055 291.636386 
L 369.268364 291.925238 
L 369.917673 291.887824 
L 370.566982 292.393244 
L 371.216291 292.263905 
L 372.514909 291.534577 
L 373.164218 291.731826 
L 373.813527 291.390009 
L 374.462836 291.650698 
L 375.112145 292.180407 
L 375.761455 292.453817 
L 376.410764 292.355679 
L 377.060073 292.562336 
L 377.709382 292.498519 
L 379.008 292.790204 
L 379.657309 292.658772 
L 380.955927 291.822591 
L 382.903855 291.791177 
L 383.553164 291.810242 
L 384.202473 292.392134 
L 384.851782 292.518764 
L 386.1504 292.213304 
L 386.799709 292.549973 
L 387.449018 292.396402 
L 388.098327 292.040675 
L 388.747636 292.022157 
L 389.396945 292.160602 
L 390.695564 292.277724 
L 391.344873 292.453369 
L 391.994182 292.130671 
L 393.942109 292.238288 
L 394.591418 292.173346 
L 395.240727 292.693589 
L 396.539345 292.401747 
L 397.188655 291.962019 
L 397.837964 292.151268 
L 398.487273 291.81648 
L 398.487273 291.81648 
" style="fill:none;stroke:#000000;stroke-dasharray:19.2,4.8,3,4.8;stroke-dashoffset:0;stroke-width:3;"/>
   </g>
   <g id="line2d_17">
    <path clip-path="url(#p7708339576)" d="M 73.832727 53.568 
L 74.482036 53.924353 
L 75.131345 62.421865 
L 76.429964 88.100692 
L 79.0272 174.068067 
L 79.676509 185.019591 
L 80.325818 191.247816 
L 80.975127 194.373601 
L 82.273745 198.16734 
L 82.923055 201.479821 
L 83.572364 206.062017 
L 84.870982 216.72694 
L 85.520291 221.434766 
L 86.1696 225.196963 
L 86.818909 228.197122 
L 88.117527 232.725467 
L 89.416145 236.380341 
L 91.364073 240.743295 
L 92.662691 243.152954 
L 94.610618 246.559226 
L 97.857164 251.713271 
L 99.155782 253.369151 
L 100.4544 254.808731 
L 102.402327 256.866322 
L 106.298182 260.220475 
L 108.246109 261.885171 
L 108.895418 262.477942 
L 110.843345 263.843098 
L 112.791273 265.23128 
L 114.089891 266.006393 
L 120.582982 269.490924 
L 128.374691 272.471839 
L 132.270545 273.578888 
L 143.3088 276.112284 
L 153.697745 278.063151 
L 155.645673 278.391601 
L 157.5936 278.716988 
L 159.541527 278.928837 
L 161.489455 279.242893 
L 164.736 279.523522 
L 167.333236 279.974697 
L 170.579782 280.275107 
L 172.527709 280.369779 
L 173.177018 280.509415 
L 173.826327 280.531412 
L 174.475636 280.700457 
L 176.423564 280.861845 
L 177.072873 280.97761 
L 177.722182 280.931502 
L 178.371491 281.031372 
L 179.0208 281.01181 
L 179.670109 281.168624 
L 180.319418 281.171899 
L 180.968727 281.338469 
L 181.618036 281.315673 
L 182.267345 281.470313 
L 182.916655 281.410354 
L 183.565964 281.525804 
L 184.215273 281.435667 
L 184.864582 281.54064 
L 185.513891 281.429638 
L 186.1632 281.57773 
L 186.812509 281.527355 
L 187.461818 281.666228 
L 188.111127 281.643819 
L 188.760436 281.847979 
L 189.409745 281.818305 
L 190.059055 281.974831 
L 190.708364 281.934612 
L 191.357673 282.055135 
L 192.006982 281.99657 
L 192.656291 282.105421 
L 193.3056 281.999461 
L 193.954909 282.090528 
L 194.604218 281.993075 
L 195.253527 282.026336 
L 195.902836 281.929903 
L 196.552145 282.036921 
L 197.201455 281.971106 
L 197.850764 282.080386 
L 199.798691 282.083877 
L 200.448 282.175169 
L 201.097309 282.10846 
L 203.045236 282.253659 
L 203.694545 282.240239 
L 204.343855 282.354151 
L 204.993164 282.310139 
L 205.642473 282.387525 
L 206.291782 282.28855 
L 206.941091 282.378435 
L 207.5904 282.352937 
L 209.538327 282.652345 
L 210.187636 282.630156 
L 210.836945 282.769529 
L 211.486255 282.783698 
L 212.135564 282.957964 
L 214.7328 282.960138 
L 215.382109 282.818052 
L 217.979345 283.180002 
L 218.628655 283.392262 
L 220.576582 283.552622 
L 222.524509 283.80908 
L 224.472436 283.895905 
L 227.069673 283.846963 
L 228.368291 284.057028 
L 230.316218 284.360139 
L 230.965527 284.343602 
L 232.264145 284.53809 
L 238.107927 285.356324 
L 240.055855 285.556059 
L 243.3024 285.612683 
L 247.198255 285.928597 
L 247.847564 285.973907 
L 249.795491 285.794147 
L 254.340655 286.31402 
L 257.5872 286.171454 
L 260.833745 286.134527 
L 267.976145 286.436978 
L 268.625455 286.55608 
L 274.469236 286.326327 
L 275.767855 286.532104 
L 276.417164 286.609187 
L 279.663709 286.341041 
L 281.611636 286.421408 
L 282.260945 286.38479 
L 282.910255 286.517944 
L 284.858182 286.598763 
L 285.507491 286.719869 
L 286.1568 286.724205 
L 286.806109 286.849838 
L 288.754036 286.748394 
L 290.701964 286.476316 
L 292.649891 286.383172 
L 295.896436 286.531153 
L 298.493673 286.556909 
L 300.4416 286.789152 
L 302.389527 286.789096 
L 303.038836 286.839739 
L 303.688145 286.761764 
L 304.337455 286.797747 
L 308.882618 286.311205 
L 309.531927 286.285808 
L 312.129164 285.638215 
L 312.778473 285.657839 
L 314.077091 286.257521 
L 316.674327 286.541226 
L 317.323636 286.453004 
L 317.972945 286.800975 
L 318.622255 286.980542 
L 319.920873 286.98351 
L 321.219491 286.756868 
L 321.8688 286.457385 
L 323.167418 286.116856 
L 323.816727 286.162434 
L 324.466036 286.02672 
L 325.115345 286.181619 
L 327.063273 286.158386 
L 329.0112 286.313608 
L 329.660509 286.520565 
L 330.309818 286.589306 
L 330.959127 286.840857 
L 331.608436 287.215216 
L 332.257745 287.451313 
L 332.907055 287.202942 
L 333.556364 287.383716 
L 335.504291 286.556479 
L 336.1536 286.997447 
L 336.802909 286.565597 
L 337.452218 286.859619 
L 338.101527 286.691233 
L 338.750836 286.977749 
L 339.400145 286.82157 
L 340.049455 287.021279 
L 340.698764 286.665019 
L 341.348073 286.747602 
L 342.646691 285.951784 
L 344.594618 285.156147 
L 345.893236 285.929444 
L 346.542545 285.948973 
L 347.191855 286.352758 
L 347.841164 286.981557 
L 349.139782 287.581769 
L 349.789091 288.322915 
L 350.4384 288.690348 
L 354.334255 289.229762 
L 357.5808 289.229186 
L 358.879418 289.359472 
L 360.827345 289.414548 
L 366.021818 289.228678 
L 367.320436 288.559343 
L 369.268364 287.231682 
L 369.917673 286.964636 
L 371.216291 286.869773 
L 373.164218 287.573884 
L 375.112145 287.935469 
L 377.709382 288.668429 
L 378.358691 288.670331 
L 379.657309 288.237621 
L 381.605236 287.276215 
L 382.903855 287.272719 
L 383.553164 287.550836 
L 384.851782 287.895252 
L 386.1504 287.988384 
L 386.799709 288.011867 
L 389.396945 289.209032 
L 390.046255 289.445869 
L 393.942109 289.38848 
L 394.591418 289.227131 
L 396.539345 289.087354 
L 398.487273 288.70759 
L 398.487273 288.70759 
" style="fill:none;stroke:#ffc0cb;stroke-dasharray:19.2,4.8,3,4.8;stroke-dashoffset:0;stroke-width:3;"/>
   </g>
   <g id="patch_3">
    <path d="M 57.6 307.584 
L 57.6 41.472 
" style="fill:none;stroke:#000000;stroke-linecap:square;stroke-linejoin:miter;stroke-width:0.8;"/>
   </g>
   <g id="patch_4">
    <path d="M 414.72 307.584 
L 414.72 41.472 
" style="fill:none;"/>
   </g>
   <g id="patch_5">
    <path d="M 57.6 307.584 
L 414.72 307.584 
" style="fill:none;stroke:#000000;stroke-linecap:square;stroke-linejoin:miter;stroke-width:0.8;"/>
   </g>
   <g id="patch_6">
    <path d="M 57.6 41.472 
L 414.72 41.472 
" style="fill:none;"/>
   </g>
   <g id="legend_1">
    <g id="patch_7">
     <path d="M 322.90125 137.54075 
L 407.72 137.54075 
Q 409.72 137.54075 409.72 135.54075 
L 409.72 48.472 
Q 409.72 46.472 407.72 46.472 
L 322.90125 46.472 
Q 320.90125 46.472 320.90125 48.472 
L 320.90125 135.54075 
Q 320.90125 137.54075 322.90125 137.54075 
z
" style="fill:#ffffff;opacity:0.8;stroke:#cccccc;stroke-linejoin:miter;"/>
    </g>
    <g id="line2d_18">
     <path d="M 324.90125 54.570438 
L 344.90125 54.570438 
" style="fill:none;stroke:#ff0000;stroke-dasharray:7.4,3.2;stroke-dashoffset:0;stroke-width:2;"/>
    </g>
    <g id="line2d_19"/>
    <g id="text_14">
     <!-- FedAAW -->
     <defs>
      <path d="M 9.8125 72.90625 
L 51.703125 72.90625 
L 51.703125 64.59375 
L 19.671875 64.59375 
L 19.671875 43.109375 
L 48.578125 43.109375 
L 48.578125 34.8125 
L 19.671875 34.8125 
L 19.671875 0 
L 9.8125 0 
z
" id="DejaVuSans-70"/>
      <path d="M 56.203125 29.59375 
L 56.203125 25.203125 
L 14.890625 25.203125 
Q 15.484375 15.921875 20.484375 11.0625 
Q 25.484375 6.203125 34.421875 6.203125 
Q 39.59375 6.203125 44.453125 7.46875 
Q 49.3125 8.734375 54.109375 11.28125 
L 54.109375 2.78125 
Q 49.265625 0.734375 44.1875 -0.34375 
Q 39.109375 -1.421875 33.890625 -1.421875 
Q 20.796875 -1.421875 13.15625 6.1875 
Q 5.515625 13.8125 5.515625 26.8125 
Q 5.515625 40.234375 12.765625 48.109375 
Q 20.015625 56 32.328125 56 
Q 43.359375 56 49.78125 48.890625 
Q 56.203125 41.796875 56.203125 29.59375 
z
M 47.21875 32.234375 
Q 47.125 39.59375 43.09375 43.984375 
Q 39.0625 48.390625 32.421875 48.390625 
Q 24.90625 48.390625 20.390625 44.140625 
Q 15.875 39.890625 15.1875 32.171875 
z
" id="DejaVuSans-101"/>
      <path d="M 34.1875 63.1875 
L 20.796875 26.90625 
L 47.609375 26.90625 
z
M 28.609375 72.90625 
L 39.796875 72.90625 
L 67.578125 0 
L 57.328125 0 
L 50.6875 18.703125 
L 17.828125 18.703125 
L 11.1875 0 
L 0.78125 0 
z
" id="DejaVuSans-65"/>
      <path d="M 3.328125 72.90625 
L 13.28125 72.90625 
L 28.609375 11.28125 
L 43.890625 72.90625 
L 54.984375 72.90625 
L 70.3125 11.28125 
L 85.59375 72.90625 
L 95.609375 72.90625 
L 77.296875 0 
L 64.890625 0 
L 49.515625 63.28125 
L 33.984375 0 
L 21.578125 0 
z
" id="DejaVuSans-87"/>
     </defs>
     <g transform="translate(352.90125 58.070438)scale(0.1 -0.1)">
      <use xlink:href="#DejaVuSans-70"/>
      <use x="57.441406" xlink:href="#DejaVuSans-101"/>
      <use x="118.964844" xlink:href="#DejaVuSans-100"/>
      <use x="182.441406" xlink:href="#DejaVuSans-65"/>
      <use x="250.880859" xlink:href="#DejaVuSans-65"/>
      <use x="319.210938" xlink:href="#DejaVuSans-87"/>
     </g>
    </g>
    <g id="line2d_20">
     <path d="M 324.90125 69.248563 
L 344.90125 69.248563 
" style="fill:none;stroke:#ffff00;stroke-dasharray:19.2,4.8,3,4.8;stroke-dashoffset:0;stroke-width:3;"/>
    </g>
    <g id="line2d_21"/>
    <g id="text_15">
     <!-- FedAvg -->
     <defs>
      <path d="M 2.984375 54.6875 
L 12.5 54.6875 
L 29.59375 8.796875 
L 46.6875 54.6875 
L 56.203125 54.6875 
L 35.6875 0 
L 23.484375 0 
z
" id="DejaVuSans-118"/>
      <path d="M 45.40625 27.984375 
Q 45.40625 37.75 41.375 43.109375 
Q 37.359375 48.484375 30.078125 48.484375 
Q 22.859375 48.484375 18.828125 43.109375 
Q 14.796875 37.75 14.796875 27.984375 
Q 14.796875 18.265625 18.828125 12.890625 
Q 22.859375 7.515625 30.078125 7.515625 
Q 37.359375 7.515625 41.375 12.890625 
Q 45.40625 18.265625 45.40625 27.984375 
z
M 54.390625 6.78125 
Q 54.390625 -7.171875 48.1875 -13.984375 
Q 42 -20.796875 29.203125 -20.796875 
Q 24.46875 -20.796875 20.265625 -20.09375 
Q 16.0625 -19.390625 12.109375 -17.921875 
L 12.109375 -9.1875 
Q 16.0625 -11.328125 19.921875 -12.34375 
Q 23.78125 -13.375 27.78125 -13.375 
Q 36.625 -13.375 41.015625 -8.765625 
Q 45.40625 -4.15625 45.40625 5.171875 
L 45.40625 9.625 
Q 42.625 4.78125 38.28125 2.390625 
Q 33.9375 0 27.875 0 
Q 17.828125 0 11.671875 7.65625 
Q 5.515625 15.328125 5.515625 27.984375 
Q 5.515625 40.671875 11.671875 48.328125 
Q 17.828125 56 27.875 56 
Q 33.9375 56 38.28125 53.609375 
Q 42.625 51.21875 45.40625 46.390625 
L 45.40625 54.6875 
L 54.390625 54.6875 
z
" id="DejaVuSans-103"/>
     </defs>
     <g transform="translate(352.90125 72.748563)scale(0.1 -0.1)">
      <use xlink:href="#DejaVuSans-70"/>
      <use x="57.441406" xlink:href="#DejaVuSans-101"/>
      <use x="118.964844" xlink:href="#DejaVuSans-100"/>
      <use x="182.441406" xlink:href="#DejaVuSans-65"/>
      <use x="250.771484" xlink:href="#DejaVuSans-118"/>
      <use x="309.951172" xlink:href="#DejaVuSans-103"/>
     </g>
    </g>
    <g id="line2d_22">
     <path d="M 324.90125 83.926688 
L 344.90125 83.926688 
" style="fill:none;stroke:#0000ff;stroke-dasharray:19.2,4.8,3,4.8;stroke-dashoffset:0;stroke-width:3;"/>
    </g>
    <g id="line2d_23"/>
    <g id="text_16">
     <!-- FedJS -->
     <defs>
      <path d="M 9.8125 72.90625 
L 19.671875 72.90625 
L 19.671875 5.078125 
Q 19.671875 -8.109375 14.671875 -14.0625 
Q 9.671875 -20.015625 -1.421875 -20.015625 
L -5.171875 -20.015625 
L -5.171875 -11.71875 
L -2.09375 -11.71875 
Q 4.4375 -11.71875 7.125 -8.046875 
Q 9.8125 -4.390625 9.8125 5.078125 
z
" id="DejaVuSans-74"/>
      <path d="M 53.515625 70.515625 
L 53.515625 60.890625 
Q 47.90625 63.578125 42.921875 64.890625 
Q 37.9375 66.21875 33.296875 66.21875 
Q 25.25 66.21875 20.875 63.09375 
Q 16.5 59.96875 16.5 54.203125 
Q 16.5 49.359375 19.40625 46.890625 
Q 22.3125 44.4375 30.421875 42.921875 
L 36.375 41.703125 
Q 47.40625 39.59375 52.65625 34.296875 
Q 57.90625 29 57.90625 20.125 
Q 57.90625 9.515625 50.796875 4.046875 
Q 43.703125 -1.421875 29.984375 -1.421875 
Q 24.8125 -1.421875 18.96875 -0.25 
Q 13.140625 0.921875 6.890625 3.21875 
L 6.890625 13.375 
Q 12.890625 10.015625 18.65625 8.296875 
Q 24.421875 6.59375 29.984375 6.59375 
Q 38.421875 6.59375 43.015625 9.90625 
Q 47.609375 13.234375 47.609375 19.390625 
Q 47.609375 24.75 44.3125 27.78125 
Q 41.015625 30.8125 33.5 32.328125 
L 27.484375 33.5 
Q 16.453125 35.6875 11.515625 40.375 
Q 6.59375 45.0625 6.59375 53.421875 
Q 6.59375 63.09375 13.40625 68.65625 
Q 20.21875 74.21875 32.171875 74.21875 
Q 37.3125 74.21875 42.625 73.28125 
Q 47.953125 72.359375 53.515625 70.515625 
z
" id="DejaVuSans-83"/>
     </defs>
     <g transform="translate(352.90125 87.426688)scale(0.1 -0.1)">
      <use xlink:href="#DejaVuSans-70"/>
      <use x="57.441406" xlink:href="#DejaVuSans-101"/>
      <use x="118.964844" xlink:href="#DejaVuSans-100"/>
      <use x="182.441406" xlink:href="#DejaVuSans-74"/>
      <use x="211.933594" xlink:href="#DejaVuSans-83"/>
     </g>
    </g>
    <g id="line2d_24">
     <path d="M 324.90125 98.604813 
L 344.90125 98.604813 
" style="fill:none;stroke:#008000;stroke-dasharray:19.2,4.8,3,4.8;stroke-dashoffset:0;stroke-width:3;"/>
    </g>
    <g id="line2d_25"/>
    <g id="text_17">
     <!-- FedProx -->
     <defs>
      <path d="M 19.671875 64.796875 
L 19.671875 37.40625 
L 32.078125 37.40625 
Q 38.96875 37.40625 42.71875 40.96875 
Q 46.484375 44.53125 46.484375 51.125 
Q 46.484375 57.671875 42.71875 61.234375 
Q 38.96875 64.796875 32.078125 64.796875 
z
M 9.8125 72.90625 
L 32.078125 72.90625 
Q 44.34375 72.90625 50.609375 67.359375 
Q 56.890625 61.8125 56.890625 51.125 
Q 56.890625 40.328125 50.609375 34.8125 
Q 44.34375 29.296875 32.078125 29.296875 
L 19.671875 29.296875 
L 19.671875 0 
L 9.8125 0 
z
" id="DejaVuSans-80"/>
      <path d="M 41.109375 46.296875 
Q 39.59375 47.171875 37.8125 47.578125 
Q 36.03125 48 33.890625 48 
Q 26.265625 48 22.1875 43.046875 
Q 18.109375 38.09375 18.109375 28.8125 
L 18.109375 0 
L 9.078125 0 
L 9.078125 54.6875 
L 18.109375 54.6875 
L 18.109375 46.1875 
Q 20.953125 51.171875 25.484375 53.578125 
Q 30.03125 56 36.53125 56 
Q 37.453125 56 38.578125 55.875 
Q 39.703125 55.765625 41.0625 55.515625 
z
" id="DejaVuSans-114"/>
      <path d="M 54.890625 54.6875 
L 35.109375 28.078125 
L 55.90625 0 
L 45.3125 0 
L 29.390625 21.484375 
L 13.484375 0 
L 2.875 0 
L 24.125 28.609375 
L 4.6875 54.6875 
L 15.28125 54.6875 
L 29.78125 35.203125 
L 44.28125 54.6875 
z
" id="DejaVuSans-120"/>
     </defs>
     <g transform="translate(352.90125 102.104813)scale(0.1 -0.1)">
      <use xlink:href="#DejaVuSans-70"/>
      <use x="57.441406" xlink:href="#DejaVuSans-101"/>
      <use x="118.964844" xlink:href="#DejaVuSans-100"/>
      <use x="182.441406" xlink:href="#DejaVuSans-80"/>
      <use x="242.728516" xlink:href="#DejaVuSans-114"/>
      <use x="283.810547" xlink:href="#DejaVuSans-111"/>
      <use x="344.945312" xlink:href="#DejaVuSans-120"/>
     </g>
    </g>
    <g id="line2d_26">
     <path d="M 324.90125 113.282938 
L 344.90125 113.282938 
" style="fill:none;stroke:#000000;stroke-dasharray:19.2,4.8,3,4.8;stroke-dashoffset:0;stroke-width:3;"/>
    </g>
    <g id="line2d_27"/>
    <g id="text_18">
     <!-- MOON -->
     <defs>
      <path d="M 9.8125 72.90625 
L 24.515625 72.90625 
L 43.109375 23.296875 
L 61.8125 72.90625 
L 76.515625 72.90625 
L 76.515625 0 
L 66.890625 0 
L 66.890625 64.015625 
L 48.09375 14.015625 
L 38.1875 14.015625 
L 19.390625 64.015625 
L 19.390625 0 
L 9.8125 0 
z
" id="DejaVuSans-77"/>
      <path d="M 39.40625 66.21875 
Q 28.65625 66.21875 22.328125 58.203125 
Q 16.015625 50.203125 16.015625 36.375 
Q 16.015625 22.609375 22.328125 14.59375 
Q 28.65625 6.59375 39.40625 6.59375 
Q 50.140625 6.59375 56.421875 14.59375 
Q 62.703125 22.609375 62.703125 36.375 
Q 62.703125 50.203125 56.421875 58.203125 
Q 50.140625 66.21875 39.40625 66.21875 
z
M 39.40625 74.21875 
Q 54.734375 74.21875 63.90625 63.9375 
Q 73.09375 53.65625 73.09375 36.375 
Q 73.09375 19.140625 63.90625 8.859375 
Q 54.734375 -1.421875 39.40625 -1.421875 
Q 24.03125 -1.421875 14.8125 8.828125 
Q 5.609375 19.09375 5.609375 36.375 
Q 5.609375 53.65625 14.8125 63.9375 
Q 24.03125 74.21875 39.40625 74.21875 
z
" id="DejaVuSans-79"/>
      <path d="M 9.8125 72.90625 
L 23.09375 72.90625 
L 55.421875 11.921875 
L 55.421875 72.90625 
L 64.984375 72.90625 
L 64.984375 0 
L 51.703125 0 
L 19.390625 60.984375 
L 19.390625 0 
L 9.8125 0 
z
" id="DejaVuSans-78"/>
     </defs>
     <g transform="translate(352.90125 116.782938)scale(0.1 -0.1)">
      <use xlink:href="#DejaVuSans-77"/>
      <use x="86.279297" xlink:href="#DejaVuSans-79"/>
      <use x="164.990234" xlink:href="#DejaVuSans-79"/>
      <use x="243.701172" xlink:href="#DejaVuSans-78"/>
     </g>
    </g>
    <g id="line2d_28">
     <path d="M 324.90125 127.961063 
L 344.90125 127.961063 
" style="fill:none;stroke:#ffc0cb;stroke-dasharray:19.2,4.8,3,4.8;stroke-dashoffset:0;stroke-width:3;"/>
    </g>
    <g id="line2d_29"/>
    <g id="text_19">
     <!-- SCAFFOLD -->
     <defs>
      <path d="M 64.40625 67.28125 
L 64.40625 56.890625 
Q 59.421875 61.53125 53.78125 63.8125 
Q 48.140625 66.109375 41.796875 66.109375 
Q 29.296875 66.109375 22.65625 58.46875 
Q 16.015625 50.828125 16.015625 36.375 
Q 16.015625 21.96875 22.65625 14.328125 
Q 29.296875 6.6875 41.796875 6.6875 
Q 48.140625 6.6875 53.78125 8.984375 
Q 59.421875 11.28125 64.40625 15.921875 
L 64.40625 5.609375 
Q 59.234375 2.09375 53.4375 0.328125 
Q 47.65625 -1.421875 41.21875 -1.421875 
Q 24.65625 -1.421875 15.125 8.703125 
Q 5.609375 18.84375 5.609375 36.375 
Q 5.609375 53.953125 15.125 64.078125 
Q 24.65625 74.21875 41.21875 74.21875 
Q 47.75 74.21875 53.53125 72.484375 
Q 59.328125 70.75 64.40625 67.28125 
z
" id="DejaVuSans-67"/>
      <path d="M 19.671875 64.796875 
L 19.671875 8.109375 
L 31.59375 8.109375 
Q 46.6875 8.109375 53.6875 14.9375 
Q 60.6875 21.78125 60.6875 36.53125 
Q 60.6875 51.171875 53.6875 57.984375 
Q 46.6875 64.796875 31.59375 64.796875 
z
M 9.8125 72.90625 
L 30.078125 72.90625 
Q 51.265625 72.90625 61.171875 64.09375 
Q 71.09375 55.28125 71.09375 36.53125 
Q 71.09375 17.671875 61.125 8.828125 
Q 51.171875 0 30.078125 0 
L 9.8125 0 
z
" id="DejaVuSans-68"/>
     </defs>
     <g transform="translate(352.90125 131.461063)scale(0.1 -0.1)">
      <use xlink:href="#DejaVuSans-83"/>
      <use x="63.476562" xlink:href="#DejaVuSans-67"/>
      <use x="133.300781" xlink:href="#DejaVuSans-65"/>
      <use x="201.708984" xlink:href="#DejaVuSans-70"/>
      <use x="259.228516" xlink:href="#DejaVuSans-70"/>
      <use x="316.748047" xlink:href="#DejaVuSans-79"/>
      <use x="395.458984" xlink:href="#DejaVuSans-76"/>
      <use x="451.171875" xlink:href="#DejaVuSans-68"/>
     </g>
    </g>
   </g>
  </g>
 </g>
 <defs>
  <clipPath id="p7708339576">
   <rect height="266.112" width="357.12" x="57.6" y="41.472"/>
  </clipPath>
 </defs>
</svg>
