<?xml version="1.0" encoding="utf-8" standalone="no"?>
<!DOCTYPE svg PUBLIC "-//W3C//DTD SVG 1.1//EN"
  "http://www.w3.org/Graphics/SVG/1.1/DTD/svg11.dtd">
<!-- Created with matplotlib (https://matplotlib.org/) -->
<svg height="345.6pt" version="1.1" viewBox="0 0 460.8 345.6" width="460.8pt" xmlns="http://www.w3.org/2000/svg" xmlns:xlink="http://www.w3.org/1999/xlink">
 <defs>
  <style type="text/css">
*{stroke-linecap:butt;stroke-linejoin:round;}
  </style>
 </defs>
 <g id="figure_1">
  <g id="patch_1">
   <path d="M 0 345.6 
L 460.8 345.6 
L 460.8 0 
L 0 0 
z
" style="fill:#ffffff;"/>
  </g>
  <g id="axes_1">
   <g id="patch_2">
    <path d="M 57.6 307.584 
L 414.72 307.584 
L 414.72 41.472 
L 57.6 41.472 
z
" style="fill:#ffffff;"/>
   </g>
   <g id="matplotlib.axis_1">
    <g id="xtick_1">
     <g id="line2d_1">
      <defs>
       <path d="M 0 0 
L 0 3.5 
" id="mca5718672f" style="stroke:#000000;stroke-width:0.8;"/>
      </defs>
      <g>
       <use style="stroke:#000000;stroke-width:0.8;" x="73.832727" xlink:href="#mca5718672f" y="307.584"/>
      </g>
     </g>
     <g id="text_1">
      <!-- 0 -->
      <defs>
       <path d="M 31.78125 66.40625 
Q 24.171875 66.40625 20.328125 58.90625 
Q 16.5 51.421875 16.5 36.375 
Q 16.5 21.390625 20.328125 13.890625 
Q 24.171875 6.390625 31.78125 6.390625 
Q 39.453125 6.390625 43.28125 13.890625 
Q 47.125 21.390625 47.125 36.375 
Q 47.125 51.421875 43.28125 58.90625 
Q 39.453125 66.40625 31.78125 66.40625 
z
M 31.78125 74.21875 
Q 44.046875 74.21875 50.515625 64.515625 
Q 56.984375 54.828125 56.984375 36.375 
Q 56.984375 17.96875 50.515625 8.265625 
Q 44.046875 -1.421875 31.78125 -1.421875 
Q 19.53125 -1.421875 13.0625 8.265625 
Q 6.59375 17.96875 6.59375 36.375 
Q 6.59375 54.828125 13.0625 64.515625 
Q 19.53125 74.21875 31.78125 74.21875 
z
" id="DejaVuSans-48"/>
      </defs>
      <g transform="translate(70.651477 322.182437)scale(0.1 -0.1)">
       <use xlink:href="#DejaVuSans-48"/>
      </g>
     </g>
    </g>
    <g id="xtick_2">
     <g id="line2d_2">
      <g>
       <use style="stroke:#000000;stroke-width:0.8;" x="138.763636" xlink:href="#mca5718672f" y="307.584"/>
      </g>
     </g>
     <g id="text_2">
      <!-- 100 -->
      <defs>
       <path d="M 12.40625 8.296875 
L 28.515625 8.296875 
L 28.515625 63.921875 
L 10.984375 60.40625 
L 10.984375 69.390625 
L 28.421875 72.90625 
L 38.28125 72.90625 
L 38.28125 8.296875 
L 54.390625 8.296875 
L 54.390625 0 
L 12.40625 0 
z
" id="DejaVuSans-49"/>
      </defs>
      <g transform="translate(129.219886 322.182437)scale(0.1 -0.1)">
       <use xlink:href="#DejaVuSans-49"/>
       <use x="63.623047" xlink:href="#DejaVuSans-48"/>
       <use x="127.246094" xlink:href="#DejaVuSans-48"/>
      </g>
     </g>
    </g>
    <g id="xtick_3">
     <g id="line2d_3">
      <g>
       <use style="stroke:#000000;stroke-width:0.8;" x="203.694545" xlink:href="#mca5718672f" y="307.584"/>
      </g>
     </g>
     <g id="text_3">
      <!-- 200 -->
      <defs>
       <path d="M 19.1875 8.296875 
L 53.609375 8.296875 
L 53.609375 0 
L 7.328125 0 
L 7.328125 8.296875 
Q 12.9375 14.109375 22.625 23.890625 
Q 32.328125 33.6875 34.8125 36.53125 
Q 39.546875 41.84375 41.421875 45.53125 
Q 43.3125 49.21875 43.3125 52.78125 
Q 43.3125 58.59375 39.234375 62.25 
Q 35.15625 65.921875 28.609375 65.921875 
Q 23.96875 65.921875 18.8125 64.3125 
Q 13.671875 62.703125 7.8125 59.421875 
L 7.8125 69.390625 
Q 13.765625 71.78125 18.9375 73 
Q 24.125 74.21875 28.421875 74.21875 
Q 39.75 74.21875 46.484375 68.546875 
Q 53.21875 62.890625 53.21875 53.421875 
Q 53.21875 48.921875 51.53125 44.890625 
Q 49.859375 40.875 45.40625 35.40625 
Q 44.1875 33.984375 37.640625 27.21875 
Q 31.109375 20.453125 19.1875 8.296875 
z
" id="DejaVuSans-50"/>
      </defs>
      <g transform="translate(194.150795 322.182437)scale(0.1 -0.1)">
       <use xlink:href="#DejaVuSans-50"/>
       <use x="63.623047" xlink:href="#DejaVuSans-48"/>
       <use x="127.246094" xlink:href="#DejaVuSans-48"/>
      </g>
     </g>
    </g>
    <g id="xtick_4">
     <g id="line2d_4">
      <g>
       <use style="stroke:#000000;stroke-width:0.8;" x="268.625455" xlink:href="#mca5718672f" y="307.584"/>
      </g>
     </g>
     <g id="text_4">
      <!-- 300 -->
      <defs>
       <path d="M 40.578125 39.3125 
Q 47.65625 37.796875 51.625 33 
Q 55.609375 28.21875 55.609375 21.1875 
Q 55.609375 10.40625 48.1875 4.484375 
Q 40.765625 -1.421875 27.09375 -1.421875 
Q 22.515625 -1.421875 17.65625 -0.515625 
Q 12.796875 0.390625 7.625 2.203125 
L 7.625 11.71875 
Q 11.71875 9.328125 16.59375 8.109375 
Q 21.484375 6.890625 26.8125 6.890625 
Q 36.078125 6.890625 40.9375 10.546875 
Q 45.796875 14.203125 45.796875 21.1875 
Q 45.796875 27.640625 41.28125 31.265625 
Q 36.765625 34.90625 28.71875 34.90625 
L 20.21875 34.90625 
L 20.21875 43.015625 
L 29.109375 43.015625 
Q 36.375 43.015625 40.234375 45.921875 
Q 44.09375 48.828125 44.09375 54.296875 
Q 44.09375 59.90625 40.109375 62.90625 
Q 36.140625 65.921875 28.71875 65.921875 
Q 24.65625 65.921875 20.015625 65.03125 
Q 15.375 64.15625 9.8125 62.3125 
L 9.8125 71.09375 
Q 15.4375 72.65625 20.34375 73.4375 
Q 25.25 74.21875 29.59375 74.21875 
Q 40.828125 74.21875 47.359375 69.109375 
Q 53.90625 64.015625 53.90625 55.328125 
Q 53.90625 49.265625 50.4375 45.09375 
Q 46.96875 40.921875 40.578125 39.3125 
z
" id="DejaVuSans-51"/>
      </defs>
      <g transform="translate(259.081705 322.182437)scale(0.1 -0.1)">
       <use xlink:href="#DejaVuSans-51"/>
       <use x="63.623047" xlink:href="#DejaVuSans-48"/>
       <use x="127.246094" xlink:href="#DejaVuSans-48"/>
      </g>
     </g>
    </g>
    <g id="xtick_5">
     <g id="line2d_5">
      <g>
       <use style="stroke:#000000;stroke-width:0.8;" x="333.556364" xlink:href="#mca5718672f" y="307.584"/>
      </g>
     </g>
     <g id="text_5">
      <!-- 400 -->
      <defs>
       <path d="M 37.796875 64.3125 
L 12.890625 25.390625 
L 37.796875 25.390625 
z
M 35.203125 72.90625 
L 47.609375 72.90625 
L 47.609375 25.390625 
L 58.015625 25.390625 
L 58.015625 17.1875 
L 47.609375 17.1875 
L 47.609375 0 
L 37.796875 0 
L 37.796875 17.1875 
L 4.890625 17.1875 
L 4.890625 26.703125 
z
" id="DejaVuSans-52"/>
      </defs>
      <g transform="translate(324.012614 322.182437)scale(0.1 -0.1)">
       <use xlink:href="#DejaVuSans-52"/>
       <use x="63.623047" xlink:href="#DejaVuSans-48"/>
       <use x="127.246094" xlink:href="#DejaVuSans-48"/>
      </g>
     </g>
    </g>
    <g id="xtick_6">
     <g id="line2d_6">
      <g>
       <use style="stroke:#000000;stroke-width:0.8;" x="398.487273" xlink:href="#mca5718672f" y="307.584"/>
      </g>
     </g>
     <g id="text_6">
      <!-- 500 -->
      <defs>
       <path d="M 10.796875 72.90625 
L 49.515625 72.90625 
L 49.515625 64.59375 
L 19.828125 64.59375 
L 19.828125 46.734375 
Q 21.96875 47.46875 24.109375 47.828125 
Q 26.265625 48.1875 28.421875 48.1875 
Q 40.625 48.1875 47.75 41.5 
Q 54.890625 34.8125 54.890625 23.390625 
Q 54.890625 11.625 47.5625 5.09375 
Q 40.234375 -1.421875 26.90625 -1.421875 
Q 22.3125 -1.421875 17.546875 -0.640625 
Q 12.796875 0.140625 7.71875 1.703125 
L 7.71875 11.625 
Q 12.109375 9.234375 16.796875 8.0625 
Q 21.484375 6.890625 26.703125 6.890625 
Q 35.15625 6.890625 40.078125 11.328125 
Q 45.015625 15.765625 45.015625 23.390625 
Q 45.015625 31 40.078125 35.4375 
Q 35.15625 39.890625 26.703125 39.890625 
Q 22.75 39.890625 18.8125 39.015625 
Q 14.890625 38.140625 10.796875 36.28125 
z
" id="DejaVuSans-53"/>
      </defs>
      <g transform="translate(388.943523 322.182437)scale(0.1 -0.1)">
       <use xlink:href="#DejaVuSans-53"/>
       <use x="63.623047" xlink:href="#DejaVuSans-48"/>
       <use x="127.246094" xlink:href="#DejaVuSans-48"/>
      </g>
     </g>
    </g>
    <g id="text_7">
     <!-- Rounds -->
     <defs>
      <path d="M 44.390625 34.1875 
Q 47.5625 33.109375 50.5625 29.59375 
Q 53.5625 26.078125 56.59375 19.921875 
L 66.609375 0 
L 56 0 
L 46.6875 18.703125 
Q 43.0625 26.03125 39.671875 28.421875 
Q 36.28125 30.8125 30.421875 30.8125 
L 19.671875 30.8125 
L 19.671875 0 
L 9.8125 0 
L 9.8125 72.90625 
L 32.078125 72.90625 
Q 44.578125 72.90625 50.734375 67.671875 
Q 56.890625 62.453125 56.890625 51.90625 
Q 56.890625 45.015625 53.6875 40.46875 
Q 50.484375 35.9375 44.390625 34.1875 
z
M 19.671875 64.796875 
L 19.671875 38.921875 
L 32.078125 38.921875 
Q 39.203125 38.921875 42.84375 42.21875 
Q 46.484375 45.515625 46.484375 51.90625 
Q 46.484375 58.296875 42.84375 61.546875 
Q 39.203125 64.796875 32.078125 64.796875 
z
" id="DejaVuSans-82"/>
      <path d="M 30.609375 48.390625 
Q 23.390625 48.390625 19.1875 42.75 
Q 14.984375 37.109375 14.984375 27.296875 
Q 14.984375 17.484375 19.15625 11.84375 
Q 23.34375 6.203125 30.609375 6.203125 
Q 37.796875 6.203125 41.984375 11.859375 
Q 46.1875 17.53125 46.1875 27.296875 
Q 46.1875 37.015625 41.984375 42.703125 
Q 37.796875 48.390625 30.609375 48.390625 
z
M 30.609375 56 
Q 42.328125 56 49.015625 48.375 
Q 55.71875 40.765625 55.71875 27.296875 
Q 55.71875 13.875 49.015625 6.21875 
Q 42.328125 -1.421875 30.609375 -1.421875 
Q 18.84375 -1.421875 12.171875 6.21875 
Q 5.515625 13.875 5.515625 27.296875 
Q 5.515625 40.765625 12.171875 48.375 
Q 18.84375 56 30.609375 56 
z
" id="DejaVuSans-111"/>
      <path d="M 8.5 21.578125 
L 8.5 54.6875 
L 17.484375 54.6875 
L 17.484375 21.921875 
Q 17.484375 14.15625 20.5 10.265625 
Q 23.53125 6.390625 29.59375 6.390625 
Q 36.859375 6.390625 41.078125 11.03125 
Q 45.3125 15.671875 45.3125 23.6875 
L 45.3125 54.6875 
L 54.296875 54.6875 
L 54.296875 0 
L 45.3125 0 
L 45.3125 8.40625 
Q 42.046875 3.421875 37.71875 1 
Q 33.40625 -1.421875 27.6875 -1.421875 
Q 18.265625 -1.421875 13.375 4.4375 
Q 8.5 10.296875 8.5 21.578125 
z
M 31.109375 56 
z
" id="DejaVuSans-117"/>
      <path d="M 54.890625 33.015625 
L 54.890625 0 
L 45.90625 0 
L 45.90625 32.71875 
Q 45.90625 40.484375 42.875 44.328125 
Q 39.84375 48.1875 33.796875 48.1875 
Q 26.515625 48.1875 22.3125 43.546875 
Q 18.109375 38.921875 18.109375 30.90625 
L 18.109375 0 
L 9.078125 0 
L 9.078125 54.6875 
L 18.109375 54.6875 
L 18.109375 46.1875 
Q 21.34375 51.125 25.703125 53.5625 
Q 30.078125 56 35.796875 56 
Q 45.21875 56 50.046875 50.171875 
Q 54.890625 44.34375 54.890625 33.015625 
z
" id="DejaVuSans-110"/>
      <path d="M 45.40625 46.390625 
L 45.40625 75.984375 
L 54.390625 75.984375 
L 54.390625 0 
L 45.40625 0 
L 45.40625 8.203125 
Q 42.578125 3.328125 38.25 0.953125 
Q 33.9375 -1.421875 27.875 -1.421875 
Q 17.96875 -1.421875 11.734375 6.484375 
Q 5.515625 14.40625 5.515625 27.296875 
Q 5.515625 40.1875 11.734375 48.09375 
Q 17.96875 56 27.875 56 
Q 33.9375 56 38.25 53.625 
Q 42.578125 51.265625 45.40625 46.390625 
z
M 14.796875 27.296875 
Q 14.796875 17.390625 18.875 11.75 
Q 22.953125 6.109375 30.078125 6.109375 
Q 37.203125 6.109375 41.296875 11.75 
Q 45.40625 17.390625 45.40625 27.296875 
Q 45.40625 37.203125 41.296875 42.84375 
Q 37.203125 48.484375 30.078125 48.484375 
Q 22.953125 48.484375 18.875 42.84375 
Q 14.796875 37.203125 14.796875 27.296875 
z
" id="DejaVuSans-100"/>
      <path d="M 44.28125 53.078125 
L 44.28125 44.578125 
Q 40.484375 46.53125 36.375 47.5 
Q 32.28125 48.484375 27.875 48.484375 
Q 21.1875 48.484375 17.84375 46.4375 
Q 14.5 44.390625 14.5 40.28125 
Q 14.5 37.15625 16.890625 35.375 
Q 19.28125 33.59375 26.515625 31.984375 
L 29.59375 31.296875 
Q 39.15625 29.25 43.1875 25.515625 
Q 47.21875 21.78125 47.21875 15.09375 
Q 47.21875 7.46875 41.1875 3.015625 
Q 35.15625 -1.421875 24.609375 -1.421875 
Q 20.21875 -1.421875 15.453125 -0.5625 
Q 10.6875 0.296875 5.421875 2 
L 5.421875 11.28125 
Q 10.40625 8.6875 15.234375 7.390625 
Q 20.0625 6.109375 24.8125 6.109375 
Q 31.15625 6.109375 34.5625 8.28125 
Q 37.984375 10.453125 37.984375 14.40625 
Q 37.984375 18.0625 35.515625 20.015625 
Q 33.0625 21.96875 24.703125 23.78125 
L 21.578125 24.515625 
Q 13.234375 26.265625 9.515625 29.90625 
Q 5.8125 33.546875 5.8125 39.890625 
Q 5.8125 47.609375 11.28125 51.796875 
Q 16.75 56 26.8125 56 
Q 31.78125 56 36.171875 55.265625 
Q 40.578125 54.546875 44.28125 53.078125 
z
" id="DejaVuSans-115"/>
     </defs>
     <g transform="translate(217.513125 335.860562)scale(0.1 -0.1)">
      <use xlink:href="#DejaVuSans-82"/>
      <use x="69.419922" xlink:href="#DejaVuSans-111"/>
      <use x="130.601562" xlink:href="#DejaVuSans-117"/>
      <use x="193.980469" xlink:href="#DejaVuSans-110"/>
      <use x="257.359375" xlink:href="#DejaVuSans-100"/>
      <use x="320.835938" xlink:href="#DejaVuSans-115"/>
     </g>
    </g>
   </g>
   <g id="matplotlib.axis_2">
    <g id="ytick_1">
     <g id="line2d_7">
      <defs>
       <path d="M 0 0 
L -3.5 0 
" id="maa7f3a197a" style="stroke:#000000;stroke-width:0.8;"/>
      </defs>
      <g>
       <use style="stroke:#000000;stroke-width:0.8;" x="57.6" xlink:href="#maa7f3a197a" y="259.255762"/>
      </g>
     </g>
     <g id="text_8">
      <!-- 0.2 -->
      <defs>
       <path d="M 10.6875 12.40625 
L 21 12.40625 
L 21 0 
L 10.6875 0 
z
" id="DejaVuSans-46"/>
      </defs>
      <g transform="translate(34.696875 263.054981)scale(0.1 -0.1)">
       <use xlink:href="#DejaVuSans-48"/>
       <use x="63.623047" xlink:href="#DejaVuSans-46"/>
       <use x="95.410156" xlink:href="#DejaVuSans-50"/>
      </g>
     </g>
    </g>
    <g id="ytick_2">
     <g id="line2d_8">
      <g>
       <use style="stroke:#000000;stroke-width:0.8;" x="57.6" xlink:href="#maa7f3a197a" y="207.186977"/>
      </g>
     </g>
     <g id="text_9">
      <!-- 0.4 -->
      <g transform="translate(34.696875 210.986196)scale(0.1 -0.1)">
       <use xlink:href="#DejaVuSans-48"/>
       <use x="63.623047" xlink:href="#DejaVuSans-46"/>
       <use x="95.410156" xlink:href="#DejaVuSans-52"/>
      </g>
     </g>
    </g>
    <g id="ytick_3">
     <g id="line2d_9">
      <g>
       <use style="stroke:#000000;stroke-width:0.8;" x="57.6" xlink:href="#maa7f3a197a" y="155.118191"/>
      </g>
     </g>
     <g id="text_10">
      <!-- 0.6 -->
      <defs>
       <path d="M 33.015625 40.375 
Q 26.375 40.375 22.484375 35.828125 
Q 18.609375 31.296875 18.609375 23.390625 
Q 18.609375 15.53125 22.484375 10.953125 
Q 26.375 6.390625 33.015625 6.390625 
Q 39.65625 6.390625 43.53125 10.953125 
Q 47.40625 15.53125 47.40625 23.390625 
Q 47.40625 31.296875 43.53125 35.828125 
Q 39.65625 40.375 33.015625 40.375 
z
M 52.59375 71.296875 
L 52.59375 62.3125 
Q 48.875 64.0625 45.09375 64.984375 
Q 41.3125 65.921875 37.59375 65.921875 
Q 27.828125 65.921875 22.671875 59.328125 
Q 17.53125 52.734375 16.796875 39.40625 
Q 19.671875 43.65625 24.015625 45.921875 
Q 28.375 48.1875 33.59375 48.1875 
Q 44.578125 48.1875 50.953125 41.515625 
Q 57.328125 34.859375 57.328125 23.390625 
Q 57.328125 12.15625 50.6875 5.359375 
Q 44.046875 -1.421875 33.015625 -1.421875 
Q 20.359375 -1.421875 13.671875 8.265625 
Q 6.984375 17.96875 6.984375 36.375 
Q 6.984375 53.65625 15.1875 63.9375 
Q 23.390625 74.21875 37.203125 74.21875 
Q 40.921875 74.21875 44.703125 73.484375 
Q 48.484375 72.75 52.59375 71.296875 
z
" id="DejaVuSans-54"/>
      </defs>
      <g transform="translate(34.696875 158.91741)scale(0.1 -0.1)">
       <use xlink:href="#DejaVuSans-48"/>
       <use x="63.623047" xlink:href="#DejaVuSans-46"/>
       <use x="95.410156" xlink:href="#DejaVuSans-54"/>
      </g>
     </g>
    </g>
    <g id="ytick_4">
     <g id="line2d_10">
      <g>
       <use style="stroke:#000000;stroke-width:0.8;" x="57.6" xlink:href="#maa7f3a197a" y="103.049406"/>
      </g>
     </g>
     <g id="text_11">
      <!-- 0.8 -->
      <defs>
       <path d="M 31.78125 34.625 
Q 24.75 34.625 20.71875 30.859375 
Q 16.703125 27.09375 16.703125 20.515625 
Q 16.703125 13.921875 20.71875 10.15625 
Q 24.75 6.390625 31.78125 6.390625 
Q 38.8125 6.390625 42.859375 10.171875 
Q 46.921875 13.96875 46.921875 20.515625 
Q 46.921875 27.09375 42.890625 30.859375 
Q 38.875 34.625 31.78125 34.625 
z
M 21.921875 38.8125 
Q 15.578125 40.375 12.03125 44.71875 
Q 8.5 49.078125 8.5 55.328125 
Q 8.5 64.0625 14.71875 69.140625 
Q 20.953125 74.21875 31.78125 74.21875 
Q 42.671875 74.21875 48.875 69.140625 
Q 55.078125 64.0625 55.078125 55.328125 
Q 55.078125 49.078125 51.53125 44.71875 
Q 48 40.375 41.703125 38.8125 
Q 48.828125 37.15625 52.796875 32.3125 
Q 56.78125 27.484375 56.78125 20.515625 
Q 56.78125 9.90625 50.3125 4.234375 
Q 43.84375 -1.421875 31.78125 -1.421875 
Q 19.734375 -1.421875 13.25 4.234375 
Q 6.78125 9.90625 6.78125 20.515625 
Q 6.78125 27.484375 10.78125 32.3125 
Q 14.796875 37.15625 21.921875 38.8125 
z
M 18.3125 54.390625 
Q 18.3125 48.734375 21.84375 45.5625 
Q 25.390625 42.390625 31.78125 42.390625 
Q 38.140625 42.390625 41.71875 45.5625 
Q 45.3125 48.734375 45.3125 54.390625 
Q 45.3125 60.0625 41.71875 63.234375 
Q 38.140625 66.40625 31.78125 66.40625 
Q 25.390625 66.40625 21.84375 63.234375 
Q 18.3125 60.0625 18.3125 54.390625 
z
" id="DejaVuSans-56"/>
      </defs>
      <g transform="translate(34.696875 106.848625)scale(0.1 -0.1)">
       <use xlink:href="#DejaVuSans-48"/>
       <use x="63.623047" xlink:href="#DejaVuSans-46"/>
       <use x="95.410156" xlink:href="#DejaVuSans-56"/>
      </g>
     </g>
    </g>
    <g id="ytick_5">
     <g id="line2d_11">
      <g>
       <use style="stroke:#000000;stroke-width:0.8;" x="57.6" xlink:href="#maa7f3a197a" y="50.98062"/>
      </g>
     </g>
     <g id="text_12">
      <!-- 1.0 -->
      <g transform="translate(34.696875 54.779839)scale(0.1 -0.1)">
       <use xlink:href="#DejaVuSans-49"/>
       <use x="63.623047" xlink:href="#DejaVuSans-46"/>
       <use x="95.410156" xlink:href="#DejaVuSans-48"/>
      </g>
     </g>
    </g>
    <g id="text_13">
     <!-- Accuracy -->
     <defs>
      <path d="M 34.1875 63.1875 
L 20.796875 26.90625 
L 47.609375 26.90625 
z
M 28.609375 72.90625 
L 39.796875 72.90625 
L 67.578125 0 
L 57.328125 0 
L 50.6875 18.703125 
L 17.828125 18.703125 
L 11.1875 0 
L 0.78125 0 
z
" id="DejaVuSans-65"/>
      <path d="M 48.78125 52.59375 
L 48.78125 44.1875 
Q 44.96875 46.296875 41.140625 47.34375 
Q 37.3125 48.390625 33.40625 48.390625 
Q 24.65625 48.390625 19.8125 42.84375 
Q 14.984375 37.3125 14.984375 27.296875 
Q 14.984375 17.28125 19.8125 11.734375 
Q 24.65625 6.203125 33.40625 6.203125 
Q 37.3125 6.203125 41.140625 7.25 
Q 44.96875 8.296875 48.78125 10.40625 
L 48.78125 2.09375 
Q 45.015625 0.34375 40.984375 -0.53125 
Q 36.96875 -1.421875 32.421875 -1.421875 
Q 20.0625 -1.421875 12.78125 6.34375 
Q 5.515625 14.109375 5.515625 27.296875 
Q 5.515625 40.671875 12.859375 48.328125 
Q 20.21875 56 33.015625 56 
Q 37.15625 56 41.109375 55.140625 
Q 45.0625 54.296875 48.78125 52.59375 
z
" id="DejaVuSans-99"/>
      <path d="M 41.109375 46.296875 
Q 39.59375 47.171875 37.8125 47.578125 
Q 36.03125 48 33.890625 48 
Q 26.265625 48 22.1875 43.046875 
Q 18.109375 38.09375 18.109375 28.8125 
L 18.109375 0 
L 9.078125 0 
L 9.078125 54.6875 
L 18.109375 54.6875 
L 18.109375 46.1875 
Q 20.953125 51.171875 25.484375 53.578125 
Q 30.03125 56 36.53125 56 
Q 37.453125 56 38.578125 55.875 
Q 39.703125 55.765625 41.0625 55.515625 
z
" id="DejaVuSans-114"/>
      <path d="M 34.28125 27.484375 
Q 23.390625 27.484375 19.1875 25 
Q 14.984375 22.515625 14.984375 16.5 
Q 14.984375 11.71875 18.140625 8.90625 
Q 21.296875 6.109375 26.703125 6.109375 
Q 34.1875 6.109375 38.703125 11.40625 
Q 43.21875 16.703125 43.21875 25.484375 
L 43.21875 27.484375 
z
M 52.203125 31.203125 
L 52.203125 0 
L 43.21875 0 
L 43.21875 8.296875 
Q 40.140625 3.328125 35.546875 0.953125 
Q 30.953125 -1.421875 24.3125 -1.421875 
Q 15.921875 -1.421875 10.953125 3.296875 
Q 6 8.015625 6 15.921875 
Q 6 25.140625 12.171875 29.828125 
Q 18.359375 34.515625 30.609375 34.515625 
L 43.21875 34.515625 
L 43.21875 35.40625 
Q 43.21875 41.609375 39.140625 45 
Q 35.0625 48.390625 27.6875 48.390625 
Q 23 48.390625 18.546875 47.265625 
Q 14.109375 46.140625 10.015625 43.890625 
L 10.015625 52.203125 
Q 14.9375 54.109375 19.578125 55.046875 
Q 24.21875 56 28.609375 56 
Q 40.484375 56 46.34375 49.84375 
Q 52.203125 43.703125 52.203125 31.203125 
z
" id="DejaVuSans-97"/>
      <path d="M 32.171875 -5.078125 
Q 28.375 -14.84375 24.75 -17.8125 
Q 21.140625 -20.796875 15.09375 -20.796875 
L 7.90625 -20.796875 
L 7.90625 -13.28125 
L 13.1875 -13.28125 
Q 16.890625 -13.28125 18.9375 -11.515625 
Q 21 -9.765625 23.484375 -3.21875 
L 25.09375 0.875 
L 2.984375 54.6875 
L 12.5 54.6875 
L 29.59375 11.921875 
L 46.6875 54.6875 
L 56.203125 54.6875 
z
" id="DejaVuSans-121"/>
     </defs>
     <g transform="translate(28.617187 197.442844)rotate(-90)scale(0.1 -0.1)">
      <use xlink:href="#DejaVuSans-65"/>
      <use x="68.392578" xlink:href="#DejaVuSans-99"/>
      <use x="123.373047" xlink:href="#DejaVuSans-99"/>
      <use x="178.353516" xlink:href="#DejaVuSans-117"/>
      <use x="241.732422" xlink:href="#DejaVuSans-114"/>
      <use x="282.845703" xlink:href="#DejaVuSans-97"/>
      <use x="344.125" xlink:href="#DejaVuSans-99"/>
      <use x="399.105469" xlink:href="#DejaVuSans-121"/>
     </g>
    </g>
   </g>
   <g id="line2d_12">
    <path clip-path="url(#p2ccbf2473b)" d="M 73.832727 295.488 
L 74.482036 239.896512 
L 75.131345 227.893945 
L 76.429964 196.040426 
L 77.079273 164.33759 
L 77.728582 146.327048 
L 78.377891 122.909775 
L 79.0272 105.488086 
L 80.325818 86.55263 
L 80.975127 86.960068 
L 81.624436 84.47083 
L 82.273745 82.882714 
L 82.923055 79.754067 
L 84.221673 69.574066 
L 84.870982 67.637992 
L 85.520291 72.042486 
L 86.1696 72.631338 
L 86.818909 72.325016 
L 87.468218 72.170368 
L 88.117527 73.580044 
L 88.766836 67.68855 
L 89.416145 66.308614 
L 90.065455 66.293744 
L 90.714764 65.035743 
L 91.364073 67.06401 
L 92.013382 67.052114 
L 92.662691 66.403782 
L 93.312 65.484817 
L 93.961309 68.316064 
L 94.610618 65.211209 
L 95.259927 65.603777 
L 95.909236 66.427574 
L 96.558545 65.883332 
L 97.207855 62.775503 
L 97.857164 62.867697 
L 99.155782 62.014159 
L 99.805091 62.662491 
L 100.4544 63.750975 
L 101.103709 63.295953 
L 101.753018 62.326429 
L 102.402327 61.904121 
L 103.051636 62.029029 
L 104.350255 59.397039 
L 104.999564 59.382169 
L 105.648873 59.997787 
L 106.947491 58.704097 
L 107.5968 59.498155 
L 108.246109 60.940545 
L 108.895418 59.614141 
L 109.544727 59.620089 
L 110.194036 60.223811 
L 110.843345 59.468415 
L 111.492655 59.016367 
L 112.141964 59.762841 
L 112.791273 59.908567 
L 113.440582 59.706335 
L 114.089891 59.727153 
L 114.7392 58.826031 
L 115.388509 59.263209 
L 116.037818 58.707071 
L 116.687127 58.594059 
L 117.336436 58.118219 
L 117.985745 59.307819 
L 118.635055 58.243127 
L 119.284364 58.055765 
L 119.933673 59.281053 
L 120.582982 59.855035 
L 121.232291 58.775473 
L 121.8816 58.775473 
L 122.530909 58.492943 
L 123.180218 56.845348 
L 123.829527 57.110034 
L 124.478836 57.642379 
L 126.426764 57.936805 
L 127.076073 57.532342 
L 127.725382 56.49739 
L 128.374691 57.050554 
L 129.024 57.035684 
L 129.673309 57.377694 
L 130.322618 57.014866 
L 130.971927 58.049817 
L 131.621236 57.190332 
L 132.270545 56.994048 
L 132.919855 56.488468 
L 133.569164 57.273604 
L 134.218473 56.434936 
L 134.867782 56.491442 
L 135.517091 57.413382 
L 136.1664 57.850559 
L 136.815709 57.734573 
L 137.465018 57.850559 
L 138.114327 57.794053 
L 138.763636 56.714492 
L 139.412945 57.651301 
L 140.062255 57.377694 
L 141.360873 57.484758 
L 142.010182 57.758365 
L 143.958109 56.747206 
L 144.607418 56.565792 
L 145.256727 56.800738 
L 145.906036 55.979914 
L 146.555345 56.702596 
L 147.204655 56.589584 
L 147.853964 56.66096 
L 148.503273 56.985126 
L 149.152582 56.857244 
L 149.801891 56.063186 
L 151.100509 55.965044 
L 151.749818 56.327872 
L 152.399127 56.892932 
L 153.048436 56.92862 
L 153.697745 57.139774 
L 154.347055 57.104086 
L 154.996364 56.461702 
L 155.645673 56.128614 
L 156.294982 56.033446 
L 156.944291 55.667644 
L 157.5936 55.495152 
L 158.242909 55.551658 
L 158.892218 55.792552 
L 159.541527 55.863928 
L 160.840145 56.342742 
L 161.489455 55.682514 
L 162.138764 55.557606 
L 162.788073 55.29292 
L 163.437382 55.194778 
L 164.736 55.914486 
L 165.385309 55.786604 
L 166.034618 55.938278 
L 166.683927 55.866902 
L 167.333236 55.135298 
L 167.982545 55.673592 
L 168.631855 55.896642 
L 169.281164 55.727124 
L 169.930473 56.197016 
L 170.579782 56.524156 
L 171.229091 56.057238 
L 171.8784 55.834188 
L 172.527709 55.869876 
L 173.177018 55.596268 
L 173.826327 55.819318 
L 174.475636 55.741994 
L 175.124945 56.084004 
L 175.774255 56.03642 
L 176.423564 56.812634 
L 177.072873 56.36356 
L 177.722182 56.46765 
L 178.371491 56.42304 
L 179.0208 56.669882 
L 179.670109 56.060212 
L 180.319418 56.324898 
L 180.968727 56.12564 
L 181.618036 55.658722 
L 182.267345 56.033446 
L 182.916655 55.968018 
L 184.215273 55.26318 
L 184.864582 55.24831 
L 185.513891 55.489204 
L 186.1632 55.310764 
L 187.461818 55.608164 
L 188.111127 56.521182 
L 188.760436 55.85798 
L 190.708364 56.003706 
L 191.357673 55.480282 
L 192.656291 55.611138 
L 193.3056 55.518944 
L 193.954909 56.06616 
L 194.604218 55.521918 
L 195.253527 55.51597 
L 196.552145 55.2037 
L 197.201455 55.209648 
L 197.850764 55.569502 
L 198.500073 55.361322 
L 199.149382 55.78363 
L 199.798691 55.786604 
L 200.448 55.298868 
L 201.097309 54.95091 
L 202.395927 54.44533 
L 203.045236 54.486966 
L 203.694545 54.213358 
L 204.343855 54.225254 
L 204.993164 54.388824 
L 206.941091 54.299604 
L 207.5904 55.043104 
L 208.889018 54.852768 
L 209.538327 55.45649 
L 210.187636 55.747942 
L 210.836945 54.956858 
L 211.486255 55.587346 
L 212.135564 55.810396 
L 213.434182 55.483256 
L 214.083491 55.84311 
L 214.7328 55.39701 
L 215.382109 55.450542 
L 216.031418 55.239388 
L 216.680727 55.602216 
L 217.330036 55.206674 
L 217.979345 55.399984 
L 218.628655 55.221544 
L 219.277964 55.507048 
L 219.927273 54.879534 
L 220.576582 55.269128 
L 221.225891 55.102584 
L 221.8752 55.245336 
L 222.524509 54.89143 
L 223.173818 55.26318 
L 223.823127 54.986598 
L 224.472436 55.283998 
L 225.121745 55.295894 
L 225.771055 55.14422 
L 226.420364 55.168012 
L 227.069673 55.405932 
L 227.718982 54.930092 
L 228.368291 54.650536 
L 229.0176 54.81708 
L 229.666909 54.457226 
L 230.316218 54.796262 
L 230.965527 54.689198 
L 231.614836 54.766522 
L 232.264145 55.477308 
L 232.913455 55.795526 
L 233.562764 55.200726 
L 234.861382 55.138272 
L 235.510691 54.409642 
L 236.16 54.228228 
L 236.809309 54.879534 
L 238.107927 55.51597 
L 238.757236 55.420802 
L 239.406545 55.51597 
L 240.055855 54.781392 
L 240.705164 54.481018 
L 242.653091 54.100346 
L 243.3024 54.376928 
L 243.951709 54.531576 
L 245.250327 54.20741 
L 245.899636 54.329344 
L 246.548945 53.98436 
L 247.198255 54.362058 
L 248.496873 54.492914 
L 249.795491 55.313738 
L 251.094109 55.135298 
L 251.743418 55.376192 
L 252.392727 55.33753 
L 253.691345 54.912248 
L 254.340655 54.828976 
L 254.989964 55.257232 
L 255.639273 54.754626 
L 256.288582 55.364296 
L 257.5872 55.343478 
L 258.885818 55.533814 
L 259.535127 55.23344 
L 260.833745 55.474334 
L 261.483055 54.724886 
L 262.132364 55.034182 
L 262.781673 54.582134 
L 263.430982 54.558342 
L 264.080291 54.65351 
L 264.7296 54.897378 
L 265.378909 54.77247 
L 266.028218 54.897378 
L 267.976145 54.537524 
L 269.274764 54.591056 
L 270.573382 54.72786 
L 271.222691 54.769496 
L 271.872 54.469122 
L 272.521309 54.412616 
L 273.170618 54.130086 
L 273.819927 55.001468 
L 274.469236 54.65351 
L 275.118545 54.632692 
L 275.767855 54.424512 
L 276.417164 54.376928 
L 277.066473 53.740492 
L 277.715782 54.368006 
L 279.0144 54.47507 
L 279.663709 54.918196 
L 280.313018 54.56429 
L 280.962327 54.38585 
L 281.611636 54.65351 
L 282.260945 54.647562 
L 282.910255 54.225254 
L 284.208873 54.439382 
L 285.507491 54.213358 
L 286.1568 54.234176 
L 286.806109 54.100346 
L 287.455418 53.615584 
L 288.104727 53.568 
L 288.754036 53.978412 
L 289.403345 54.171722 
L 290.052655 54.219306 
L 291.351273 54.781392 
L 292.000582 54.481018 
L 292.649891 54.903326 
L 293.2992 54.956858 
L 293.948509 55.257232 
L 295.247127 55.319686 
L 295.896436 54.733808 
L 296.545745 54.939014 
L 297.195055 54.308526 
L 297.844364 53.930828 
L 299.142982 54.585108 
L 299.792291 54.28176 
L 300.4416 54.338266 
L 301.090909 55.063922 
L 302.389527 54.558342 
L 303.038836 54.591056 
L 303.688145 54.790314 
L 304.337455 54.079528 
L 304.986764 53.945698 
L 305.636073 54.573212 
L 306.285382 54.546446 
L 306.934691 54.25202 
L 307.584 54.614848 
L 308.233309 54.501836 
L 308.882618 53.877296 
L 309.531927 54.391798 
L 310.181236 54.44533 
L 310.830545 54.112242 
L 311.479855 54.10332 
L 312.129164 54.427486 
L 312.778473 53.930828 
L 313.427782 54.43046 
L 314.077091 54.451278 
L 314.7264 54.941988 
L 315.375709 54.62377 
L 316.025018 54.611874 
L 316.674327 54.05871 
L 318.622255 53.737518 
L 319.271564 54.249046 
L 319.920873 54.240124 
L 320.570182 54.635666 
L 321.219491 54.409642 
L 321.8688 54.92117 
L 322.518109 54.671354 
L 323.167418 54.692172 
L 323.816727 54.314474 
L 324.466036 54.840872 
L 325.115345 54.406668 
L 325.764655 54.525628 
L 326.413964 54.466148 
L 327.063273 54.65351 
L 327.712582 54.10332 
L 329.660509 54.332318 
L 331.608436 53.859452 
L 332.257745 53.927854 
L 332.907055 54.141982 
L 334.205673 54.231202 
L 334.854982 54.962806 
L 336.1536 54.56429 
L 337.452218 54.9063 
L 338.101527 54.43046 
L 339.400145 54.37098 
L 340.049455 54.6089 
L 341.997382 53.966516 
L 342.646691 54.136034 
L 343.296 53.782128 
L 344.594618 54.424512 
L 345.243927 54.409642 
L 346.542545 54.091424 
L 347.191855 54.07358 
L 347.841164 53.847556 
L 348.490473 54.139008 
L 349.789091 54.246072 
L 350.4384 54.153878 
L 351.087709 54.299604 
L 351.737018 54.082502 
L 353.035636 54.69812 
L 353.684945 54.406668 
L 354.334255 54.418564 
L 354.983564 54.552394 
L 355.632873 54.43046 
L 356.282182 54.13306 
L 356.931491 54.537524 
L 358.230109 54.305552 
L 358.879418 54.011126 
L 361.476655 54.061684 
L 362.125964 54.335292 
L 362.775273 54.254994 
L 363.424582 53.975438 
L 364.073891 53.99923 
L 365.372509 53.838634 
L 366.021818 53.841608 
L 366.671127 53.7167 
L 367.320436 53.758336 
L 367.969745 53.678038 
L 369.268364 53.874322 
L 369.917673 54.225254 
L 371.216291 54.308526 
L 371.8656 53.960568 
L 372.514909 54.376928 
L 373.164218 54.055736 
L 374.462836 54.32637 
L 375.112145 54.605926 
L 375.761455 54.501836 
L 376.410764 54.730834 
L 377.060073 54.588082 
L 377.709382 54.644588 
L 378.358691 54.53455 
L 379.008 54.150904 
L 379.657309 53.95462 
L 380.306618 53.912984 
L 381.605236 54.260942 
L 382.903855 54.359084 
L 383.553164 54.882508 
L 384.202473 54.41559 
L 384.851782 54.201462 
L 385.501091 54.204436 
L 386.1504 54.362058 
L 386.799709 53.85053 
L 388.098327 53.74644 
L 388.747636 53.951646 
L 389.396945 53.785102 
L 390.695564 54.22228 
L 391.344873 54.308526 
L 391.994182 54.65351 
L 393.942109 54.442356 
L 394.591418 54.555368 
L 395.240727 54.094398 
L 395.890036 54.05871 
L 396.539345 53.600714 
L 397.188655 53.915958 
L 397.837964 53.758336 
L 398.487273 54.100346 
L 398.487273 54.100346 
" style="fill:none;stroke:#ff0000;stroke-dasharray:7.4,3.2;stroke-dashoffset:0;stroke-width:2;"/>
   </g>
   <g id="line2d_13">
    <path clip-path="url(#p2ccbf2473b)" d="M 73.832727 295.488 
L 74.482036 273.740628 
L 75.131345 264.60797 
L 76.429964 229.759634 
L 78.377891 156.899617 
L 79.0272 138.127732 
L 79.676509 126.442887 
L 80.325818 117.050996 
L 80.975127 109.779567 
L 81.624436 106.344597 
L 82.273745 107.293303 
L 82.923055 105.71411 
L 83.572364 101.681366 
L 84.221673 100.783218 
L 85.520291 102.124492 
L 86.818909 96.586905 
L 87.468218 91.795791 
L 88.117527 88.878298 
L 88.766836 83.840342 
L 89.416145 84.759308 
L 90.065455 81.386793 
L 90.714764 83.423982 
L 91.364073 84.161534 
L 92.013382 83.224724 
L 92.662691 81.496831 
L 93.312 82.406874 
L 93.961309 81.371923 
L 94.610618 77.398659 
L 95.259927 75.798647 
L 95.909236 74.516853 
L 96.558545 72.791934 
L 97.207855 71.902708 
L 97.857164 72.408288 
L 99.805091 71.233558 
L 100.4544 70.055854 
L 101.103709 69.38373 
L 101.753018 69.767376 
L 102.402327 72.393418 
L 103.051636 71.551776 
L 103.700945 70.014218 
L 104.999564 69.32425 
L 105.648873 66.368094 
L 106.298182 65.96363 
L 107.5968 65.461025 
L 108.246109 65.571063 
L 108.895418 64.690759 
L 110.194036 64.548007 
L 110.843345 65.630543 
L 111.492655 65.193365 
L 112.791273 65.817904 
L 113.440582 65.865488 
L 114.089891 64.556929 
L 114.7392 64.152465 
L 115.388509 64.390385 
L 116.037818 63.423835 
L 116.687127 63.447627 
L 117.336436 63.123461 
L 117.985745 64.506371 
L 118.635055 63.673651 
L 119.284364 64.616409 
L 119.933673 65.202287 
L 120.582982 65.068457 
L 121.232291 63.301901 
L 121.8816 63.331641 
L 123.180218 61.954679 
L 123.829527 61.936835 
L 124.478836 62.201521 
L 125.128145 61.820849 
L 125.777455 61.782187 
L 126.426764 61.901147 
L 127.725382 63.629041 
L 128.374691 64.634253 
L 129.024 64.548007 
L 129.673309 65.038717 
L 130.322618 64.182205 
L 131.621236 62.933125 
L 132.270545 63.417887 
L 132.919855 62.885541 
L 133.569164 63.117513 
L 134.218473 62.255053 
L 135.517091 62.359143 
L 136.1664 62.076613 
L 136.815709 61.930887 
L 137.465018 61.963601 
L 138.114327 61.514527 
L 138.763636 60.901883 
L 139.412945 61.487761 
L 140.062255 61.014895 
L 140.711564 61.020843 
L 141.360873 60.779949 
L 142.010182 60.705599 
L 142.659491 60.232733 
L 143.3088 59.956151 
L 143.958109 59.843139 
L 144.607418 60.500393 
L 145.256727 60.702625 
L 145.906036 60.527159 
L 146.555345 61.425307 
L 147.204655 61.226049 
L 147.853964 60.869169 
L 148.503273 60.919727 
L 149.801891 60.149461 
L 151.100509 62.150963 
L 151.749818 62.582193 
L 152.399127 62.460259 
L 153.048436 61.916017 
L 154.347055 59.575479 
L 154.996364 58.939043 
L 156.294982 58.650565 
L 157.5936 58.439411 
L 160.190836 59.402987 
L 160.840145 59.462467 
L 161.489455 58.668409 
L 162.138764 58.275841 
L 162.788073 58.142011 
L 163.437382 58.144985 
L 164.086691 58.614877 
L 164.736 58.837927 
L 166.034618 58.608929 
L 166.683927 58.713019 
L 167.333236 58.498891 
L 167.982545 59.185885 
L 168.631855 59.569531 
L 169.930473 59.956151 
L 170.579782 59.629011 
L 171.229091 58.727889 
L 171.8784 58.421567 
L 172.527709 58.255023 
L 173.177018 58.638669 
L 174.475636 58.897407 
L 175.774255 59.310793 
L 178.371491 59.233469 
L 179.670109 58.481047 
L 180.319418 58.650565 
L 180.968727 58.549449 
L 181.618036 58.287737 
L 182.267345 58.944991 
L 183.565964 58.683279 
L 184.215273 59.019341 
L 184.864582 59.682543 
L 186.812509 59.691465 
L 188.111127 59.736075 
L 188.760436 59.153171 
L 189.409745 59.087743 
L 190.059055 58.861719 
L 190.708364 58.826031 
L 191.357673 58.362087 
L 192.656291 58.234205 
L 193.3056 57.981415 
L 193.954909 57.892195 
L 194.604218 57.5829 
L 195.253527 57.686989 
L 195.902836 57.636431 
L 197.850764 57.805949 
L 198.500073 57.56803 
L 199.149382 57.743495 
L 199.798691 57.609665 
L 200.448 57.01784 
L 201.746618 57.148696 
L 202.395927 57.342006 
L 203.045236 57.701859 
L 204.343855 58.933095 
L 204.993164 59.515999 
L 205.642473 59.382169 
L 206.291782 59.724179 
L 207.5904 59.402987 
L 208.239709 58.944991 
L 208.889018 59.001497 
L 209.538327 58.781421 
L 210.836945 57.752417 
L 211.486255 57.996285 
L 212.784873 57.547212 
L 214.083491 58.011155 
L 214.7328 57.707807 
L 216.031418 57.455018 
L 216.680727 57.707807 
L 217.330036 57.472862 
L 217.979345 57.933831 
L 218.628655 58.046843 
L 219.277964 58.397775 
L 219.927273 57.927883 
L 220.576582 57.948701 
L 221.225891 57.422304 
L 221.8752 57.547212 
L 222.524509 57.193306 
L 223.173818 57.356876 
L 223.823127 57.336058 
L 224.472436 57.642379 
L 225.121745 57.422304 
L 225.771055 57.951675 
L 226.420364 58.186621 
L 227.069673 58.207439 
L 227.718982 57.797027 
L 229.0176 58.014129 
L 229.666909 57.773235 
L 230.316218 58.240153 
L 232.913455 58.558371 
L 233.562764 58.231231 
L 234.212073 58.136063 
L 234.861382 58.281789 
L 235.510691 57.520446 
L 237.458618 57.957623 
L 238.107927 57.663197 
L 239.406545 57.422304 
L 240.055855 56.925646 
L 241.354473 56.681778 
L 242.003782 56.785868 
L 242.653091 56.63122 
L 243.951709 56.982152 
L 245.250327 57.698885 
L 245.899636 58.165803 
L 247.198255 58.582163 
L 247.847564 58.263945 
L 248.496873 58.231231 
L 250.4448 57.395538 
L 251.094109 57.407434 
L 251.743418 57.080294 
L 254.340655 56.762076 
L 254.989964 57.261708 
L 255.639273 57.130852 
L 256.288582 57.725651 
L 256.937891 57.987363 
L 258.236509 58.144985 
L 258.885818 58.136063 
L 260.184436 57.722677 
L 260.833745 57.547212 
L 261.483055 56.964308 
L 262.132364 57.113008 
L 262.781673 56.63122 
L 264.7296 57.038658 
L 265.378909 56.830478 
L 266.028218 56.881036 
L 267.326836 56.384378 
L 268.625455 56.315976 
L 269.274764 56.37843 
L 269.924073 56.61635 
L 271.872 56.49739 
L 272.521309 57.074346 
L 273.170618 57.499628 
L 273.819927 58.365061 
L 274.469236 58.192569 
L 275.118545 58.272867 
L 275.767855 57.978441 
L 276.417164 57.541264 
L 277.066473 56.92862 
L 277.715782 57.306318 
L 278.365091 57.199254 
L 279.0144 56.851296 
L 280.313018 56.73531 
L 280.962327 56.539026 
L 282.910255 56.818582 
L 284.208873 57.398512 
L 286.806109 57.764313 
L 287.455418 57.972493 
L 288.104727 58.445359 
L 288.754036 58.602981 
L 292.000582 56.506312 
L 292.649891 56.892932 
L 293.2992 56.821556 
L 295.247127 57.172488 
L 295.896436 56.8394 
L 296.545745 56.75018 
L 297.195055 56.384378 
L 297.844364 56.42304 
L 298.493673 56.574714 
L 300.4416 56.610402 
L 301.090909 56.85427 
L 301.740218 56.717466 
L 302.389527 56.851296 
L 303.038836 57.416356 
L 303.688145 58.243127 
L 304.337455 57.785131 
L 305.636073 58.263945 
L 306.285382 57.826767 
L 306.934691 57.169514 
L 307.584 57.267656 
L 308.882618 56.536052 
L 309.531927 56.6907 
L 310.181236 56.48252 
L 311.479855 56.773972 
L 312.129164 56.916724 
L 312.778473 56.666908 
L 313.427782 57.044606 
L 314.077091 56.955386 
L 314.7264 57.01784 
L 315.375709 56.79479 
L 316.025018 56.872114 
L 317.972945 56.476572 
L 319.271564 56.714492 
L 319.920873 56.34869 
L 320.570182 56.390326 
L 321.219491 56.286236 
L 321.8688 56.461702 
L 323.167418 56.52713 
L 323.816727 56.866166 
L 324.466036 57.514498 
L 325.115345 57.18141 
L 326.413964 57.050554 
L 327.063273 57.059476 
L 327.712582 56.788842 
L 328.361891 57.443122 
L 329.660509 57.591822 
L 330.309818 57.306318 
L 330.959127 57.264682 
L 331.608436 56.952412 
L 332.907055 56.949438 
L 334.205673 56.28921 
L 334.854982 56.428988 
L 336.1536 56.12564 
L 336.802909 56.31895 
L 337.452218 56.321924 
L 338.101527 55.852032 
L 338.750836 55.938278 
L 340.049455 56.399248 
L 340.698764 56.48252 
L 341.997382 56.910776 
L 342.646691 56.827504 
L 343.296 56.533078 
L 343.945309 56.583636 
L 345.243927 56.134562 
L 345.893236 56.247574 
L 346.542545 56.66096 
L 347.841164 56.738284 
L 348.490473 56.72044 
L 349.139782 56.461702 
L 349.789091 55.938278 
L 350.4384 55.837162 
L 351.737018 55.786604 
L 352.386327 56.098874 
L 353.035636 56.21486 
L 354.334255 56.188094 
L 354.983564 56.211886 
L 355.632873 55.929356 
L 356.282182 55.893668 
L 356.931491 56.101848 
L 358.230109 55.965044 
L 359.528727 56.339768 
L 360.827345 56.426014 
L 361.476655 56.443858 
L 362.125964 56.307054 
L 362.775273 56.012628 
L 363.424582 56.194042 
L 364.073891 56.52713 
L 365.372509 56.625272 
L 366.021818 56.863192 
L 366.671127 56.48252 
L 367.320436 56.402222 
L 368.619055 56.619324 
L 369.268364 56.375456 
L 369.917673 56.479546 
L 370.566982 56.119692 
L 371.8656 56.461702 
L 372.514909 56.76505 
L 373.164218 56.637168 
L 373.813527 56.922672 
L 374.462836 56.6907 
L 375.112145 56.315976 
L 375.761455 56.17025 
L 376.410764 56.2446 
L 377.060073 56.039394 
L 377.709382 56.101848 
L 379.657309 55.860954 
L 380.955927 56.547948 
L 382.254545 56.669882 
L 383.553164 56.61635 
L 384.202473 56.137536 
L 384.851782 55.988836 
L 386.1504 56.232704 
L 386.799709 55.959096 
L 387.449018 56.101848 
L 388.098327 56.36356 
L 389.396945 56.22973 
L 390.695564 56.223782 
L 391.344873 56.134562 
L 391.994182 56.515234 
L 394.591418 56.33382 
L 395.240727 55.878798 
L 396.539345 56.05129 
L 397.188655 56.327872 
L 397.837964 56.164302 
L 398.487273 56.405196 
L 398.487273 56.405196 
" style="fill:none;stroke:#ffff00;stroke-dasharray:19.2,4.8,3,4.8;stroke-dashoffset:0;stroke-width:3;"/>
   </g>
   <g id="line2d_14">
    <path clip-path="url(#p2ccbf2473b)" d="M 73.832727 295.488 
L 74.482036 280.789007 
L 75.780655 238.811002 
L 76.429964 223.157355 
L 78.377891 150.987306 
L 79.0272 138.056356 
L 80.325818 119.162536 
L 81.624436 108.033829 
L 82.273745 103.254612 
L 82.923055 101.03006 
L 83.572364 93.550451 
L 84.221673 90.308791 
L 84.870982 89.181646 
L 85.520291 88.726624 
L 86.1696 86.921406 
L 86.818909 85.901324 
L 87.468218 85.163772 
L 88.117527 85.981622 
L 88.766836 84.241832 
L 89.416145 81.389767 
L 90.714764 78.989749 
L 91.364073 75.447715 
L 92.013382 75.221691 
L 92.662691 74.638787 
L 93.312 72.473716 
L 93.961309 72.301224 
L 94.610618 71.751034 
L 95.259927 70.522772 
L 96.558545 69.954738 
L 97.207855 69.392652 
L 97.857164 69.062538 
L 98.506473 69.16068 
L 99.155782 68.973318 
L 99.805091 69.481872 
L 100.4544 68.854358 
L 101.103709 68.87815 
L 101.753018 68.081118 
L 102.402327 68.5064 
L 103.051636 67.075906 
L 104.350255 66.314562 
L 104.999564 66.255082 
L 105.648873 64.842433 
L 106.298182 64.815667 
L 106.947491 64.521241 
L 107.5968 63.834247 
L 108.246109 64.012687 
L 108.895418 63.721235 
L 109.544727 63.679599 
L 110.194036 64.143543 
L 110.843345 64.437969 
L 111.492655 63.789637 
L 112.141964 64.342801 
L 112.791273 64.616409 
L 113.440582 64.238711 
L 114.089891 64.625331 
L 114.7392 64.809719 
L 116.037818 63.182941 
L 116.687127 63.165097 
L 117.336436 62.418623 
L 117.985745 62.909333 
L 118.635055 62.971787 
L 119.284364 63.224577 
L 119.933673 62.867697 
L 120.582982 62.656543 
L 121.232291 61.654305 
L 121.8816 61.782187 
L 123.829527 61.092219 
L 124.478836 61.404489 
L 125.128145 60.958389 
L 126.426764 60.687755 
L 127.076073 60.919727 
L 127.725382 60.717495 
L 129.024 61.121959 
L 129.673309 61.880329 
L 130.322618 61.767317 
L 130.971927 61.874381 
L 131.621236 61.785161 
L 132.270545 61.550215 
L 132.919855 60.940545 
L 133.569164 60.881065 
L 134.867782 60.369537 
L 135.517091 60.426043 
L 137.465018 60.158383 
L 138.114327 60.140539 
L 138.763636 59.774737 
L 139.412945 59.828269 
L 140.062255 59.631985 
L 140.711564 59.798529 
L 141.360873 59.646855 
L 142.010182 60.078085 
L 143.3088 60.060241 
L 143.958109 59.774737 
L 144.607418 60.197045 
L 145.256727 60.307083 
L 145.906036 60.122695 
L 146.555345 60.443887 
L 147.204655 60.390355 
L 147.853964 60.012657 
L 148.503273 59.477337 
L 149.152582 59.486259 
L 149.801891 59.162093 
L 150.4512 59.355403 
L 152.399127 59.215625 
L 153.048436 59.141275 
L 153.697745 58.912277 
L 155.645673 58.879563 
L 156.294982 58.519709 
L 157.5936 58.249075 
L 158.242909 58.424541 
L 159.541527 59.129379 
L 160.840145 59.212651 
L 161.489455 58.793317 
L 162.788073 58.347217 
L 163.437382 58.391827 
L 164.086691 58.323425 
L 164.736 58.424541 
L 166.034618 58.287737 
L 167.333236 58.162829 
L 170.579782 58.867667 
L 172.527709 58.073609 
L 173.177018 58.186621 
L 174.475636 58.088479 
L 175.774255 58.570267 
L 178.371491 58.504839 
L 179.0208 58.171751 
L 179.670109 57.987363 
L 180.319418 58.225283 
L 180.968727 58.165803 
L 181.618036 57.957623 
L 182.267345 58.266919 
L 183.565964 57.984389 
L 184.864582 58.204465 
L 185.513891 57.984389 
L 186.1632 58.124167 
L 186.812509 58.073609 
L 188.111127 58.263945 
L 188.760436 58.240153 
L 189.409745 58.055765 
L 190.708364 58.133089 
L 192.006982 57.672119 
L 194.604218 57.24089 
L 195.253527 57.350928 
L 196.552145 57.25576 
L 197.201455 57.074346 
L 197.850764 57.1368 
L 198.500073 57.029736 
L 199.149382 57.12193 
L 199.798691 57.09219 
L 200.448 56.940516 
L 202.395927 57.276578 
L 203.045236 57.273604 
L 203.694545 57.383642 
L 204.343855 57.30037 
L 204.993164 57.383642 
L 205.642473 57.297396 
L 206.291782 57.588848 
L 206.941091 57.701859 
L 208.239709 57.573978 
L 209.538327 57.160592 
L 210.187636 56.895906 
L 210.836945 56.776946 
L 212.135564 56.9881 
L 212.784873 57.005944 
L 214.083491 57.47881 
L 214.7328 57.401486 
L 215.382109 57.56803 
L 217.330036 57.342006 
L 219.277964 57.487732 
L 220.576582 57.208176 
L 224.472436 57.005944 
L 225.121745 56.857244 
L 225.771055 57.1368 
L 227.069673 57.199254 
L 229.666909 56.655012 
L 231.614836 56.94349 
L 234.212073 57.157618 
L 235.510691 56.892932 
L 236.16 57.133826 
L 237.458618 57.184384 
L 238.757236 57.294422 
L 240.055855 56.952412 
L 242.653091 56.595532 
L 243.951709 56.655012 
L 245.250327 56.821556 
L 247.198255 56.982152 
L 253.691345 56.479546 
L 254.340655 56.479546 
L 254.989964 56.652038 
L 255.639273 56.577688 
L 256.937891 56.857244 
L 257.5872 56.806686 
L 258.236509 56.937542 
L 258.885818 56.916724 
L 260.184436 56.619324 
L 260.833745 56.61635 
L 261.483055 56.37843 
L 262.132364 56.387352 
L 262.781673 56.2446 
L 264.7296 56.458728 
L 266.677527 56.40817 
L 267.326836 56.277314 
L 267.976145 56.298132 
L 268.625455 56.202964 
L 271.222691 56.307054 
L 271.872 56.313002 
L 272.521309 56.488468 
L 273.170618 56.405196 
L 273.819927 56.637168 
L 274.469236 56.530104 
L 275.118545 56.574714 
L 275.767855 56.455754 
L 277.066473 56.46765 
L 277.715782 56.619324 
L 280.962327 56.128614 
L 285.507491 56.55687 
L 287.455418 56.470624 
L 289.403345 56.46765 
L 293.948509 56.14051 
L 294.597818 56.268392 
L 296.545745 56.235678 
L 297.844364 56.057238 
L 299.792291 56.122666 
L 300.4416 56.12564 
L 301.090909 56.283262 
L 301.740218 56.194042 
L 303.038836 56.396274 
L 303.688145 56.589584 
L 304.337455 56.342742 
L 304.986764 56.387352 
L 306.934691 56.134562 
L 308.233309 56.173224 
L 311.479855 56.042368 
L 312.129164 56.078056 
L 312.778473 56.000732 
L 313.427782 56.223782 
L 315.375709 56.256496 
L 316.025018 56.202964 
L 316.674327 55.99181 
L 318.622255 55.923408 
L 320.570182 56.02155 
L 321.8688 56.131588 
L 324.466036 56.426014 
L 325.115345 56.253522 
L 327.712582 56.06616 
L 328.361891 56.253522 
L 329.0112 56.134562 
L 330.309818 56.092926 
L 331.608436 55.950174 
L 332.907055 56.069134 
L 334.205673 55.959096 
L 334.854982 56.06616 
L 336.1536 55.923408 
L 337.452218 56.042368 
L 338.101527 55.85798 
L 341.348073 56.232704 
L 344.594618 55.765786 
L 345.243927 55.807422 
L 347.191855 56.339768 
L 348.490473 56.440884 
L 349.139782 56.262444 
L 349.789091 55.85798 
L 351.087709 55.727124 
L 355.632873 55.896642 
L 358.879418 55.786604 
L 360.178036 55.91746 
L 362.125964 55.938278 
L 362.775273 55.774708 
L 364.7232 55.950174 
L 365.372509 55.899616 
L 366.021818 56.000732 
L 367.969745 55.780656 
L 369.917673 55.855006 
L 370.566982 55.744968 
L 372.514909 56.202964 
L 373.164218 56.12564 
L 373.813527 56.220808 
L 374.462836 56.12564 
L 375.112145 55.855006 
L 377.709382 55.771734 
L 379.657309 55.721176 
L 380.955927 56.05129 
L 382.903855 56.05129 
L 383.553164 55.97694 
L 384.851782 55.688462 
L 386.1504 55.93233 
L 387.449018 55.765786 
L 388.098327 55.822292 
L 389.396945 55.643852 
L 391.994182 55.923408 
L 397.188655 55.72415 
L 398.487273 55.727124 
L 398.487273 55.727124 
" style="fill:none;stroke:#0000ff;stroke-dasharray:19.2,4.8,3,4.8;stroke-dashoffset:0;stroke-width:3;"/>
   </g>
   <g id="line2d_15">
    <path clip-path="url(#p2ccbf2473b)" d="M 73.832727 295.488 
L 74.482036 273.740628 
L 75.131345 264.60797 
L 76.429964 229.759634 
L 78.377891 156.899617 
L 79.0272 138.127732 
L 79.676509 126.442887 
L 80.325818 117.050996 
L 80.975127 109.779567 
L 81.624436 106.344597 
L 82.273745 107.293303 
L 82.923055 105.71411 
L 83.572364 101.681366 
L 84.221673 100.783218 
L 85.520291 102.124492 
L 86.818909 96.586905 
L 87.468218 91.795791 
L 88.117527 88.878298 
L 88.766836 83.840342 
L 89.416145 84.759308 
L 90.065455 81.386793 
L 90.714764 83.423982 
L 91.364073 84.161534 
L 92.013382 83.224724 
L 92.662691 81.496831 
L 93.312 82.406874 
L 93.961309 81.371923 
L 94.610618 77.398659 
L 95.259927 75.798647 
L 95.909236 74.516853 
L 96.558545 72.791934 
L 97.207855 71.902708 
L 97.857164 72.408288 
L 99.805091 71.233558 
L 100.4544 70.055854 
L 101.103709 69.38373 
L 101.753018 69.767376 
L 102.402327 72.393418 
L 103.051636 71.551776 
L 103.700945 70.014218 
L 104.999564 69.32425 
L 105.648873 66.368094 
L 106.298182 65.96363 
L 107.5968 65.461025 
L 108.246109 65.571063 
L 108.895418 64.690759 
L 110.194036 64.548007 
L 110.843345 65.630543 
L 111.492655 65.193365 
L 112.791273 65.817904 
L 113.440582 65.865488 
L 114.089891 64.556929 
L 114.7392 64.152465 
L 115.388509 64.390385 
L 116.037818 63.423835 
L 116.687127 63.447627 
L 117.336436 63.123461 
L 117.985745 64.506371 
L 118.635055 63.673651 
L 119.284364 64.616409 
L 119.933673 65.202287 
L 120.582982 65.068457 
L 121.232291 63.301901 
L 121.8816 63.331641 
L 123.180218 61.954679 
L 123.829527 61.936835 
L 124.478836 62.201521 
L 125.128145 61.820849 
L 125.777455 61.782187 
L 126.426764 61.901147 
L 127.725382 63.629041 
L 128.374691 64.634253 
L 129.024 64.548007 
L 129.673309 65.038717 
L 130.322618 64.182205 
L 131.621236 62.933125 
L 132.270545 63.417887 
L 132.919855 62.885541 
L 133.569164 63.117513 
L 134.218473 62.255053 
L 135.517091 62.359143 
L 136.1664 62.076613 
L 136.815709 61.930887 
L 137.465018 61.963601 
L 138.114327 61.514527 
L 138.763636 60.901883 
L 139.412945 61.487761 
L 140.062255 61.014895 
L 140.711564 61.020843 
L 141.360873 60.779949 
L 142.010182 60.705599 
L 142.659491 60.232733 
L 143.3088 59.956151 
L 143.958109 59.843139 
L 144.607418 60.500393 
L 145.256727 60.702625 
L 145.906036 60.527159 
L 146.555345 61.425307 
L 147.204655 61.226049 
L 147.853964 60.869169 
L 148.503273 60.919727 
L 149.801891 60.149461 
L 151.100509 62.150963 
L 151.749818 62.582193 
L 152.399127 62.460259 
L 153.048436 61.916017 
L 154.347055 59.575479 
L 154.996364 58.939043 
L 156.294982 58.650565 
L 157.5936 58.439411 
L 160.190836 59.402987 
L 160.840145 59.462467 
L 161.489455 58.668409 
L 162.138764 58.275841 
L 162.788073 58.142011 
L 163.437382 58.144985 
L 164.086691 58.614877 
L 164.736 58.837927 
L 166.034618 58.608929 
L 166.683927 58.713019 
L 167.333236 58.498891 
L 167.982545 59.185885 
L 168.631855 59.569531 
L 169.930473 59.956151 
L 170.579782 59.629011 
L 171.229091 58.727889 
L 171.8784 58.421567 
L 172.527709 58.255023 
L 173.177018 58.638669 
L 174.475636 58.897407 
L 175.774255 59.310793 
L 178.371491 59.233469 
L 179.670109 58.481047 
L 180.319418 58.650565 
L 180.968727 58.549449 
L 181.618036 58.287737 
L 182.267345 58.944991 
L 183.565964 58.683279 
L 184.215273 59.019341 
L 184.864582 59.682543 
L 186.812509 59.691465 
L 188.111127 59.736075 
L 188.760436 59.153171 
L 189.409745 59.087743 
L 190.059055 58.861719 
L 190.708364 58.826031 
L 191.357673 58.362087 
L 192.656291 58.234205 
L 193.3056 57.981415 
L 193.954909 57.892195 
L 194.604218 57.5829 
L 195.253527 57.686989 
L 195.902836 57.636431 
L 197.850764 57.805949 
L 198.500073 57.56803 
L 199.149382 57.743495 
L 199.798691 57.609665 
L 200.448 57.01784 
L 201.746618 57.148696 
L 202.395927 57.342006 
L 203.045236 57.701859 
L 204.343855 58.933095 
L 204.993164 59.515999 
L 205.642473 59.382169 
L 206.291782 59.724179 
L 207.5904 59.402987 
L 208.239709 58.944991 
L 208.889018 59.001497 
L 209.538327 58.781421 
L 210.836945 57.752417 
L 211.486255 57.996285 
L 212.784873 57.547212 
L 214.083491 58.011155 
L 214.7328 57.707807 
L 216.031418 57.455018 
L 216.680727 57.707807 
L 217.330036 57.472862 
L 217.979345 57.933831 
L 218.628655 58.046843 
L 219.277964 58.397775 
L 219.927273 57.927883 
L 220.576582 57.948701 
L 221.225891 57.422304 
L 221.8752 57.547212 
L 222.524509 57.193306 
L 223.173818 57.356876 
L 223.823127 57.336058 
L 224.472436 57.642379 
L 225.121745 57.422304 
L 225.771055 57.951675 
L 226.420364 58.186621 
L 227.069673 58.207439 
L 227.718982 57.797027 
L 229.0176 58.014129 
L 229.666909 57.773235 
L 230.316218 58.240153 
L 232.913455 58.558371 
L 233.562764 58.231231 
L 234.212073 58.136063 
L 234.861382 58.281789 
L 235.510691 57.520446 
L 237.458618 57.957623 
L 238.107927 57.663197 
L 239.406545 57.422304 
L 240.055855 56.925646 
L 241.354473 56.681778 
L 242.003782 56.785868 
L 242.653091 56.63122 
L 243.951709 56.982152 
L 245.250327 57.698885 
L 245.899636 58.165803 
L 247.198255 58.582163 
L 247.847564 58.263945 
L 248.496873 58.231231 
L 250.4448 57.395538 
L 251.094109 57.407434 
L 251.743418 57.080294 
L 254.340655 56.762076 
L 254.989964 57.261708 
L 255.639273 57.130852 
L 256.288582 57.725651 
L 256.937891 57.987363 
L 258.236509 58.144985 
L 258.885818 58.136063 
L 260.184436 57.722677 
L 260.833745 57.547212 
L 261.483055 56.964308 
L 262.132364 57.113008 
L 262.781673 56.63122 
L 264.7296 57.038658 
L 265.378909 56.830478 
L 266.028218 56.881036 
L 267.326836 56.384378 
L 268.625455 56.315976 
L 269.274764 56.37843 
L 269.924073 56.61635 
L 271.872 56.49739 
L 272.521309 57.074346 
L 273.170618 57.499628 
L 273.819927 58.365061 
L 274.469236 58.192569 
L 275.118545 58.272867 
L 275.767855 57.978441 
L 276.417164 57.541264 
L 277.066473 56.92862 
L 277.715782 57.306318 
L 278.365091 57.199254 
L 279.0144 56.851296 
L 280.313018 56.73531 
L 280.962327 56.539026 
L 282.910255 56.818582 
L 284.208873 57.398512 
L 286.806109 57.764313 
L 287.455418 57.972493 
L 288.104727 58.445359 
L 288.754036 58.602981 
L 292.000582 56.506312 
L 292.649891 56.892932 
L 293.2992 56.821556 
L 295.247127 57.172488 
L 295.896436 56.8394 
L 296.545745 56.75018 
L 297.195055 56.384378 
L 297.844364 56.42304 
L 298.493673 56.574714 
L 300.4416 56.610402 
L 301.090909 56.85427 
L 301.740218 56.717466 
L 302.389527 56.851296 
L 303.038836 57.416356 
L 303.688145 58.243127 
L 304.337455 57.785131 
L 305.636073 58.263945 
L 306.285382 57.826767 
L 306.934691 57.169514 
L 307.584 57.267656 
L 308.882618 56.536052 
L 309.531927 56.6907 
L 310.181236 56.48252 
L 311.479855 56.773972 
L 312.129164 56.916724 
L 312.778473 56.666908 
L 313.427782 57.044606 
L 314.077091 56.955386 
L 314.7264 57.01784 
L 315.375709 56.79479 
L 316.025018 56.872114 
L 317.972945 56.476572 
L 319.271564 56.714492 
L 319.920873 56.34869 
L 320.570182 56.390326 
L 321.219491 56.286236 
L 321.8688 56.461702 
L 323.167418 56.52713 
L 323.816727 56.866166 
L 324.466036 57.514498 
L 325.115345 57.18141 
L 326.413964 57.050554 
L 327.063273 57.059476 
L 327.712582 56.788842 
L 328.361891 57.443122 
L 329.660509 57.591822 
L 330.309818 57.306318 
L 330.959127 57.264682 
L 331.608436 56.952412 
L 332.907055 56.949438 
L 334.205673 56.28921 
L 334.854982 56.428988 
L 336.1536 56.12564 
L 336.802909 56.31895 
L 337.452218 56.321924 
L 338.101527 55.852032 
L 338.750836 55.938278 
L 340.049455 56.399248 
L 340.698764 56.48252 
L 341.997382 56.910776 
L 342.646691 56.827504 
L 343.296 56.533078 
L 343.945309 56.583636 
L 345.243927 56.134562 
L 345.893236 56.247574 
L 346.542545 56.66096 
L 347.841164 56.738284 
L 348.490473 56.72044 
L 349.139782 56.461702 
L 349.789091 55.938278 
L 350.4384 55.837162 
L 351.737018 55.786604 
L 352.386327 56.098874 
L 353.035636 56.21486 
L 354.334255 56.188094 
L 354.983564 56.211886 
L 355.632873 55.929356 
L 356.282182 55.893668 
L 356.931491 56.101848 
L 358.230109 55.965044 
L 359.528727 56.339768 
L 360.827345 56.426014 
L 361.476655 56.443858 
L 362.125964 56.307054 
L 362.775273 56.012628 
L 363.424582 56.194042 
L 364.073891 56.52713 
L 365.372509 56.625272 
L 366.021818 56.863192 
L 366.671127 56.48252 
L 367.320436 56.402222 
L 368.619055 56.619324 
L 369.268364 56.375456 
L 369.917673 56.479546 
L 370.566982 56.119692 
L 371.8656 56.461702 
L 372.514909 56.76505 
L 373.164218 56.637168 
L 373.813527 56.922672 
L 374.462836 56.6907 
L 375.112145 56.315976 
L 375.761455 56.17025 
L 376.410764 56.2446 
L 377.060073 56.039394 
L 377.709382 56.101848 
L 379.657309 55.860954 
L 380.955927 56.547948 
L 382.254545 56.669882 
L 383.553164 56.61635 
L 384.202473 56.137536 
L 384.851782 55.988836 
L 386.1504 56.232704 
L 386.799709 55.959096 
L 387.449018 56.101848 
L 388.098327 56.36356 
L 389.396945 56.22973 
L 390.695564 56.223782 
L 391.344873 56.134562 
L 391.994182 56.515234 
L 394.591418 56.33382 
L 395.240727 55.878798 
L 396.539345 56.05129 
L 397.188655 56.327872 
L 397.837964 56.164302 
L 398.487273 56.405196 
L 398.487273 56.405196 
" style="fill:none;stroke:#008000;stroke-dasharray:19.2,4.8,3,4.8;stroke-dashoffset:0;stroke-width:3;"/>
   </g>
   <g id="line2d_16">
    <path clip-path="url(#p2ccbf2473b)" d="M 73.832727 295.488 
L 74.482036 273.740628 
L 75.131345 264.60797 
L 76.429964 229.759634 
L 78.377891 156.899617 
L 79.0272 138.127732 
L 79.676509 126.442887 
L 80.325818 117.050996 
L 80.975127 109.779567 
L 81.624436 106.344597 
L 82.273745 107.293303 
L 82.923055 105.71411 
L 83.572364 101.681366 
L 84.221673 100.783218 
L 85.520291 102.124492 
L 86.818909 96.586905 
L 87.468218 91.795791 
L 88.117527 88.878298 
L 88.766836 83.840342 
L 89.416145 84.759308 
L 90.065455 81.386793 
L 90.714764 83.423982 
L 91.364073 84.161534 
L 92.013382 83.224724 
L 92.662691 81.496831 
L 93.312 82.406874 
L 93.961309 81.371923 
L 94.610618 77.398659 
L 95.259927 75.798647 
L 95.909236 74.516853 
L 96.558545 72.791934 
L 97.207855 71.902708 
L 97.857164 72.408288 
L 99.805091 71.233558 
L 100.4544 70.055854 
L 101.103709 69.38373 
L 101.753018 69.767376 
L 102.402327 72.393418 
L 103.051636 71.551776 
L 103.700945 70.014218 
L 104.999564 69.32425 
L 105.648873 66.368094 
L 106.298182 65.96363 
L 107.5968 65.461025 
L 108.246109 65.571063 
L 108.895418 64.690759 
L 110.194036 64.548007 
L 110.843345 65.630543 
L 111.492655 65.193365 
L 112.791273 65.817904 
L 113.440582 65.865488 
L 114.089891 64.556929 
L 114.7392 64.152465 
L 115.388509 64.390385 
L 116.037818 63.423835 
L 116.687127 63.447627 
L 117.336436 63.123461 
L 117.985745 64.506371 
L 118.635055 63.673651 
L 119.284364 64.616409 
L 119.933673 65.202287 
L 120.582982 65.068457 
L 121.232291 63.301901 
L 121.8816 63.331641 
L 123.180218 61.954679 
L 123.829527 61.936835 
L 124.478836 62.201521 
L 125.128145 61.820849 
L 125.777455 61.782187 
L 126.426764 61.901147 
L 127.725382 63.629041 
L 128.374691 64.634253 
L 129.024 64.548007 
L 129.673309 65.038717 
L 130.322618 64.182205 
L 131.621236 62.933125 
L 132.270545 63.417887 
L 132.919855 62.885541 
L 133.569164 63.117513 
L 134.218473 62.255053 
L 135.517091 62.359143 
L 136.1664 62.076613 
L 136.815709 61.930887 
L 137.465018 61.963601 
L 138.114327 61.514527 
L 138.763636 60.901883 
L 139.412945 61.487761 
L 140.062255 61.014895 
L 140.711564 61.020843 
L 141.360873 60.779949 
L 142.010182 60.705599 
L 142.659491 60.232733 
L 143.3088 59.956151 
L 143.958109 59.843139 
L 144.607418 60.500393 
L 145.256727 60.702625 
L 145.906036 60.527159 
L 146.555345 61.425307 
L 147.204655 61.226049 
L 147.853964 60.869169 
L 148.503273 60.919727 
L 149.801891 60.149461 
L 151.100509 62.150963 
L 151.749818 62.582193 
L 152.399127 62.460259 
L 153.048436 61.916017 
L 154.347055 59.575479 
L 154.996364 58.939043 
L 156.294982 58.650565 
L 157.5936 58.439411 
L 160.190836 59.402987 
L 160.840145 59.462467 
L 161.489455 58.668409 
L 162.138764 58.275841 
L 162.788073 58.142011 
L 163.437382 58.144985 
L 164.086691 58.614877 
L 164.736 58.837927 
L 166.034618 58.608929 
L 166.683927 58.713019 
L 167.333236 58.498891 
L 167.982545 59.185885 
L 168.631855 59.569531 
L 169.930473 59.956151 
L 170.579782 59.629011 
L 171.229091 58.727889 
L 171.8784 58.421567 
L 172.527709 58.255023 
L 173.177018 58.638669 
L 174.475636 58.897407 
L 175.774255 59.310793 
L 178.371491 59.233469 
L 179.670109 58.481047 
L 180.319418 58.650565 
L 180.968727 58.549449 
L 181.618036 58.287737 
L 182.267345 58.944991 
L 183.565964 58.683279 
L 184.215273 59.019341 
L 184.864582 59.682543 
L 186.812509 59.691465 
L 188.111127 59.736075 
L 188.760436 59.153171 
L 189.409745 59.087743 
L 190.059055 58.861719 
L 190.708364 58.826031 
L 191.357673 58.362087 
L 192.656291 58.234205 
L 193.3056 57.981415 
L 193.954909 57.892195 
L 194.604218 57.5829 
L 195.253527 57.686989 
L 195.902836 57.636431 
L 197.850764 57.805949 
L 198.500073 57.56803 
L 199.149382 57.743495 
L 199.798691 57.609665 
L 200.448 57.01784 
L 201.746618 57.148696 
L 202.395927 57.342006 
L 203.045236 57.701859 
L 204.343855 58.933095 
L 204.993164 59.515999 
L 205.642473 59.382169 
L 206.291782 59.724179 
L 207.5904 59.402987 
L 208.239709 58.944991 
L 208.889018 59.001497 
L 209.538327 58.781421 
L 210.836945 57.752417 
L 211.486255 57.996285 
L 212.784873 57.547212 
L 214.083491 58.011155 
L 214.7328 57.707807 
L 216.031418 57.455018 
L 216.680727 57.707807 
L 217.330036 57.472862 
L 217.979345 57.933831 
L 218.628655 58.046843 
L 219.277964 58.397775 
L 219.927273 57.927883 
L 220.576582 57.948701 
L 221.225891 57.422304 
L 221.8752 57.547212 
L 222.524509 57.193306 
L 223.173818 57.356876 
L 223.823127 57.336058 
L 224.472436 57.642379 
L 225.121745 57.422304 
L 225.771055 57.951675 
L 226.420364 58.186621 
L 227.069673 58.207439 
L 227.718982 57.797027 
L 229.0176 58.014129 
L 229.666909 57.773235 
L 230.316218 58.240153 
L 232.913455 58.558371 
L 233.562764 58.231231 
L 234.212073 58.136063 
L 234.861382 58.281789 
L 235.510691 57.520446 
L 237.458618 57.957623 
L 238.107927 57.663197 
L 239.406545 57.422304 
L 240.055855 56.925646 
L 241.354473 56.681778 
L 242.003782 56.785868 
L 242.653091 56.63122 
L 243.951709 56.982152 
L 245.250327 57.698885 
L 245.899636 58.165803 
L 247.198255 58.582163 
L 247.847564 58.263945 
L 248.496873 58.231231 
L 250.4448 57.395538 
L 251.094109 57.407434 
L 251.743418 57.080294 
L 254.340655 56.762076 
L 254.989964 57.261708 
L 255.639273 57.130852 
L 256.288582 57.725651 
L 256.937891 57.987363 
L 258.236509 58.144985 
L 258.885818 58.136063 
L 260.184436 57.722677 
L 260.833745 57.547212 
L 261.483055 56.964308 
L 262.132364 57.113008 
L 262.781673 56.63122 
L 264.7296 57.038658 
L 265.378909 56.830478 
L 266.028218 56.881036 
L 267.326836 56.384378 
L 268.625455 56.315976 
L 269.274764 56.37843 
L 269.924073 56.61635 
L 271.872 56.49739 
L 272.521309 57.074346 
L 273.170618 57.499628 
L 273.819927 58.365061 
L 274.469236 58.192569 
L 275.118545 58.272867 
L 275.767855 57.978441 
L 276.417164 57.541264 
L 277.066473 56.92862 
L 277.715782 57.306318 
L 278.365091 57.199254 
L 279.0144 56.851296 
L 280.313018 56.73531 
L 280.962327 56.539026 
L 282.910255 56.818582 
L 284.208873 57.398512 
L 286.806109 57.764313 
L 287.455418 57.972493 
L 288.104727 58.445359 
L 288.754036 58.602981 
L 292.000582 56.506312 
L 292.649891 56.892932 
L 293.2992 56.821556 
L 295.247127 57.172488 
L 295.896436 56.8394 
L 296.545745 56.75018 
L 297.195055 56.384378 
L 297.844364 56.42304 
L 298.493673 56.574714 
L 300.4416 56.610402 
L 301.090909 56.85427 
L 301.740218 56.717466 
L 302.389527 56.851296 
L 303.038836 57.416356 
L 303.688145 58.243127 
L 304.337455 57.785131 
L 305.636073 58.263945 
L 306.285382 57.826767 
L 306.934691 57.169514 
L 307.584 57.267656 
L 308.882618 56.536052 
L 309.531927 56.6907 
L 310.181236 56.48252 
L 311.479855 56.773972 
L 312.129164 56.916724 
L 312.778473 56.666908 
L 313.427782 57.044606 
L 314.077091 56.955386 
L 314.7264 57.01784 
L 315.375709 56.79479 
L 316.025018 56.872114 
L 317.972945 56.476572 
L 319.271564 56.714492 
L 319.920873 56.34869 
L 320.570182 56.390326 
L 321.219491 56.286236 
L 321.8688 56.461702 
L 323.167418 56.52713 
L 323.816727 56.866166 
L 324.466036 57.514498 
L 325.115345 57.18141 
L 326.413964 57.050554 
L 327.063273 57.059476 
L 327.712582 56.788842 
L 328.361891 57.443122 
L 329.660509 57.591822 
L 330.309818 57.306318 
L 330.959127 57.264682 
L 331.608436 56.952412 
L 332.907055 56.949438 
L 334.205673 56.28921 
L 334.854982 56.428988 
L 336.1536 56.12564 
L 336.802909 56.31895 
L 337.452218 56.321924 
L 338.101527 55.852032 
L 338.750836 55.938278 
L 340.049455 56.399248 
L 340.698764 56.48252 
L 341.997382 56.910776 
L 342.646691 56.827504 
L 343.296 56.533078 
L 343.945309 56.583636 
L 345.243927 56.134562 
L 345.893236 56.247574 
L 346.542545 56.66096 
L 347.841164 56.738284 
L 348.490473 56.72044 
L 349.139782 56.461702 
L 349.789091 55.938278 
L 350.4384 55.837162 
L 351.737018 55.786604 
L 352.386327 56.098874 
L 353.035636 56.21486 
L 354.334255 56.188094 
L 354.983564 56.211886 
L 355.632873 55.929356 
L 356.282182 55.893668 
L 356.931491 56.101848 
L 358.230109 55.965044 
L 359.528727 56.339768 
L 360.827345 56.426014 
L 361.476655 56.443858 
L 362.125964 56.307054 
L 362.775273 56.012628 
L 363.424582 56.194042 
L 364.073891 56.52713 
L 365.372509 56.625272 
L 366.021818 56.863192 
L 366.671127 56.48252 
L 367.320436 56.402222 
L 368.619055 56.619324 
L 369.268364 56.375456 
L 369.917673 56.479546 
L 370.566982 56.119692 
L 371.8656 56.461702 
L 372.514909 56.76505 
L 373.164218 56.637168 
L 373.813527 56.922672 
L 374.462836 56.6907 
L 375.112145 56.315976 
L 375.761455 56.17025 
L 376.410764 56.2446 
L 377.060073 56.039394 
L 377.709382 56.101848 
L 379.657309 55.860954 
L 380.955927 56.547948 
L 382.254545 56.669882 
L 383.553164 56.61635 
L 384.202473 56.137536 
L 384.851782 55.988836 
L 386.1504 56.232704 
L 386.799709 55.959096 
L 387.449018 56.101848 
L 388.098327 56.36356 
L 389.396945 56.22973 
L 390.695564 56.223782 
L 391.344873 56.134562 
L 391.994182 56.515234 
L 394.591418 56.33382 
L 395.240727 55.878798 
L 396.539345 56.05129 
L 397.188655 56.327872 
L 397.837964 56.164302 
L 398.487273 56.405196 
L 398.487273 56.405196 
" style="fill:none;stroke:#000000;stroke-dasharray:19.2,4.8,3,4.8;stroke-dashoffset:0;stroke-width:3;"/>
   </g>
   <g id="line2d_17">
    <path clip-path="url(#p2ccbf2473b)" d="M 73.832727 295.488 
L 74.482036 290.335546 
L 75.131345 262.144507 
L 75.780655 241.379794 
L 76.429964 227.386382 
L 77.728582 176.388237 
L 78.377891 165.634254 
L 79.676509 152.994756 
L 80.325818 147.638582 
L 81.624436 139.543355 
L 82.923055 132.58717 
L 84.221673 124.078557 
L 85.520291 116.004148 
L 86.1696 112.818995 
L 87.468218 108.221191 
L 89.416145 103.575804 
L 92.013382 98.653834 
L 93.961309 95.593589 
L 96.558545 91.605455 
L 97.857164 89.85377 
L 99.805091 87.661932 
L 103.051636 84.88719 
L 104.999564 83.632162 
L 106.298182 82.838104 
L 110.194036 80.152583 
L 112.141964 79.150345 
L 113.440582 78.496065 
L 115.388509 77.547359 
L 117.336436 76.664081 
L 119.284364 75.673739 
L 121.8816 74.733955 
L 123.829527 74.240271 
L 130.322618 72.336912 
L 132.270545 71.938396 
L 134.218473 71.513114 
L 140.062255 70.475188 
L 143.958109 69.758454 
L 146.555345 69.401574 
L 151.100509 68.741346 
L 154.347055 68.32796 
L 156.294982 68.042456 
L 159.541527 67.771822 
L 160.190836 67.635018 
L 162.138764 67.522006 
L 162.788073 67.426838 
L 163.437382 67.477396 
L 165.385309 67.206762 
L 166.034618 67.19784 
L 166.683927 67.037244 
L 173.826327 66.52869 
L 174.475636 66.371068 
L 175.124945 66.347276 
L 175.774255 66.210472 
L 176.423564 66.237238 
L 177.072873 66.118278 
L 177.722182 66.159914 
L 178.371491 66.040954 
L 179.0208 66.06772 
L 179.670109 65.927942 
L 180.319418 65.969578 
L 180.968727 65.81493 
L 181.618036 65.880358 
L 182.267345 65.731658 
L 182.916655 65.817904 
L 183.565964 65.690022 
L 184.215273 65.80006 
L 184.864582 65.678126 
L 185.513891 65.78519 
L 186.1632 65.624595 
L 186.812509 65.66623 
L 187.461818 65.487791 
L 188.111127 65.505635 
L 188.760436 65.312325 
L 189.409745 65.321247 
L 190.059055 65.169573 
L 190.708364 65.223105 
L 191.357673 65.104145 
L 192.006982 65.148755 
L 192.656291 65.071431 
L 193.3056 65.136859 
L 193.954909 65.077379 
L 195.902836 65.196339 
L 197.850764 65.104145 
L 210.187636 64.791875 
L 212.135564 64.509345 
L 214.083491 64.586669 
L 214.7328 64.625331 
L 215.382109 64.821615 
L 216.680727 64.756187 
L 218.628655 64.176257 
L 224.472436 63.709339 
L 226.420364 63.843169 
L 227.069673 63.875883 
L 228.368291 63.643911 
L 230.316218 63.269187 
L 230.965527 63.266213 
L 232.264145 63.069929 
L 234.212073 62.855801 
L 237.458618 62.445389 
L 240.055855 62.076613 
L 242.653091 62.147989 
L 244.601018 62.002263 
L 245.899636 61.776239 
L 247.198255 61.651331 
L 247.847564 61.559137 
L 249.795491 61.805979 
L 255.639273 61.223075 
L 258.236509 61.437203 
L 260.184436 61.565085 
L 264.080291 61.359879 
L 264.7296 61.324191 
L 265.378909 61.431255 
L 266.028218 61.368801 
L 266.677527 61.440177 
L 268.625455 61.169543 
L 269.274764 61.229023 
L 269.924073 61.127907 
L 270.573382 61.234971 
L 271.222691 61.178465 
L 271.872 61.342035 
L 275.118545 61.249841 
L 276.417164 61.074375 
L 278.365091 61.240919 
L 279.0144 61.258763 
L 279.663709 61.398541 
L 280.313018 61.315269 
L 282.260945 61.380697 
L 282.910255 61.249841 
L 284.208873 61.196309 
L 286.1568 60.982181 
L 286.806109 60.845377 
L 288.104727 60.863221 
L 290.701964 61.303373 
L 292.649891 61.350957 
L 300.4416 60.708573 
L 302.389527 60.934597 
L 304.337455 60.976233 
L 310.830545 61.773265 
L 311.479855 62.100405 
L 312.778473 62.112301 
L 314.077091 61.499657 
L 316.674327 61.356905 
L 317.323636 61.431255 
L 317.972945 61.026791 
L 318.622255 60.765079 
L 319.920873 60.750209 
L 321.219491 61.101141 
L 321.8688 61.517501 
L 323.167418 62.005237 
L 323.816727 61.963601 
L 324.466036 62.109327 
L 325.115345 61.924939 
L 328.361891 61.996315 
L 329.0112 61.918991 
L 329.660509 61.615643 
L 330.309818 61.499657 
L 330.959127 61.157647 
L 331.608436 60.646119 
L 332.257745 60.327901 
L 332.907055 60.625301 
L 333.556364 60.348719 
L 335.504291 61.166569 
L 336.1536 60.637197 
L 336.802909 61.110063 
L 337.452218 60.788871 
L 338.101527 60.961363 
L 338.750836 60.643145 
L 339.400145 60.824559 
L 340.049455 60.643145 
L 340.698764 61.092219 
L 341.348073 61.074375 
L 342.646691 62.029029 
L 343.296 62.320481 
L 343.945309 62.469181 
L 344.594618 62.834983 
L 345.893236 62.142041 
L 346.542545 62.088509 
L 347.191855 61.713785 
L 347.841164 61.089245 
L 349.139782 60.330875 
L 349.789091 59.590349 
L 350.4384 59.200755 
L 354.334255 58.829005 
L 357.5808 58.894433 
L 358.879418 58.689227 
L 360.178036 58.608929 
L 362.125964 58.608929 
L 363.424582 58.605955 
L 365.372509 58.704097 
L 366.021818 58.802239 
L 367.320436 59.462467 
L 369.917673 60.967311 
L 371.216291 61.142777 
L 375.761455 59.896671 
L 377.709382 59.307819 
L 378.358691 59.310793 
L 379.657309 59.756893 
L 381.605236 60.824559 
L 382.903855 60.866195 
L 384.202473 60.399277 
L 384.851782 60.235707 
L 385.501091 60.250577 
L 387.449018 59.810425 
L 388.098327 59.587375 
L 388.747636 59.188859 
L 390.046255 58.763577 
L 397.837964 58.983653 
L 398.487273 59.230495 
L 398.487273 59.230495 
" style="fill:none;stroke:#ffc0cb;stroke-dasharray:19.2,4.8,3,4.8;stroke-dashoffset:0;stroke-width:3;"/>
   </g>
   <g id="patch_3">
    <path d="M 57.6 307.584 
L 57.6 41.472 
" style="fill:none;stroke:#000000;stroke-linecap:square;stroke-linejoin:miter;stroke-width:0.8;"/>
   </g>
   <g id="patch_4">
    <path d="M 414.72 307.584 
L 414.72 41.472 
" style="fill:none;"/>
   </g>
   <g id="patch_5">
    <path d="M 57.6 307.584 
L 414.72 307.584 
" style="fill:none;stroke:#000000;stroke-linecap:square;stroke-linejoin:miter;stroke-width:0.8;"/>
   </g>
   <g id="patch_6">
    <path d="M 57.6 41.472 
L 414.72 41.472 
" style="fill:none;"/>
   </g>
   <g id="legend_1">
    <g id="patch_7">
     <path d="M 322.90125 302.584 
L 407.72 302.584 
Q 409.72 302.584 409.72 300.584 
L 409.72 213.51525 
Q 409.72 211.51525 407.72 211.51525 
L 322.90125 211.51525 
Q 320.90125 211.51525 320.90125 213.51525 
L 320.90125 300.584 
Q 320.90125 302.584 322.90125 302.584 
z
" style="fill:#ffffff;opacity:0.8;stroke:#cccccc;stroke-linejoin:miter;"/>
    </g>
    <g id="line2d_18">
     <path d="M 324.90125 219.613687 
L 344.90125 219.613687 
" style="fill:none;stroke:#ff0000;stroke-dasharray:7.4,3.2;stroke-dashoffset:0;stroke-width:2;"/>
    </g>
    <g id="line2d_19"/>
    <g id="text_14">
     <!-- FedAAW -->
     <defs>
      <path d="M 9.8125 72.90625 
L 51.703125 72.90625 
L 51.703125 64.59375 
L 19.671875 64.59375 
L 19.671875 43.109375 
L 48.578125 43.109375 
L 48.578125 34.8125 
L 19.671875 34.8125 
L 19.671875 0 
L 9.8125 0 
z
" id="DejaVuSans-70"/>
      <path d="M 56.203125 29.59375 
L 56.203125 25.203125 
L 14.890625 25.203125 
Q 15.484375 15.921875 20.484375 11.0625 
Q 25.484375 6.203125 34.421875 6.203125 
Q 39.59375 6.203125 44.453125 7.46875 
Q 49.3125 8.734375 54.109375 11.28125 
L 54.109375 2.78125 
Q 49.265625 0.734375 44.1875 -0.34375 
Q 39.109375 -1.421875 33.890625 -1.421875 
Q 20.796875 -1.421875 13.15625 6.1875 
Q 5.515625 13.8125 5.515625 26.8125 
Q 5.515625 40.234375 12.765625 48.109375 
Q 20.015625 56 32.328125 56 
Q 43.359375 56 49.78125 48.890625 
Q 56.203125 41.796875 56.203125 29.59375 
z
M 47.21875 32.234375 
Q 47.125 39.59375 43.09375 43.984375 
Q 39.0625 48.390625 32.421875 48.390625 
Q 24.90625 48.390625 20.390625 44.140625 
Q 15.875 39.890625 15.1875 32.171875 
z
" id="DejaVuSans-101"/>
      <path d="M 3.328125 72.90625 
L 13.28125 72.90625 
L 28.609375 11.28125 
L 43.890625 72.90625 
L 54.984375 72.90625 
L 70.3125 11.28125 
L 85.59375 72.90625 
L 95.609375 72.90625 
L 77.296875 0 
L 64.890625 0 
L 49.515625 63.28125 
L 33.984375 0 
L 21.578125 0 
z
" id="DejaVuSans-87"/>
     </defs>
     <g transform="translate(352.90125 223.113687)scale(0.1 -0.1)">
      <use xlink:href="#DejaVuSans-70"/>
      <use x="57.441406" xlink:href="#DejaVuSans-101"/>
      <use x="118.964844" xlink:href="#DejaVuSans-100"/>
      <use x="182.441406" xlink:href="#DejaVuSans-65"/>
      <use x="250.880859" xlink:href="#DejaVuSans-65"/>
      <use x="319.210938" xlink:href="#DejaVuSans-87"/>
     </g>
    </g>
    <g id="line2d_20">
     <path d="M 324.90125 234.291812 
L 344.90125 234.291812 
" style="fill:none;stroke:#ffff00;stroke-dasharray:19.2,4.8,3,4.8;stroke-dashoffset:0;stroke-width:3;"/>
    </g>
    <g id="line2d_21"/>
    <g id="text_15">
     <!-- FedAvg -->
     <defs>
      <path d="M 2.984375 54.6875 
L 12.5 54.6875 
L 29.59375 8.796875 
L 46.6875 54.6875 
L 56.203125 54.6875 
L 35.6875 0 
L 23.484375 0 
z
" id="DejaVuSans-118"/>
      <path d="M 45.40625 27.984375 
Q 45.40625 37.75 41.375 43.109375 
Q 37.359375 48.484375 30.078125 48.484375 
Q 22.859375 48.484375 18.828125 43.109375 
Q 14.796875 37.75 14.796875 27.984375 
Q 14.796875 18.265625 18.828125 12.890625 
Q 22.859375 7.515625 30.078125 7.515625 
Q 37.359375 7.515625 41.375 12.890625 
Q 45.40625 18.265625 45.40625 27.984375 
z
M 54.390625 6.78125 
Q 54.390625 -7.171875 48.1875 -13.984375 
Q 42 -20.796875 29.203125 -20.796875 
Q 24.46875 -20.796875 20.265625 -20.09375 
Q 16.0625 -19.390625 12.109375 -17.921875 
L 12.109375 -9.1875 
Q 16.0625 -11.328125 19.921875 -12.34375 
Q 23.78125 -13.375 27.78125 -13.375 
Q 36.625 -13.375 41.015625 -8.765625 
Q 45.40625 -4.15625 45.40625 5.171875 
L 45.40625 9.625 
Q 42.625 4.78125 38.28125 2.390625 
Q 33.9375 0 27.875 0 
Q 17.828125 0 11.671875 7.65625 
Q 5.515625 15.328125 5.515625 27.984375 
Q 5.515625 40.671875 11.671875 48.328125 
Q 17.828125 56 27.875 56 
Q 33.9375 56 38.28125 53.609375 
Q 42.625 51.21875 45.40625 46.390625 
L 45.40625 54.6875 
L 54.390625 54.6875 
z
" id="DejaVuSans-103"/>
     </defs>
     <g transform="translate(352.90125 237.791812)scale(0.1 -0.1)">
      <use xlink:href="#DejaVuSans-70"/>
      <use x="57.441406" xlink:href="#DejaVuSans-101"/>
      <use x="118.964844" xlink:href="#DejaVuSans-100"/>
      <use x="182.441406" xlink:href="#DejaVuSans-65"/>
      <use x="250.771484" xlink:href="#DejaVuSans-118"/>
      <use x="309.951172" xlink:href="#DejaVuSans-103"/>
     </g>
    </g>
    <g id="line2d_22">
     <path d="M 324.90125 248.969937 
L 344.90125 248.969937 
" style="fill:none;stroke:#0000ff;stroke-dasharray:19.2,4.8,3,4.8;stroke-dashoffset:0;stroke-width:3;"/>
    </g>
    <g id="line2d_23"/>
    <g id="text_16">
     <!-- FedJS -->
     <defs>
      <path d="M 9.8125 72.90625 
L 19.671875 72.90625 
L 19.671875 5.078125 
Q 19.671875 -8.109375 14.671875 -14.0625 
Q 9.671875 -20.015625 -1.421875 -20.015625 
L -5.171875 -20.015625 
L -5.171875 -11.71875 
L -2.09375 -11.71875 
Q 4.4375 -11.71875 7.125 -8.046875 
Q 9.8125 -4.390625 9.8125 5.078125 
z
" id="DejaVuSans-74"/>
      <path d="M 53.515625 70.515625 
L 53.515625 60.890625 
Q 47.90625 63.578125 42.921875 64.890625 
Q 37.9375 66.21875 33.296875 66.21875 
Q 25.25 66.21875 20.875 63.09375 
Q 16.5 59.96875 16.5 54.203125 
Q 16.5 49.359375 19.40625 46.890625 
Q 22.3125 44.4375 30.421875 42.921875 
L 36.375 41.703125 
Q 47.40625 39.59375 52.65625 34.296875 
Q 57.90625 29 57.90625 20.125 
Q 57.90625 9.515625 50.796875 4.046875 
Q 43.703125 -1.421875 29.984375 -1.421875 
Q 24.8125 -1.421875 18.96875 -0.25 
Q 13.140625 0.921875 6.890625 3.21875 
L 6.890625 13.375 
Q 12.890625 10.015625 18.65625 8.296875 
Q 24.421875 6.59375 29.984375 6.59375 
Q 38.421875 6.59375 43.015625 9.90625 
Q 47.609375 13.234375 47.609375 19.390625 
Q 47.609375 24.75 44.3125 27.78125 
Q 41.015625 30.8125 33.5 32.328125 
L 27.484375 33.5 
Q 16.453125 35.6875 11.515625 40.375 
Q 6.59375 45.0625 6.59375 53.421875 
Q 6.59375 63.09375 13.40625 68.65625 
Q 20.21875 74.21875 32.171875 74.21875 
Q 37.3125 74.21875 42.625 73.28125 
Q 47.953125 72.359375 53.515625 70.515625 
z
" id="DejaVuSans-83"/>
     </defs>
     <g transform="translate(352.90125 252.469937)scale(0.1 -0.1)">
      <use xlink:href="#DejaVuSans-70"/>
      <use x="57.441406" xlink:href="#DejaVuSans-101"/>
      <use x="118.964844" xlink:href="#DejaVuSans-100"/>
      <use x="182.441406" xlink:href="#DejaVuSans-74"/>
      <use x="211.933594" xlink:href="#DejaVuSans-83"/>
     </g>
    </g>
    <g id="line2d_24">
     <path d="M 324.90125 263.648062 
L 344.90125 263.648062 
" style="fill:none;stroke:#008000;stroke-dasharray:19.2,4.8,3,4.8;stroke-dashoffset:0;stroke-width:3;"/>
    </g>
    <g id="line2d_25"/>
    <g id="text_17">
     <!-- FedProx -->
     <defs>
      <path d="M 19.671875 64.796875 
L 19.671875 37.40625 
L 32.078125 37.40625 
Q 38.96875 37.40625 42.71875 40.96875 
Q 46.484375 44.53125 46.484375 51.125 
Q 46.484375 57.671875 42.71875 61.234375 
Q 38.96875 64.796875 32.078125 64.796875 
z
M 9.8125 72.90625 
L 32.078125 72.90625 
Q 44.34375 72.90625 50.609375 67.359375 
Q 56.890625 61.8125 56.890625 51.125 
Q 56.890625 40.328125 50.609375 34.8125 
Q 44.34375 29.296875 32.078125 29.296875 
L 19.671875 29.296875 
L 19.671875 0 
L 9.8125 0 
z
" id="DejaVuSans-80"/>
      <path d="M 54.890625 54.6875 
L 35.109375 28.078125 
L 55.90625 0 
L 45.3125 0 
L 29.390625 21.484375 
L 13.484375 0 
L 2.875 0 
L 24.125 28.609375 
L 4.6875 54.6875 
L 15.28125 54.6875 
L 29.78125 35.203125 
L 44.28125 54.6875 
z
" id="DejaVuSans-120"/>
     </defs>
     <g transform="translate(352.90125 267.148062)scale(0.1 -0.1)">
      <use xlink:href="#DejaVuSans-70"/>
      <use x="57.441406" xlink:href="#DejaVuSans-101"/>
      <use x="118.964844" xlink:href="#DejaVuSans-100"/>
      <use x="182.441406" xlink:href="#DejaVuSans-80"/>
      <use x="242.728516" xlink:href="#DejaVuSans-114"/>
      <use x="283.810547" xlink:href="#DejaVuSans-111"/>
      <use x="344.945312" xlink:href="#DejaVuSans-120"/>
     </g>
    </g>
    <g id="line2d_26">
     <path d="M 324.90125 278.326188 
L 344.90125 278.326188 
" style="fill:none;stroke:#000000;stroke-dasharray:19.2,4.8,3,4.8;stroke-dashoffset:0;stroke-width:3;"/>
    </g>
    <g id="line2d_27"/>
    <g id="text_18">
     <!-- MOON -->
     <defs>
      <path d="M 9.8125 72.90625 
L 24.515625 72.90625 
L 43.109375 23.296875 
L 61.8125 72.90625 
L 76.515625 72.90625 
L 76.515625 0 
L 66.890625 0 
L 66.890625 64.015625 
L 48.09375 14.015625 
L 38.1875 14.015625 
L 19.390625 64.015625 
L 19.390625 0 
L 9.8125 0 
z
" id="DejaVuSans-77"/>
      <path d="M 39.40625 66.21875 
Q 28.65625 66.21875 22.328125 58.203125 
Q 16.015625 50.203125 16.015625 36.375 
Q 16.015625 22.609375 22.328125 14.59375 
Q 28.65625 6.59375 39.40625 6.59375 
Q 50.140625 6.59375 56.421875 14.59375 
Q 62.703125 22.609375 62.703125 36.375 
Q 62.703125 50.203125 56.421875 58.203125 
Q 50.140625 66.21875 39.40625 66.21875 
z
M 39.40625 74.21875 
Q 54.734375 74.21875 63.90625 63.9375 
Q 73.09375 53.65625 73.09375 36.375 
Q 73.09375 19.140625 63.90625 8.859375 
Q 54.734375 -1.421875 39.40625 -1.421875 
Q 24.03125 -1.421875 14.8125 8.828125 
Q 5.609375 19.09375 5.609375 36.375 
Q 5.609375 53.65625 14.8125 63.9375 
Q 24.03125 74.21875 39.40625 74.21875 
z
" id="DejaVuSans-79"/>
      <path d="M 9.8125 72.90625 
L 23.09375 72.90625 
L 55.421875 11.921875 
L 55.421875 72.90625 
L 64.984375 72.90625 
L 64.984375 0 
L 51.703125 0 
L 19.390625 60.984375 
L 19.390625 0 
L 9.8125 0 
z
" id="DejaVuSans-78"/>
     </defs>
     <g transform="translate(352.90125 281.826188)scale(0.1 -0.1)">
      <use xlink:href="#DejaVuSans-77"/>
      <use x="86.279297" xlink:href="#DejaVuSans-79"/>
      <use x="164.990234" xlink:href="#DejaVuSans-79"/>
      <use x="243.701172" xlink:href="#DejaVuSans-78"/>
     </g>
    </g>
    <g id="line2d_28">
     <path d="M 324.90125 293.004312 
L 344.90125 293.004312 
" style="fill:none;stroke:#ffc0cb;stroke-dasharray:19.2,4.8,3,4.8;stroke-dashoffset:0;stroke-width:3;"/>
    </g>
    <g id="line2d_29"/>
    <g id="text_19">
     <!-- SCAFFOLD -->
     <defs>
      <path d="M 64.40625 67.28125 
L 64.40625 56.890625 
Q 59.421875 61.53125 53.78125 63.8125 
Q 48.140625 66.109375 41.796875 66.109375 
Q 29.296875 66.109375 22.65625 58.46875 
Q 16.015625 50.828125 16.015625 36.375 
Q 16.015625 21.96875 22.65625 14.328125 
Q 29.296875 6.6875 41.796875 6.6875 
Q 48.140625 6.6875 53.78125 8.984375 
Q 59.421875 11.28125 64.40625 15.921875 
L 64.40625 5.609375 
Q 59.234375 2.09375 53.4375 0.328125 
Q 47.65625 -1.421875 41.21875 -1.421875 
Q 24.65625 -1.421875 15.125 8.703125 
Q 5.609375 18.84375 5.609375 36.375 
Q 5.609375 53.953125 15.125 64.078125 
Q 24.65625 74.21875 41.21875 74.21875 
Q 47.75 74.21875 53.53125 72.484375 
Q 59.328125 70.75 64.40625 67.28125 
z
" id="DejaVuSans-67"/>
      <path d="M 9.8125 72.90625 
L 19.671875 72.90625 
L 19.671875 8.296875 
L 55.171875 8.296875 
L 55.171875 0 
L 9.8125 0 
z
" id="DejaVuSans-76"/>
      <path d="M 19.671875 64.796875 
L 19.671875 8.109375 
L 31.59375 8.109375 
Q 46.6875 8.109375 53.6875 14.9375 
Q 60.6875 21.78125 60.6875 36.53125 
Q 60.6875 51.171875 53.6875 57.984375 
Q 46.6875 64.796875 31.59375 64.796875 
z
M 9.8125 72.90625 
L 30.078125 72.90625 
Q 51.265625 72.90625 61.171875 64.09375 
Q 71.09375 55.28125 71.09375 36.53125 
Q 71.09375 17.671875 61.125 8.828125 
Q 51.171875 0 30.078125 0 
L 9.8125 0 
z
" id="DejaVuSans-68"/>
     </defs>
     <g transform="translate(352.90125 296.504312)scale(0.1 -0.1)">
      <use xlink:href="#DejaVuSans-83"/>
      <use x="63.476562" xlink:href="#DejaVuSans-67"/>
      <use x="133.300781" xlink:href="#DejaVuSans-65"/>
      <use x="201.708984" xlink:href="#DejaVuSans-70"/>
      <use x="259.228516" xlink:href="#DejaVuSans-70"/>
      <use x="316.748047" xlink:href="#DejaVuSans-79"/>
      <use x="395.458984" xlink:href="#DejaVuSans-76"/>
      <use x="451.171875" xlink:href="#DejaVuSans-68"/>
     </g>
    </g>
   </g>
  </g>
 </g>
 <defs>
  <clipPath id="p2ccbf2473b">
   <rect height="266.112" width="357.12" x="57.6" y="41.472"/>
  </clipPath>
 </defs>
</svg>
